<?xml version="1.0" encoding="utf-8"?>
<!-- Generator: Adobe Illustrator 27.5.0, SVG Export Plug-In . SVG Version: 6.00 Build 0)  -->
<svg version="1.1" xmlns="http://www.w3.org/2000/svg" xmlns:xlink="http://www.w3.org/1999/xlink" x="0px" y="0px"
	 viewBox="0 0 750 500" style="enable-background:new 0 0 750 500;" xml:space="preserve">
<g id="Background_Complete">
	<g>
		<g>
			<g>
				<g>
					<g>
						<g>
							<path style="fill:#EBEBEB;" d="M604.115,56.609c2.243-1.579,3.44-4.514,2.795-7.519c-0.848-3.937-4.528-6.485-8.22-5.692
								c-3.691,0.793-5.996,4.627-5.148,8.564c0.653,3.033,2.99,5.223,5.716,5.714c-9.936,3.806-7.016,14.872-7.016,14.872
								l24.325-5.227C616.566,67.321,614.639,55.909,604.115,56.609z"/>
						</g>
					</g>
				</g>
			</g>
		</g>
	</g>
	<g>
		<g>
			<g>
				<g>
					<g>
						<g>
							<path style="fill:#EBEBEB;" d="M690.123,315.408c3.49-0.959,6.286-4.066,6.828-8.085c0.705-5.265-2.724-10.072-7.661-10.736
								c-4.935-0.664-9.509,3.066-10.215,8.331c-0.544,4.057,1.378,7.818,4.543,9.645c-14.032,0.286-15.35,15.326-15.35,15.326
								l32.526,4.376C700.793,334.265,703.498,319.24,690.123,315.408z"/>
						</g>
					</g>
				</g>
			</g>
		</g>
	</g>
	<g>
		<g>
			<path style="fill:#F5F5F5;" d="M589.835,405.018h-50c-2.831,0-5.125-2.295-5.125-5.125V356.95c0-2.831,2.295-5.125,5.125-5.125
				h50c2.831,0,5.125,2.295,5.125,5.125v42.943C594.96,402.724,592.666,405.018,589.835,405.018z"/>
		</g>
		<g>
			<path style="fill:#EBEBEB;" d="M540.73,400.097h46.462c1.229,0,1.982-1.406,1.337-2.497l-12.827-21.709
				c-0.588-0.995-1.971-1.006-2.574-0.021l-4.699,7.687c-0.235,0.385-0.775,0.381-1.005-0.007l-8.64-14.587
				c-0.631-1.066-2.12-1.061-2.745,0.009l-16.666,28.544C538.69,398.634,539.46,400.097,540.73,400.097z"/>
		</g>
		<g>
			<path style="fill:#EBEBEB;" d="M585.731,365.044c0,3.345-2.6,6.057-5.808,6.057c-3.208,0-5.808-2.712-5.808-6.057
				c0-3.345,2.6-6.057,5.808-6.057C583.131,358.987,585.731,361.699,585.731,365.044z"/>
		</g>
	</g>
	<g>
		<g>
			<g>
				<path style="fill:#E0E0E0;" d="M294.882,124.841c-0.021-0.067,0.931,0.106,2.412-0.662c0.712-0.402,1.529-1.084,2.076-2.159
					c0.272-0.533,0.468-1.16,0.525-1.847c0.042-0.684,0.005-1.442,0.011-2.229c-0.02-6.341-0.048-15.486-0.083-26.778
					c-0.01-5.654-0.02-11.846-0.032-18.492c-0.001-0.831-0.002-1.669-0.003-2.514c0.004-0.856,0.023-1.672-0.277-2.45
					c-0.521-1.562-1.92-2.824-3.578-3.178c-0.815-0.183-1.718-0.091-2.617-0.113c-0.898,0.001-1.802,0.002-2.712,0.003
					c-1.821,0.002-3.666,0.003-5.534,0.005c-14.949,0.006-31.382,0.013-48.631,0.02c-2.07-0.031-4.015,1.41-4.627,3.35
					c-0.152,0.482-0.236,0.983-0.243,1.488l-0.002,1.588c0,1.058,0,2.112-0.001,3.162c-0.001,4.201-0.003,8.341-0.004,12.408
					c-0.005,8.135-0.01,15.981-0.015,23.457c-0.002,1.869-0.003,3.714-0.005,5.535c-0.001,0.91-0.002,1.815-0.003,2.713
					c0.022,0.899-0.07,1.803,0.113,2.617c0.354,1.658,1.616,3.057,3.178,3.579c0.778,0.299,1.594,0.281,2.451,0.277
					c0.845,0.001,1.683,0.002,2.514,0.003c6.646,0.011,12.838,0.022,18.492,0.032c11.293,0.035,20.436,0.063,26.777,0.083
					c3.147,0.021,5.597,0.037,7.28,0.049c0.819,0.011,1.448,0.02,1.893,0.026C294.664,124.824,294.882,124.841,294.882,124.841
					s-0.219,0.018-0.645,0.027c-0.445,0.006-1.074,0.015-1.893,0.026c-1.683,0.011-4.133,0.028-7.28,0.049
					c-6.34,0.02-15.484,0.048-26.777,0.083c-5.654,0.01-11.846,0.02-18.492,0.032c-0.831,0.001-1.669,0.002-2.514,0.004
					c-0.824,0.007-1.753,0.03-2.596-0.295c-1.706-0.565-3.087-2.086-3.479-3.901c-0.202-0.924-0.103-1.825-0.129-2.715
					c-0.001-0.898-0.002-1.802-0.003-2.713c-0.002-1.821-0.003-3.666-0.005-5.535c-0.005-7.476-0.01-15.322-0.015-23.457
					c-0.001-4.068-0.003-8.207-0.004-12.408c0-1.05,0-2.104-0.001-3.162l0.001-1.591c0.007-0.558,0.1-1.114,0.268-1.647
					c0.676-2.149,2.831-3.743,5.121-3.708c17.249,0.007,33.681,0.014,48.631,0.02c1.868,0.002,3.714,0.004,5.534,0.005
					c0.91,0.001,1.815,0.002,2.712,0.003c0.89,0.026,1.792-0.073,2.715,0.13c1.815,0.393,3.335,1.774,3.901,3.48
					c0.324,0.843,0.302,1.772,0.295,2.596c-0.001,0.845-0.002,1.683-0.004,2.514c-0.011,6.646-0.022,12.837-0.032,18.492
					c-0.035,11.293-0.063,20.437-0.083,26.778c-0.015,0.794,0.016,1.529-0.036,2.245c-0.067,0.711-0.278,1.356-0.566,1.902
					c-0.579,1.101-1.429,1.785-2.163,2.18c-0.751,0.382-1.39,0.513-1.816,0.551C295.102,124.86,294.882,124.841,294.882,124.841z"/>
			</g>
		</g>
		<g>
			<g>
				<path style="fill:#E0E0E0;" d="M238.173,119.23c0,0-0.148,0.031-0.43-0.028c-0.274-0.058-0.708-0.221-1.057-0.678
					c-0.342-0.436-0.588-1.202-0.269-1.997c0.378-0.737,0.856-1.519,1.373-2.436c2.11-3.653,5.141-8.899,8.88-15.372
					c1.882-3.243,3.943-6.793,6.153-10.602c0.554-0.953,1.117-1.921,1.689-2.906c0.286-0.492,0.575-0.988,0.865-1.488
					c0.281-0.546,0.858-1.023,1.52-1.106c0.655-0.106,1.361,0.146,1.804,0.651c0.232,0.26,0.364,0.534,0.519,0.784l0.461,0.776
					c0.617,1.038,1.242,2.089,1.874,3.154c1.265,2.13,2.561,4.313,3.886,6.543c0.662,1.115,1.331,2.242,2.006,3.38
					c0.338,0.569,0.677,1.141,1.018,1.715l0.256,0.431c0.097,0.162,0.149,0.266,0.232,0.317c0.169,0.125,0.426,0.088,0.555-0.085
					c1.401-2.292,2.827-4.624,4.274-6.991c0.363-0.594,0.727-1.19,1.093-1.788c0.383-0.691,1.258-1.129,2.062-0.955
					c0.4,0.074,0.779,0.277,1.054,0.577c0.288,0.316,0.427,0.637,0.616,0.935c0.362,0.612,0.724,1.225,1.088,1.84
					c2.908,4.925,5.747,9.733,8.489,14.378c1.37,2.323,2.715,4.604,4.033,6.839l0.493,0.836c0.156,0.261,0.356,0.587,0.428,0.945
					c0.161,0.71-0.068,1.48-0.578,1.988c-0.253,0.255-0.578,0.442-0.928,0.527c-0.367,0.09-0.694,0.054-0.997,0.061
					c-0.627-0.001-1.25-0.002-1.87-0.002c-9.906-0.021-18.828-0.04-26.331-0.056c-7.475-0.035-13.533-0.063-17.751-0.083
					c-2.075-0.021-3.696-0.037-4.826-0.049c-0.532-0.011-0.948-0.02-1.255-0.026C238.317,119.248,238.173,119.239,238.173,119.23
					s0.145-0.018,0.428-0.027c0.307-0.006,0.723-0.015,1.255-0.026c1.13-0.011,2.751-0.028,4.826-0.049
					c4.218-0.02,10.276-0.048,17.751-0.083c7.503-0.016,16.425-0.035,26.331-0.056c0.619-0.001,1.243-0.002,1.87-0.002
					c0.321-0.005,0.632,0.02,0.88-0.049c0.262-0.065,0.505-0.205,0.698-0.4c0.391-0.389,0.568-0.992,0.442-1.536
					c-0.124-0.512-0.569-1.076-0.867-1.634c-1.322-2.232-2.671-4.512-4.044-6.832c-2.745-4.643-5.587-9.449-8.498-14.372
					c-0.363-0.615-0.726-1.229-1.087-1.84c-0.187-0.302-0.35-0.637-0.546-0.842c-0.204-0.223-0.48-0.369-0.773-0.424
					c-0.594-0.121-1.219,0.178-1.523,0.715c-0.366,0.598-0.73,1.194-1.094,1.788c-1.461,2.382-2.9,4.729-4.314,7.036
					c-0.279,0.379-0.872,0.471-1.251,0.185c-0.201-0.139-0.299-0.352-0.374-0.473l-0.255-0.432c-0.34-0.575-0.678-1.147-1.015-1.717
					c-0.673-1.139-1.34-2.267-2-3.384c-1.319-2.233-2.61-4.419-3.871-6.552c-0.63-1.067-1.252-2.12-1.865-3.159
					c-0.31-0.493-0.605-1.096-0.921-1.488c-0.343-0.393-0.883-0.587-1.391-0.508c-0.517,0.072-0.944,0.406-1.197,0.881
					c-0.292,0.499-0.583,0.994-0.871,1.485c-0.576,0.982-1.143,1.949-1.701,2.899c-2.231,3.798-4.31,7.338-6.209,10.571
					c-3.799,6.438-6.879,11.656-9.023,15.289c-0.526,0.9-1.032,1.702-1.404,2.392c-0.309,0.727-0.101,1.451,0.21,1.874
					c0.316,0.443,0.723,0.616,0.985,0.689C238.025,119.225,238.174,119.211,238.173,119.23z"/>
			</g>
		</g>
		<g>
			<g>
				<path style="fill:#E0E0E0;" d="M289.484,79.261c-0.056,0.003-0.035-0.602-0.298-1.631c-0.266-1.007-0.9-2.499-2.38-3.674
					c-0.733-0.574-1.663-1.062-2.739-1.263c-1.07-0.19-2.28-0.142-3.418,0.322c-2.297,0.852-4.18,3.38-4.15,6.245
					c-0.031,2.867,1.853,5.395,4.15,6.247c1.137,0.464,2.348,0.511,3.418,0.322c1.076-0.202,2.006-0.689,2.739-1.264
					c1.481-1.175,2.114-2.668,2.38-3.674C289.449,79.863,289.428,79.258,289.484,79.261c0.018,0,0.028,0.148,0.031,0.434
					c0.009,0.285-0.023,0.709-0.132,1.243c-0.213,1.049-0.812,2.633-2.345,3.913c-0.759,0.626-1.739,1.166-2.887,1.401
					c-1.142,0.223-2.443,0.189-3.675-0.298c-1.236-0.455-2.383-1.344-3.198-2.522c-0.828-1.174-1.29-2.653-1.3-4.173
					c0.011-1.52,0.473-2.998,1.301-4.172c0.815-1.178,1.961-2.066,3.197-2.521c1.232-0.486,2.533-0.521,3.675-0.298
					c1.148,0.235,2.128,0.775,2.887,1.401c1.533,1.281,2.133,2.865,2.345,3.913c0.108,0.534,0.141,0.958,0.132,1.243
					C289.512,79.113,289.502,79.261,289.484,79.261z"/>
			</g>
		</g>
	</g>
	<g>
		<g>
			<g>
				<path style="fill:#E0E0E0;" d="M134.134,438.364c-0.001-0.016,0.234-0.014,0.68-0.077c0.443-0.062,1.115-0.214,1.869-0.667
					c0.745-0.444,1.59-1.211,2.091-2.394c0.565-1.177,0.355-2.707,0.383-4.383c-0.02-6.742-0.048-16.469-0.083-28.481
					c-0.01-6.014-0.02-12.599-0.032-19.668c-0.001-0.884-0.002-1.775-0.004-2.674c0.008-0.911,0.023-1.78-0.31-2.603
					c-0.589-1.646-2.152-2.949-3.952-3.157c-3.702-0.091-7.624-0.019-11.584-0.036c-15.9,0.006-33.378,0.013-51.724,0.02
					c-1.088,0.011-2.174,0.366-3.019,1.049c-0.843,0.674-1.475,1.622-1.712,2.674c-0.128,0.529-0.151,1.046-0.141,1.623l0,1.69
					c0,1.125,0,2.246-0.001,3.363c-0.001,4.468-0.003,8.871-0.004,13.197c-0.005,8.652-0.01,16.998-0.015,24.949
					c-0.002,1.988-0.003,3.95-0.005,5.887c-0.001,0.968-0.002,1.93-0.003,2.885c0.027,0.956-0.083,1.919,0.128,2.783
					c0.383,1.77,1.828,3.204,3.524,3.63c0.834,0.241,1.741,0.148,2.647,0.168c0.899,0.001,1.79,0.002,2.674,0.003
					c7.069,0.012,13.655,0.022,19.669,0.032c12.012,0.035,21.739,0.063,28.48,0.083c3.35,0.021,5.955,0.038,7.743,0.049
					c0.873,0.011,1.543,0.02,2.014,0.026C133.902,438.346,134.134,438.364,134.134,438.364s-0.232,0.018-0.686,0.027
					c-0.471,0.006-1.141,0.015-2.014,0.026c-1.788,0.011-4.393,0.028-7.743,0.049c-6.741,0.02-16.467,0.048-28.48,0.083
					c-6.014,0.01-12.599,0.02-19.669,0.032c-0.884,0.001-1.775,0.002-2.674,0.003c-0.884-0.02-1.819,0.084-2.759-0.176
					c-1.853-0.461-3.432-2.021-3.857-3.958c-0.232-0.979-0.113-1.939-0.145-2.886c-0.001-0.955-0.002-1.917-0.003-2.885
					c-0.002-1.937-0.003-3.9-0.005-5.887c-0.005-7.951-0.01-16.297-0.015-24.949c-0.001-4.326-0.003-8.729-0.004-13.197
					c0-1.117,0-2.238,0-3.363l0-1.69c-0.011-0.55,0.012-1.173,0.155-1.745c0.264-1.164,0.962-2.215,1.895-2.96
					c0.934-0.756,2.14-1.152,3.341-1.162c18.346,0.007,35.824,0.014,51.724,0.02c3.987,0.026,7.823-0.044,11.644,0.062
					c1.969,0.234,3.672,1.659,4.31,3.457c0.361,0.892,0.342,1.88,0.33,2.757c-0.001,0.899-0.002,1.79-0.003,2.674
					c-0.011,7.069-0.022,13.654-0.032,19.668c-0.035,12.012-0.063,21.739-0.083,28.481c-0.004,0.84-0.008,1.634-0.012,2.38
					c-0.001,0.759-0.17,1.463-0.432,2.064c-0.533,1.213-1.412,1.985-2.181,2.423c-0.778,0.448-1.465,0.583-1.915,0.629
					C134.368,438.386,134.134,438.364,134.134,438.364z"/>
			</g>
		</g>
		<g>
			<g>
				<path style="fill:#E0E0E0;" d="M73.625,432.408c0,0-0.157,0.032-0.455-0.032c-0.29-0.062-0.751-0.235-1.12-0.72
					c-0.362-0.462-0.622-1.274-0.283-2.116c0.401-0.781,0.909-1.611,1.458-2.584c2.239-3.874,5.458-9.442,9.429-16.314
					c1.998-3.442,4.186-7.209,6.533-11.253c0.588-1.011,1.185-2.039,1.793-3.084c0.304-0.522,0.61-1.049,0.918-1.579
					c0.298-0.578,0.905-1.079,1.603-1.167c0.691-0.111,1.435,0.154,1.903,0.687c0.244,0.273,0.385,0.564,0.549,0.829l0.489,0.823
					c0.654,1.102,1.318,2.218,1.989,3.348c1.343,2.261,2.719,4.578,4.124,6.945c0.702,1.184,1.412,2.38,2.129,3.588
					c0.358,0.604,0.718,1.211,1.08,1.821l0.272,0.458c0.102,0.17,0.159,0.284,0.251,0.341c0.186,0.138,0.469,0.096,0.61-0.093
					c1.488-2.433,3.001-4.909,4.538-7.422c0.385-0.63,0.772-1.263,1.16-1.898c0.404-0.729,1.325-1.189,2.172-1.007
					c0.421,0.078,0.82,0.292,1.111,0.608c0.303,0.332,0.451,0.673,0.652,0.99c0.384,0.649,0.768,1.3,1.154,1.953
					c3.087,5.228,6.1,10.331,9.011,15.261c1.454,2.465,2.882,4.887,4.282,7.259l0.523,0.887c0.167,0.278,0.377,0.621,0.453,0.998
					c0.169,0.749-0.071,1.561-0.609,2.096c-0.267,0.269-0.609,0.466-0.978,0.556c-0.386,0.095-0.732,0.057-1.055,0.064
					c-0.666-0.001-1.327-0.002-1.985-0.002c-10.515-0.021-19.986-0.04-27.949-0.056c-7.937-0.035-14.368-0.063-18.842-0.083
					c-2.205-0.021-3.926-0.038-5.123-0.049c-0.567-0.011-1.009-0.02-1.332-0.026C73.779,432.426,73.625,432.408,73.625,432.408
					s0.154-0.018,0.454-0.027c0.323-0.006,0.765-0.015,1.332-0.026c1.197-0.012,2.918-0.028,5.123-0.049
					c4.474-0.02,10.905-0.048,18.842-0.083c7.963-0.016,17.434-0.035,27.949-0.056c0.658-0.001,1.319-0.002,1.985-0.002
					c0.34-0.006,0.671,0.021,0.938-0.052c0.281-0.069,0.541-0.219,0.748-0.428c0.418-0.416,0.608-1.062,0.474-1.644
					c-0.062-0.295-0.213-0.546-0.397-0.853l-0.525-0.886c-1.403-2.37-2.835-4.789-4.292-7.252c-2.914-4.928-5.93-10.03-9.02-15.255
					c-0.386-0.653-0.771-1.304-1.154-1.954c-0.198-0.32-0.371-0.675-0.581-0.896c-0.218-0.239-0.515-0.396-0.829-0.455
					c-0.637-0.131-1.308,0.191-1.633,0.766c-0.388,0.635-0.775,1.267-1.161,1.898c-1.55,2.528-3.077,5.019-4.578,7.467
					c-0.292,0.396-0.911,0.492-1.306,0.193c-0.21-0.145-0.313-0.367-0.393-0.497l-0.271-0.458c-0.361-0.61-0.72-1.218-1.077-1.822
					c-0.715-1.209-1.423-2.407-2.123-3.591c-1.4-2.37-2.771-4.69-4.109-6.954c-0.669-1.132-1.329-2.25-1.98-3.353l-0.487-0.825
					c-0.167-0.276-0.312-0.561-0.492-0.757c-0.367-0.421-0.946-0.628-1.49-0.544c-0.554,0.076-1.011,0.435-1.281,0.942
					c-0.31,0.53-0.618,1.055-0.924,1.576c-0.611,1.042-1.213,2.068-1.805,3.077c-2.367,4.032-4.573,7.789-6.589,11.222
					c-4.032,6.837-7.299,12.377-9.573,16.231c-0.558,0.956-1.095,1.806-1.489,2.54c-0.329,0.774-0.107,1.543,0.225,1.993
					c0.337,0.47,0.77,0.654,1.048,0.731C73.468,432.404,73.627,432.388,73.625,432.408z"/>
			</g>
		</g>
		<g>
			<g>
				<path style="fill:#E0E0E0;" d="M128.089,389.984c-0.057,0.003-0.033-0.639-0.31-1.732c-0.281-1.07-0.952-2.657-2.525-3.907
					c-0.779-0.611-1.768-1.13-2.912-1.345c-1.138-0.202-2.425-0.152-3.635,0.341c-1.215,0.461-2.34,1.346-3.14,2.514
					c-0.813,1.163-1.264,2.624-1.276,4.129c0.012,1.506,0.463,2.966,1.276,4.13c0.8,1.168,1.924,2.054,3.14,2.514
					c1.21,0.493,2.497,0.543,3.636,0.341c1.144-0.215,2.133-0.734,2.912-1.345c1.573-1.25,2.244-2.838,2.525-3.907
					C128.056,390.622,128.031,389.98,128.089,389.984c0.018,0,0.028,0.158,0.03,0.461c0.009,0.302-0.027,0.752-0.143,1.318
					c-0.227,1.112-0.865,2.79-2.49,4.146c-0.805,0.663-1.843,1.234-3.06,1.483c-1.209,0.236-2.588,0.199-3.893-0.316
					c-1.31-0.483-2.524-1.424-3.387-2.672c-0.877-1.243-1.366-2.81-1.377-4.42c0.012-1.61,0.5-3.176,1.377-4.419
					c0.863-1.248,2.077-2.189,3.386-2.671c1.305-0.516,2.683-0.552,3.893-0.317c1.217,0.249,2.255,0.82,3.06,1.483
					c1.626,1.356,2.263,3.035,2.491,4.147c0.116,0.566,0.152,1.015,0.143,1.318C128.117,389.826,128.107,389.984,128.089,389.984z"
					/>
			</g>
		</g>
	</g>
	<g>
		<g>
			<g>
				<g>
					<g>
						<g>
							<g>
								<g>
									<path style="fill:#E0E0E0;" d="M61.77,157.601c1.251-0.756,2.584-1.33,3.958-1.72l0.815-3.918l6.619-0.116l0.953,3.886
										c1.387,0.342,2.739,0.868,4.016,1.58l3.345-2.193l4.763,4.598l-2.073,3.42c0.757,1.252,1.33,2.585,1.72,3.959l3.917,0.815
										l0.116,6.619l-3.886,0.953c-0.342,1.387-0.868,2.738-1.58,4.016l2.192,3.346l-4.598,4.763l-3.42-2.074
										c-1.252,0.756-2.584,1.33-3.959,1.72l-0.816,3.918l-6.619,0.116l-0.953-3.887c-1.387-0.342-2.738-0.868-4.016-1.58
										l-3.345,2.193l-4.763-4.598l2.074-3.42c-0.756-1.252-1.33-2.584-1.72-3.959l-3.917-0.815l-0.116-6.619l3.887-0.953
										c0.342-1.387,0.868-2.738,1.58-4.016l-2.193-3.345l4.598-4.763L61.77,157.601L61.77,157.601z M65.299,166.419
										c-2.724,2.822-2.645,7.318,0.176,10.042c2.822,2.724,7.318,2.645,10.042-0.177c2.724-2.822,2.645-7.318-0.176-10.042
										C72.518,163.518,68.023,163.597,65.299,166.419z"/>
								</g>
							</g>
						</g>
					</g>
				</g>
			</g>
		</g>
	</g>
	<g>
		<g>
			<g>
				<g>
					<g>
						<g>
							<g>
								<g>
									<path style="fill:#E0E0E0;" d="M276.382,380.636c0.949-0.573,1.959-1.008,3-1.304l0.618-2.97l5.018-0.088l0.722,2.946
										c1.051,0.259,2.076,0.658,3.045,1.198l2.536-1.662l3.61,3.486l-1.572,2.592c0.574,0.949,1.008,1.959,1.304,3.001
										l2.97,0.618l0.088,5.018l-2.946,0.722c-0.259,1.051-0.658,2.076-1.198,3.044l1.662,2.536l-3.486,3.61l-2.593-1.572
										c-0.949,0.573-1.959,1.008-3.001,1.304l-0.618,2.97l-5.018,0.088l-0.722-2.946c-1.051-0.259-2.076-0.658-3.044-1.198
										l-2.536,1.662l-3.611-3.486l1.572-2.592c-0.573-0.949-1.008-1.959-1.304-3.001l-2.97-0.618l-0.088-5.018l2.946-0.722
										c0.259-1.051,0.658-2.076,1.198-3.044l-1.662-2.536l3.486-3.611L276.382,380.636L276.382,380.636z M279.056,387.32
										c-2.065,2.139-2.005,5.547,0.134,7.613c2.139,2.065,5.547,2.005,7.612-0.134c2.065-2.139,2.005-5.547-0.134-7.612
										C284.53,385.121,281.121,385.181,279.056,387.32z"/>
								</g>
							</g>
						</g>
					</g>
				</g>
			</g>
		</g>
	</g>
	<g>
		<g>
			<g>
				<g>
					<g>
						<g>
							<g>
								<g>
									<path style="fill:#EBEBEB;" d="M185.828,91.268c0.738-0.446,1.524-0.784,2.334-1.014l0.481-2.31l3.903-0.068l0.562,2.292
										c0.818,0.201,1.615,0.512,2.368,0.932l1.973-1.293l2.809,2.712l-1.223,2.017c0.446,0.738,0.784,1.524,1.014,2.335
										l2.31,0.481l0.068,3.903l-2.292,0.562c-0.201,0.818-0.512,1.615-0.932,2.368l1.293,1.973l-2.711,2.809l-2.017-1.223
										c-0.738,0.446-1.524,0.784-2.334,1.014l-0.481,2.31l-3.903,0.068l-0.562-2.292c-0.818-0.202-1.615-0.512-2.368-0.932
										l-1.973,1.293l-2.809-2.712l1.223-2.017c-0.446-0.738-0.784-1.524-1.015-2.335l-2.31-0.481l-0.068-3.903l2.292-0.562
										c0.202-0.818,0.512-1.615,0.932-2.368l-1.293-1.973l2.712-2.809L185.828,91.268L185.828,91.268z M187.909,96.468
										c-1.606,1.664-1.56,4.315,0.104,5.922c1.664,1.606,4.315,1.56,5.922-0.104c1.606-1.664,1.56-4.315-0.104-5.922
										C192.167,94.758,189.516,94.804,187.909,96.468z"/>
								</g>
							</g>
						</g>
					</g>
				</g>
			</g>
		</g>
	</g>
</g>
<g id="Background_Simple" style="display:none;">
	<g style="display:inline;">
		<path style="fill:#F5F5F5;" d="M212.113,183.072l1.768-4.082c14.901-34.408,47.11-58.346,84.165-61.078
			c4.763-0.351,9.553-0.359,14.329-0.004c34.384,2.554,66.921,23.812,83.418,54.502c9.702,18.049,14.696,39.681,30.218,52.931
			c20.201,17.245,49.991,13.774,75.996,9.367c26.005-4.408,55.825-7.804,75.952,9.53c12.605,10.856,18.488,27.951,19.886,44.62
			c3.7,44.132-21.438,87.506-57.583,112.319c-36.145,24.814-81.617,32.847-125.286,30.129
			c-61.176-3.809-122.318-28.972-163.346-75.186S192.449,241.75,212.113,183.072z"/>
	</g>
	<g style="display:inline;">
		
			<ellipse transform="matrix(0.1618 -0.9868 0.9868 0.1618 155.3616 965.3626)" style="fill:#F5F5F5;" cx="645.965" cy="391.224" rx="32.718" ry="32.718"/>
	</g>
	<g style="display:inline;">
		<circle style="fill:#F5F5F5;" cx="220.726" cy="70.862" r="32.718"/>
	</g>
</g>
<g id="Table">
	<g>
		<g>
			<path style="fill:#263238;" d="M704.753,467.038c0,0.144-147.647,0.26-329.737,0.26c-182.153,0-329.769-0.117-329.769-0.26
				s147.616-0.26,329.769-0.26C557.106,466.778,704.753,466.895,704.753,467.038z"/>
		</g>
	</g>
</g>
<g id="Icon">
	<g>
		<g>
			<path style="fill:#455A64;" d="M553,328.837h-32.57c-6.537,0-11.835-5.299-11.835-11.835v-32.57
				c0-6.536,5.299-11.835,11.835-11.835H553c6.536,0,11.835,5.299,11.835,11.835v32.57C564.835,323.538,559.536,328.837,553,328.837
				z"/>
		</g>
		<g>
			<g>
				<path style="fill:#FFFFFF;" d="M530.768,304.436l-7.215,2.866l7.215,2.866v3.703l-11.15-4.616v-3.906l11.15-4.616V304.436z"/>
			</g>
			<g>
				<path style="fill:#FFFFFF;" d="M538.706,294.823h3.822l-7.463,23.894h-3.822L538.706,294.823z"/>
			</g>
			<g>
				<path style="fill:#FFFFFF;" d="M553.926,305.349v3.906l-11.15,4.616v-3.703l7.214-2.866l-7.214-2.866v-3.703L553.926,305.349z"
					/>
			</g>
		</g>
	</g>
</g>
<g id="Images">
	<g>
		<g>
			<path style="fill:#455A64;" d="M686.195,273.354h-55.776c-7.265,0-13.155-5.89-13.155-13.155v-46.162
				c0-7.265,5.89-13.155,13.155-13.155h55.776c7.265,0,13.155,5.89,13.155,13.155v46.162
				C699.35,267.465,693.461,273.354,686.195,273.354z"/>
		</g>
		<g style="opacity:0.2;">
			<path d="M625.466,266.65h63.301c1.675,0,2.7-1.915,1.822-3.402l-17.476-29.576c-0.801-1.356-2.686-1.371-3.506-0.028
				l-6.403,10.473c-0.321,0.524-1.057,0.519-1.37-0.01l-11.771-19.874c-0.86-1.452-2.888-1.446-3.739,0.012l-22.706,38.889
				C622.686,264.656,623.735,266.65,625.466,266.65z"/>
		</g>
		<g style="opacity:0.2;">
			<ellipse cx="678.863" cy="218.893" rx="7.913" ry="8.252"/>
		</g>
	</g>
	<g>
		<g>
			<g>
				<path style="fill:#E0E0E0;" d="M636.742,337.396h-45.266c-3.941,0-7.136-3.195-7.136-7.136v-38.293
					c0-3.941,3.195-7.136,7.136-7.136h45.266c3.941,0,7.136,3.195,7.136,7.136v38.293
					C643.878,334.201,640.683,337.396,636.742,337.396z"/>
			</g>
			<g>
				<g>
					<path style="fill:#263238;" d="M636.742,337.396c-0.006-0.046,0.758,0.029,2.106-0.371c0.662-0.225,1.462-0.589,2.262-1.227
						c0.805-0.626,1.572-1.565,2.103-2.776c0.245-0.614,0.433-1.29,0.513-2.019c0.055-0.726,0.028-1.513,0.029-2.327
						c-0.007-1.633-0.014-3.405-0.021-5.308c-0.011-3.812-0.024-8.149-0.039-12.94c-0.01-4.796-0.02-10.047-0.032-15.683
						c-0.001-0.705-0.002-1.415-0.003-2.132c0.01-0.726-0.018-1.413-0.162-2.109c-0.308-1.374-1.035-2.687-2.126-3.652
						c-1.07-0.988-2.489-1.604-3.974-1.752c-1.499-0.064-3.097-0.015-4.671-0.028c-12.68,0.006-26.616,0.013-41.245,0.02
						c-1.768-0.004-3.504,0.702-4.757,1.914c-1.264,1.201-2.027,2.886-2.107,4.601c-0.008,3.558-0.015,7.065-0.023,10.51
						c-0.005,6.899-0.01,13.554-0.015,19.895c-0.002,1.585-0.003,3.15-0.005,4.694c-0.001,0.772-0.002,1.539-0.003,2.301
						c0.004,0.765-0.03,1.521,0.074,2.232c0.378,2.912,2.733,5.284,5.428,5.8c0.676,0.129,1.341,0.154,2.043,0.146
						c0.693,0.001,1.379,0.003,2.059,0.004c1.36,0.003,2.695,0.005,4.003,0.008c2.616,0.006,5.128,0.011,7.526,0.017
						c9.573,0.035,17.327,0.063,22.71,0.083c2.664,0.021,4.741,0.038,6.174,0.049c0.69,0.011,1.224,0.02,1.606,0.026
						C636.556,337.378,636.742,337.396,636.742,337.396s-0.185,0.018-0.547,0.027c-0.382,0.006-0.916,0.015-1.606,0.026
						c-1.433,0.011-3.51,0.028-6.174,0.049c-5.383,0.02-13.137,0.048-22.71,0.083c-2.398,0.005-4.909,0.011-7.526,0.017
						c-1.309,0.003-2.643,0.005-4.003,0.008c-0.68,0.001-1.366,0.003-2.059,0.004c-0.683,0.011-1.419-0.012-2.13-0.148
						c-2.867-0.539-5.382-3.052-5.795-6.159c-0.114-0.776-0.078-1.541-0.085-2.297c-0.001-0.762-0.002-1.529-0.003-2.301
						c-0.002-1.544-0.003-3.11-0.005-4.694c-0.005-6.34-0.01-12.995-0.015-19.895c0.007-3.456-0.022-6.948,0.015-10.537
						c0.084-1.844,0.906-3.659,2.264-4.95c1.346-1.303,3.218-2.064,5.117-2.059c14.629,0.007,28.565,0.014,41.245,0.02
						c1.594,0.017,3.129-0.032,4.715,0.04c1.586,0.161,3.099,0.825,4.237,1.88c1.16,1.032,1.931,2.434,2.254,3.898
						c0.152,0.732,0.178,1.497,0.165,2.203c-0.001,0.717-0.002,1.427-0.003,2.132c-0.011,5.636-0.022,10.887-0.032,15.683
						c-0.014,4.792-0.027,9.128-0.038,12.94c-0.008,1.903-0.015,3.676-0.022,5.308c-0.009,0.817,0.012,1.592-0.053,2.351
						c-0.09,0.752-0.292,1.447-0.551,2.075c-0.56,1.241-1.361,2.191-2.193,2.818c-0.827,0.639-1.65,0.994-2.327,1.206
						c-0.687,0.185-1.226,0.257-1.589,0.27C636.927,337.404,636.742,337.396,636.742,337.396z"/>
				</g>
			</g>
		</g>
		<g style="opacity:0.2;">
			<path d="M591.353,331.772h43.782c1.158,0,1.868-1.325,1.26-2.353l-12.087-20.456c-0.554-0.938-1.857-0.948-2.425-0.019
				l-4.428,7.243c-0.222,0.363-0.731,0.359-0.947-0.007l-8.141-13.746c-0.595-1.005-1.997-1-2.586,0.009l-15.704,26.897
				C589.431,330.392,590.156,331.772,591.353,331.772z"/>
		</g>
		<g style="opacity:0.2;">
			<path d="M633.758,298.741c0,3.152-2.45,5.707-5.473,5.707c-3.023,0-5.473-2.555-5.473-5.707s2.45-5.707,5.473-5.707
				C631.307,293.033,633.758,295.588,633.758,298.741z"/>
		</g>
	</g>
</g>
<g id="Dropper">
	<g>
		<g>
			<path style="fill:#FFFFFF;" d="M651.528,188.726l-1.879-12.554c-0.117-0.781,0.083-1.576,0.556-2.208l32.396-43.366
				l22.195,14.525l-33.45,44.182c-0.326,0.431-0.99,0.835-1.731,0.962l-13.092,2.249l-1.89,2.369
				c-0.734,0.921-2.067,1.092-3.011,0.388l-1.376-1.027c-0.945-0.706-1.159-2.035-0.482-3L651.528,188.726z"/>
		</g>
		<g>
			<path style="fill:#FF725E;" d="M658.375,163.151l-8.171,10.845c-0.473,0.632-0.673,1.427-0.556,2.208l1.879,12.554l-1.764,2.518
				c-0.677,0.966-0.464,2.295,0.482,3.001l1.376,1.027c0.944,0.704,2.276,0.533,3.011-0.388l1.89-2.369l13.092-2.249
				c0.74-0.127,1.404-0.531,1.731-0.962l14.376-18.775C685.605,170.716,658.375,163.151,658.375,163.151z"/>
		</g>
		<g>
			<g>
				<path style="fill:#263238;" d="M652.872,195.23c-0.123,0.021-0.412-0.831-1.233-1.499c-0.799-0.698-1.72-0.608-1.741-0.758
					c-0.012-0.06,0.211-0.185,0.617-0.197c0.404-0.016,0.977,0.16,1.454,0.552C652.947,194.127,653.041,195.237,652.872,195.23z"/>
			</g>
		</g>
		<g>
			<g>
				<path style="fill:#263238;" d="M656.317,192.231c-0.082,0.118-1.235-0.538-2.576-1.466c-1.341-0.928-2.362-1.776-2.28-1.895
					c0.082-0.118,1.235,0.538,2.577,1.466C655.378,191.265,656.399,192.113,656.317,192.231z"/>
			</g>
		</g>
		<g>
			<g>
				<path style="fill:#263238;" d="M651.466,188.675c0.006,0.001-0.035,0.071-0.124,0.207c-0.102,0.153-0.234,0.351-0.404,0.605
					c-0.186,0.274-0.411,0.604-0.675,0.992c-0.246,0.406-0.657,0.82-0.813,1.398c-0.161,0.572-0.069,1.311,0.402,1.878
					c0.222,0.286,0.567,0.49,0.898,0.746c0.333,0.24,0.683,0.521,1.039,0.755c0.725,0.448,1.828,0.382,2.515-0.326
					c0.641-0.766,1.318-1.647,2.035-2.539l0.034-0.042l0.053-0.009c3.755-0.646,8.156-1.404,13.104-2.256
					c0.573-0.105,1.157-0.383,1.544-0.818c0.388-0.511,0.782-1.028,1.18-1.552c0.8-1.055,1.621-2.137,2.46-3.243
					c1.68-2.213,3.436-4.526,5.259-6.929c7.309-9.609,15.708-20.651,24.691-32.461l0.064,0.374
					c-1.375-0.906-2.851-1.878-4.336-2.856c-6.166-4.066-12.159-8.018-17.81-11.743l0.341-0.059
					c-11.957,15.841-22.364,29.629-29.798,39.477c-0.928,1.225-1.809,2.39-2.641,3.489c-0.372,0.547-0.626,1.174-0.717,1.786
					c-0.053,0.308-0.004,0.594,0.044,0.915c0.044,0.311,0.087,0.618,0.13,0.919c0.335,2.397,0.622,4.454,0.858,6.139
					c0.223,1.653,0.397,2.938,0.519,3.835c0.052,0.417,0.093,0.744,0.123,0.987C651.464,188.564,651.473,188.676,651.466,188.675
					c-0.008-0.002-0.031-0.117-0.071-0.341c-0.041-0.245-0.096-0.574-0.167-0.994c-0.141-0.896-0.344-2.18-0.605-3.832
					c-0.257-1.674-0.57-3.717-0.935-6.098c-0.045-0.298-0.091-0.602-0.138-0.911c-0.048-0.296-0.109-0.648-0.053-0.986
					c0.095-0.671,0.352-1.319,0.748-1.916c0.826-1.109,1.7-2.283,2.62-3.519c7.398-9.876,17.754-23.702,29.653-39.587l0.142-0.19
					l0.199,0.131c5.653,3.722,11.649,7.669,17.818,11.731c1.485,0.979,2.96,1.951,4.335,2.857l0.233,0.153l-0.169,0.221
					c-9.004,11.794-17.422,22.821-24.748,32.417c-1.833,2.396-3.598,4.702-5.286,6.909c-0.844,1.103-1.669,2.18-2.475,3.232
					c-0.406,0.528-0.807,1.049-1.203,1.564c-0.48,0.528-1.118,0.816-1.772,0.937c-4.954,0.817-9.36,1.544-13.12,2.165l0.087-0.051
					c-0.733,0.895-1.392,1.74-2.077,2.539c-0.781,0.787-2.011,0.842-2.806,0.336c-0.391-0.264-0.71-0.531-1.048-0.781
					c-0.319-0.256-0.673-0.469-0.92-0.792c-0.502-0.627-0.587-1.425-0.402-2.035c0.19-0.631,0.608-1.02,0.858-1.413
					c0.275-0.377,0.509-0.697,0.703-0.963c0.184-0.247,0.328-0.44,0.438-0.589C651.405,188.74,651.459,188.673,651.466,188.675z"/>
			</g>
		</g>
		<g>
			<path style="fill:#455A64;" d="M700.511,165.298l-0.452,0.611c-1.429,1.933-4.155,2.341-6.088,0.911l-29.269-21.647
				c-1.933-1.43-2.341-4.155-0.911-6.088l0.452-0.611c1.429-1.933,4.155-2.341,6.088-0.911l29.269,21.647
				C701.532,160.64,701.94,163.366,700.511,165.298z"/>
		</g>
		<g>
			<path style="fill:#455A64;" d="M715.838,134.397l-18.619,25.175c-1.783,2.411-5.184,2.92-7.595,1.137l-16.347-12.09
				c-2.411-1.783-2.92-5.184-1.137-7.595l18.619-25.175c4.71-6.369,13.692-7.714,20.061-3.003l2.015,1.49
				C719.204,119.046,720.548,128.028,715.838,134.397z"/>
		</g>
		<g>
			<g>
				<path style="fill:#263238;" d="M697.427,157.604c-0.02,0.03-0.376-0.176-1.001-0.575c-0.626-0.397-1.518-0.993-2.61-1.743
					c-2.185-1.499-5.155-3.637-8.405-6.036c-3.197-2.368-6.088-4.51-8.311-6.157c-0.99-0.74-1.829-1.367-2.512-1.876
					c-0.589-0.449-0.905-0.711-0.885-0.741c0.02-0.03,0.376,0.176,1.001,0.574c0.626,0.397,1.518,0.993,2.609,1.743
					c2.185,1.499,5.155,3.637,8.406,6.038c3.196,2.368,6.086,4.509,8.31,6.156c0.991,0.74,1.83,1.367,2.512,1.876
					C697.131,157.312,697.448,157.574,697.427,157.604z"/>
			</g>
		</g>
	</g>
</g>
<g id="Paint_can">
	<g>
		<g>
			<path style="fill:#E0E0E0;" d="M614.539,138.819c12.139,4.938,24.527,6.592,36.724,4.944c4.596-0.621,8.22-4.217,8.817-8.816
				l5.24-40.354l-51.745-6.719l-5.221,40.208C607.762,132.647,610.277,137.086,614.539,138.819z"/>
		</g>
		<g style="opacity:0.4;">
			<path style="fill:#FFFFFF;" d="M661.873,121.136l-1.464,11.272c0,0-38.107-3.18-49.179-26.475l1.833-14.12
				C623.278,115.151,661.873,121.136,661.873,121.136z"/>
		</g>
		<g>
			<g>
				<g>
					<g>
						<g>
							<g>
								<path style="fill:#263238;" d="M654.855,107.156c-0.208,1.603,0.894,3.067,2.462,3.271c1.568,0.203,3.007-0.931,3.215-2.534
									c0.208-1.603-0.894-3.067-2.462-3.271C656.503,104.419,655.063,105.553,654.855,107.156z"/>
							</g>
						</g>
					</g>
				</g>
			</g>
		</g>
		<g>
			<path style="fill:#FF725E;" d="M619.173,93.281c0.346-1.517,0.78-3.07,0.584-4.602l15.399,6.456
				c-0.549,2.855-1.395,5.648-2.518,8.302c-0.593,1.403-1.424,2.913-2.772,3.267c-1.294,0.34-2.622-0.601-3.225-1.892
				c-0.603-1.291-0.615-2.841-0.448-4.308c0.067-0.588,0.159-1.186,0.064-1.763c-0.095-0.577-0.426-1.143-0.936-1.284
				c-1.122-0.311-1.83,1.389-2.856,2.036c-1.228,0.775-2.834-0.211-3.364-1.631C618.573,96.442,618.827,94.797,619.173,93.281z"/>
		</g>
		<g>
			<path style="fill:#FF725E;" d="M613.939,87.923c-0.347,2.671,10.874,6.331,25.062,8.173s25.972,1.17,26.318-1.501
				c0.347-2.672-10.874-6.331-25.062-8.173C626.069,84.579,614.286,85.252,613.939,87.923z"/>
		</g>
		<g>
			<g>
				<path style="fill:#263238;" d="M611.244,100.947c0.013,0.013-0.174,0.226-0.541,0.622c-0.396,0.432-0.927,1.01-1.594,1.736
					c-0.679,0.763-1.493,1.714-2.308,2.908c-0.808,1.193-1.61,2.65-2.057,4.402c-0.442,1.732-0.547,3.805,0.271,5.749
					c0.799,1.955,2.569,3.54,4.672,4.645c2.112,1.117,4.546,1.886,7.08,2.518c2.543,0.619,5.243,0.984,8.018,1.066
					c5.557,0.188,10.852-0.852,15.336-2.581c4.492-1.746,8.184-4.132,10.986-6.455c2.805-2.334,4.771-4.563,6.033-6.166
					c0.624-0.809,1.104-1.441,1.409-1.885c0.315-0.437,0.488-0.662,0.503-0.652c0.015,0.01-0.128,0.254-0.416,0.711
					c-0.278,0.464-0.732,1.118-1.335,1.95c-1.219,1.649-3.157,3.933-5.958,6.325c-2.797,2.381-6.509,4.827-11.048,6.62
					c-4.532,1.776-9.897,2.845-15.527,2.654c-2.811-0.083-5.546-0.456-8.122-1.091c-2.568-0.648-5.02-1.431-7.188-2.592
					c-2.153-1.144-4.012-2.818-4.843-4.901c-0.848-2.07-0.706-4.23-0.229-6.008c0.485-1.801,1.332-3.282,2.174-4.475
					c0.85-1.195,1.693-2.134,2.398-2.879c0.707-0.745,1.278-1.299,1.668-1.672C611.019,101.123,611.232,100.935,611.244,100.947z"/>
			</g>
		</g>
	</g>
</g>
<g id="Avatar">
	<g>
		<g>
			<g>
				<g>
					<g>
						<g>
							<path style="fill:#455A64;" d="M569.342,108.967c6.351-1.653,11.498-7.218,12.579-14.492
								c1.408-9.53-4.692-18.33-13.629-19.656c-8.932-1.325-17.318,5.326-18.728,14.855c-1.085,7.342,2.307,14.21,8.001,17.601
								c-25.452,0.175-28.211,27.414-28.211,27.414l58.873,8.733C588.228,143.422,593.503,116.243,569.342,108.967z"/>
						</g>
					</g>
				</g>
			</g>
		</g>
	</g>
</g>
<g id="Text">
	<g>
		<g>
			<g>
				<g>
					<g>
						<g>
							<path style="fill:#FFFFFF;" d="M517.586,112.905h-48.73c-2.185,0-3.956-1.771-3.956-3.956V61.856
								c0-2.185,1.771-3.956,3.956-3.956h48.73c2.185,0,3.956,1.771,3.956,3.956v47.094
								C521.542,111.134,519.771,112.905,517.586,112.905z"/>
						</g>
					</g>
				</g>
				<g>
					<g>
						<g>
							<g>
								<path style="fill:#263238;" d="M516.792,112.905c-0.016-0.05,0.796,0.095,2.094-0.526c0.633-0.314,1.363-0.87,1.907-1.758
									c0.271-0.441,0.491-0.964,0.606-1.55c0.127-0.585,0.077-1.229,0.084-1.91c-0.011-5.451-0.028-13.325-0.048-23.053
									c-0.006-4.867-0.012-10.197-0.019-15.919c-0.001-1.431-0.003-2.886-0.004-4.364c-0.019-0.741,0.059-1.491-0.119-2.197
									c-0.166-0.709-0.494-1.39-0.975-1.954c-0.483-0.559-1.096-1.021-1.794-1.299c-0.704-0.289-1.451-0.362-2.239-0.337
									c-1.567,0.001-3.156,0.002-4.764,0.003c-12.869,0.004-27.015,0.008-41.865,0.012c-1.811-0.022-3.542,1.133-4.229,2.782
									c-0.166,0.411-0.291,0.839-0.34,1.279c-0.044,0.435-0.033,0.893-0.034,1.349c0,0.911,0,1.818,0,2.722
									c-0.001,3.617-0.001,7.18-0.002,10.682c-0.003,7.003-0.006,13.758-0.009,20.193c-0.002,3.217-0.004,6.355-0.006,9.403
									c0,0.381-0.001,0.761-0.001,1.139c-0.003,0.382-0.005,0.753,0.036,1.113c0.09,0.724,0.351,1.419,0.748,2.019
									c0.808,1.193,2.163,1.967,3.559,2.03c5.719,0.012,11.047,0.023,15.912,0.033c9.728,0.021,17.601,0.037,23.051,0.049
									c2.716,0.012,4.827,0.022,6.267,0.029c0.711,0.007,1.255,0.012,1.63,0.015C516.604,112.895,516.792,112.905,516.792,112.905
									s-0.188,0.01-0.555,0.016c-0.375,0.004-0.919,0.009-1.63,0.015c-1.44,0.007-3.551,0.016-6.267,0.029
									c-5.45,0.012-13.323,0.028-23.051,0.049c-4.869,0.001-10.202,0.003-15.927,0.004c-1.473-0.064-2.906-0.877-3.761-2.136
									c-0.421-0.632-0.698-1.367-0.794-2.133c-0.045-0.386-0.042-0.77-0.04-1.145c0-0.378-0.001-0.758-0.001-1.139
									c-0.002-3.049-0.004-6.186-0.006-9.403c-0.003-6.435-0.006-13.19-0.009-20.193c-0.001-3.502-0.002-7.065-0.002-10.682
									c0-0.904,0-1.812,0-2.722c0.001-0.454-0.012-0.91,0.036-1.384c0.053-0.47,0.185-0.927,0.363-1.365
									c0.731-1.758,2.578-2.99,4.509-2.967c14.849,0.004,28.996,0.008,41.865,0.012c1.609,0.001,3.197,0.002,4.764,0.003
									c0.775-0.025,1.609,0.053,2.341,0.361c0.739,0.296,1.387,0.785,1.897,1.378c0.507,0.598,0.854,1.318,1.028,2.069
									c0.187,0.762,0.103,1.524,0.122,2.255c-0.001,1.478-0.003,2.933-0.004,4.364c-0.007,5.722-0.013,11.052-0.019,15.919
									c-0.021,9.728-0.037,17.602-0.049,23.053c-0.011,0.676,0.035,1.329-0.1,1.93c-0.122,0.599-0.351,1.13-0.631,1.577
									c-0.563,0.901-1.311,1.457-1.957,1.766c-0.651,0.314-1.201,0.411-1.566,0.451
									C516.98,112.913,516.792,112.905,516.792,112.905z"/>
							</g>
						</g>
					</g>
				</g>
			</g>
		</g>
		<g>
			<g>
				<path style="fill:#263238;" d="M477.428,70.862h30.885l0.05,10.345h-1.478c-0.484-3.701-1.87-6.205-4.158-7.511
					c-1.286-0.72-3.206-1.113-5.761-1.181v27.023c0,1.888,0.33,3.142,0.989,3.76c0.659,0.618,2.033,0.927,4.12,0.927v1.302H483.79
					v-1.302c2.004,0,3.335-0.313,3.995-0.94c0.66-0.627,0.989-1.876,0.989-3.747V72.515c-2.505,0.067-4.425,0.461-5.761,1.181
					c-2.455,1.34-3.841,3.843-4.158,7.511h-1.478L477.428,70.862z"/>
			</g>
		</g>
	</g>
</g>
<g id="Shadows_3">
	<g style="opacity:0.3;">
		<path d="M532.015,124.947c0,0,1.645-4.153,3.173-5.955h48.469c0,0,2.903,4.435,3.317,6.71L532.015,124.947z"/>
	</g>
	<g style="opacity:0.3;">
		<rect x="508.594" y="289.302" width="56.241" height="8.65"/>
	</g>
	<g style="opacity:0.3;">
		<rect x="639.772" y="200.882" width="12.386" height="72.473"/>
	</g>
	<g style="opacity:0.3;">
		<path d="M584.339,303.137h46.878c5.456,0,9.88-4.423,9.88-9.88v-5.751c0-1.479-1.199-2.677-2.677-2.677h-54.08V303.137z"/>
	</g>
</g>
<g id="UI">
	<g>
		<g>
			<path style="fill:#FF725E;" d="M619.104,290.624H480.971c-13.232,0-23.958-10.727-23.958-23.958v-117.22
				c0-13.232,10.727-23.958,23.958-23.958h138.133c13.232,0,23.958,10.727,23.958,23.958v117.22
				C643.062,279.897,632.336,290.624,619.104,290.624z"/>
		</g>
		<g>
			<path style="fill:#FFFFFF;" d="M500.296,244.915c-6.76-6.801-10.14-16.544-10.14-29.232v-49.449h16.274v48.823
				c0,17.194,7.427,25.789,22.283,25.789c14.773,0,22.158-8.595,22.158-25.789v-48.823h16.024v49.449
				c0,12.687-3.36,22.43-10.078,29.232c-6.719,6.803-16.13,10.203-28.229,10.203C516.486,255.117,507.056,251.718,500.296,244.915z"
				/>
			<path style="fill:#FFFFFF;" d="M589.678,166.234h16.274v87.631h-16.274V166.234z"/>
		</g>
	</g>
</g>
<g id="Shadow_2">
	<path style="opacity:0.3;" d="M486.146,290.417c0,0-7.007-29.004-29.134-32.127l0.618,13.04
		c0.521,11.002,11.925,19.571,22.936,19.287L486.146,290.417z"/>
</g>
<g id="Ruler">
	<g>
		<g>
			<path style="fill:#FF725E;" d="M156.339,258.095L92.243,142.803c-1.775-3.194-0.626-7.222,2.568-8.998l21.199-11.786
				c3.194-1.775,7.222-0.626,8.997,2.568l64.097,115.291c1.775,3.194,0.626,7.222-2.568,8.997l-21.199,11.786
				C162.143,262.438,158.115,261.288,156.339,258.095z"/>
		</g>
		<g style="opacity:0.3;">
			<polygon style="fill:#FFFFFF;" points="129.528,132.72 122.855,197.866 129.528,209.869 136.671,145.568 			"/>
		</g>
		<g style="opacity:0.3;">
			<polygon style="fill:#FFFFFF;" points="140.662,152.767 133.989,217.913 137.809,224.783 145.41,161.307 			"/>
		</g>
		<g>
			<g>
				<path style="fill:#263238;" d="M112.939,142.808c0.07,0.126-3.39,2.183-7.727,4.594c-4.338,2.412-7.911,4.265-7.981,4.139
					c-0.07-0.126,3.389-2.182,7.727-4.594C109.296,144.536,112.869,142.683,112.939,142.808z"/>
			</g>
		</g>
		<g>
			<g>
				<path style="fill:#263238;" d="M111.721,156.594c0.07,0.126-1.871,1.338-4.334,2.708c-2.464,1.37-4.518,2.378-4.588,2.253
					c-0.07-0.126,1.871-1.338,4.335-2.708C109.597,157.477,111.651,156.469,111.721,156.594z"/>
			</g>
		</g>
		<g>
			<g>
				<path style="fill:#263238;" d="M124.073,162.835c0.07,0.126-3.39,2.183-7.727,4.594c-4.338,2.412-7.911,4.265-7.981,4.139
					c-0.07-0.126,3.389-2.182,7.728-4.594C120.43,164.563,124.004,162.71,124.073,162.835z"/>
			</g>
		</g>
		<g>
			<g>
				<path style="fill:#263238;" d="M122.855,176.621c0.07,0.126-1.871,1.338-4.334,2.708c-2.464,1.37-4.518,2.378-4.588,2.253
					s1.87-1.338,4.335-2.708C120.731,177.504,122.785,176.495,122.855,176.621z"/>
			</g>
		</g>
		<g>
			<g>
				<path style="fill:#263238;" d="M135.207,182.862c0.07,0.126-3.39,2.183-7.727,4.594c-4.338,2.412-7.911,4.265-7.981,4.139
					c-0.07-0.126,3.389-2.182,7.728-4.594C131.564,184.59,135.137,182.736,135.207,182.862z"/>
			</g>
		</g>
		<g>
			<g>
				<path style="fill:#263238;" d="M133.989,196.648c0.07,0.126-1.871,1.338-4.334,2.708c-2.464,1.37-4.518,2.378-4.588,2.253
					c-0.07-0.126,1.87-1.338,4.335-2.708C131.865,197.531,133.919,196.522,133.989,196.648z"/>
			</g>
		</g>
		<g>
			<g>
				<path style="fill:#263238;" d="M146.342,202.889c0.07,0.126-3.39,2.183-7.727,4.594c-4.338,2.412-7.911,4.265-7.981,4.139
					s3.389-2.182,7.728-4.594C142.698,204.617,146.272,202.763,146.342,202.889z"/>
			</g>
		</g>
		<g>
			<g>
				<path style="fill:#263238;" d="M145.123,216.675c0.07,0.126-1.871,1.338-4.334,2.708c-2.464,1.37-4.518,2.378-4.588,2.253
					c-0.07-0.126,1.87-1.338,4.335-2.708C142.999,217.558,145.053,216.549,145.123,216.675z"/>
			</g>
		</g>
		<g>
			<g>
				<path style="fill:#263238;" d="M157.475,222.916c0.07,0.126-3.39,2.183-7.727,4.594c-4.338,2.412-7.911,4.265-7.981,4.139
					c-0.07-0.126,3.389-2.182,7.728-4.594C153.833,224.643,157.406,222.79,157.475,222.916z"/>
			</g>
		</g>
		<g>
			<g>
				<path style="fill:#263238;" d="M156.257,236.702c0.07,0.126-1.871,1.338-4.334,2.708c-2.464,1.37-4.518,2.378-4.588,2.253
					c-0.07-0.126,1.87-1.338,4.335-2.708C154.133,237.585,156.187,236.576,156.257,236.702z"/>
			</g>
		</g>
		<g>
			<g>
				<path style="fill:#263238;" d="M168.61,242.943c0.07,0.126-3.39,2.183-7.727,4.594c-4.338,2.412-7.911,4.265-7.981,4.139
					c-0.07-0.126,3.389-2.182,7.728-4.594C164.967,244.67,168.54,242.817,168.61,242.943z"/>
			</g>
		</g>
		<g style="opacity:0.3;">
			<polygon points="118.117,189.343 114.736,183.262 157.405,182.862 162.9,192.746 			"/>
		</g>
	</g>
</g>
<g id="Frame">
	<g>
		<g>
			<g>
				<path style="fill:#FFFFFF;" d="M260.603,223.135l-79.914-5.583c-3.578-0.25-6.276-3.353-6.026-6.932l4.749-67.97
					c0.25-3.578,3.353-6.276,6.932-6.026l79.914,5.583c3.578,0.25,6.276,3.353,6.026,6.932l-4.749,67.97
					C267.284,220.687,264.181,223.385,260.603,223.135z"/>
			</g>
			<g>
				<g>
					<path style="fill:#263238;" d="M260.603,223.135c0-0.018,0.297,0.008,0.868-0.031c0.567-0.038,1.434-0.168,2.43-0.675
						c0.985-0.495,2.125-1.395,2.868-2.851c0.821-1.447,0.689-3.408,0.877-5.524c0.576-8.528,1.408-20.844,2.436-36.06
						c0.522-7.613,1.094-15.95,1.708-24.9c0.077-1.119,0.155-2.247,0.233-3.385c0.104-1.132,0.058-2.246-0.379-3.295
						c-0.789-2.1-2.827-3.725-5.139-3.948c-4.764-0.334-9.667-0.677-14.695-1.029c-20.127-1.4-42.253-2.939-65.478-4.554
						c-1.394-0.084-2.816,0.275-3.958,1.075c-1.138,0.789-2.031,1.947-2.427,3.273c-0.21,0.664-0.283,1.332-0.322,2.06l-0.15,2.14
						c-0.1,1.424-0.199,2.844-0.298,4.258c-0.396,5.656-0.787,11.23-1.171,16.706c-0.77,10.952-1.514,21.517-2.222,31.581
						c-0.178,2.516-0.353,5.001-0.526,7.452c-0.087,1.226-0.173,2.443-0.258,3.653c-0.077,1.219-0.243,2.4,0.064,3.518
						c0.537,2.259,2.423,4.059,4.605,4.563c1.077,0.24,2.265,0.227,3.392,0.334c1.138,0.081,2.266,0.161,3.385,0.24
						c8.949,0.637,17.285,1.23,24.896,1.771c15.211,1.098,27.522,1.986,36.046,2.602c4.245,0.318,7.544,0.565,9.798,0.734
						c1.11,0.089,1.959,0.157,2.547,0.204C260.31,223.097,260.603,223.135,260.603,223.135s-0.295-0.003-0.87-0.034
						c-0.589-0.035-1.439-0.086-2.551-0.152c-2.256-0.146-5.557-0.36-9.805-0.636c-8.527-0.576-20.842-1.408-36.058-2.436
						c-7.613-0.522-15.95-1.094-24.901-1.708c-1.119-0.077-2.247-0.155-3.385-0.233c-1.14-0.108-2.275-0.081-3.465-0.339
						c-2.34-0.536-4.363-2.46-4.945-4.885c-0.332-1.214-0.155-2.475-0.083-3.662c0.083-1.209,0.168-2.427,0.252-3.653
						c0.17-2.452,0.342-4.937,0.516-7.453c0.698-10.065,1.432-20.63,2.191-31.584c0.381-5.477,0.769-11.05,1.163-16.707
						c0.099-1.414,0.198-2.833,0.297-4.258l0.149-2.14c0.036-0.701,0.117-1.472,0.344-2.179c0.43-1.437,1.396-2.692,2.629-3.547
						c1.236-0.866,2.78-1.257,4.288-1.165c23.224,1.63,45.349,3.183,65.475,4.595c5.034,0.36,9.943,0.712,14.713,1.053
						c2.48,0.244,4.662,1.991,5.503,4.241c0.466,1.107,0.511,2.359,0.401,3.487c-0.081,1.138-0.161,2.266-0.24,3.384
						c-0.637,8.948-1.23,17.284-1.771,24.895c-1.098,15.211-1.986,27.523-2.602,36.048c-0.078,1.064-0.153,2.068-0.222,3.012
						c-0.065,0.957-0.337,1.831-0.719,2.569c-0.776,1.484-1.951,2.387-2.96,2.875c-1.021,0.5-1.9,0.613-2.473,0.634
						C260.897,223.18,260.603,223.135,260.603,223.135z"/>
				</g>
			</g>
		</g>
		<g>
			<g>
				<path style="fill:#FFFFFF;" d="M256.574,218.214l-71.212-4.975c-3.578-0.25-6.276-3.353-6.026-6.932l4.104-58.736
					c0.25-3.578,3.353-6.276,6.932-6.026l71.212,4.975c3.578,0.25,6.276,3.353,6.026,6.932l-4.104,58.736
					C263.256,215.766,260.153,218.464,256.574,218.214z"/>
			</g>
			<g>
				<g>
					<g>
						<path style="fill:#263238;" d="M244.604,217.377c0.01-0.143,2.698-0.073,6.003,0.158c3.306,0.231,5.978,0.535,5.967,0.678
							c-0.01,0.143-2.697,0.072-6.004-0.159C247.266,217.824,244.594,217.521,244.604,217.377z"/>
					</g>
				</g>
				<g>
					<g>
						<path style="fill:#263238;" d="M220.662,215.705c0.01-0.144,2.698-0.073,6.003,0.158c3.306,0.231,5.978,0.535,5.968,0.678
							c-0.01,0.143-2.698,0.072-6.004-0.158C223.324,216.152,220.652,215.848,220.662,215.705z"/>
					</g>
				</g>
				<g>
					<g>
						<path style="fill:#263238;" d="M196.72,214.032c0.01-0.143,2.698-0.072,6.003,0.158c3.306,0.231,5.978,0.535,5.968,0.678
							c-0.01,0.143-2.698,0.073-6.004-0.158C199.382,214.479,196.71,214.175,196.72,214.032z"/>
					</g>
				</g>
				<g>
					<g>
						<path style="fill:#263238;" d="M179.505,203.887c0.072,0.005,0.09,0.68,0.061,1.768c-0.013,0.551-0.054,1.178,0.039,1.864
							c0.099,0.685,0.316,1.421,0.686,2.127c0.733,1.432,1.936,2.353,2.864,2.835c0.945,0.477,1.614,0.598,1.597,0.686
							c-0.003,0.053-0.708,0.065-1.753-0.352c-1.022-0.419-2.374-1.373-3.17-2.927c-0.4-0.765-0.621-1.571-0.701-2.311
							c-0.073-0.745,0.012-1.416,0.07-1.947C179.322,204.548,179.433,203.882,179.505,203.887z"/>
					</g>
				</g>
				<g>
					<g>
						<path style="fill:#263238;" d="M181.178,179.946c0.143,0.01,0.072,2.698-0.158,6.003c-0.231,3.306-0.535,5.978-0.678,5.967
							c-0.143-0.01-0.072-2.697,0.159-6.004C180.731,182.608,181.035,179.936,181.178,179.946z"/>
					</g>
				</g>
				<g>
					<g>
						<path style="fill:#263238;" d="M182.851,156.004c0.143,0.01,0.073,2.698-0.158,6.003c-0.231,3.306-0.535,5.977-0.678,5.967
							c-0.143-0.01-0.072-2.698,0.158-6.004C182.404,158.666,182.707,155.994,182.851,156.004z"/>
					</g>
				</g>
				<g>
					<g>
						<path style="fill:#263238;" d="M195.71,141.918c0.001,0.16-2.723,0.036-5.98-0.122c-1.605,0.035-2.962,0.704-3.796,1.339
							c-0.846,0.637-1.246,1.187-1.315,1.135c-0.049-0.028,0.248-0.668,1.083-1.421c0.816-0.746,2.27-1.537,4.013-1.574
							C193.074,141.436,195.708,141.79,195.71,141.918z"/>
					</g>
				</g>
				<g>
					<g>
						<path style="fill:#263238;" d="M219.651,143.591c-0.01,0.143-2.698,0.073-6.003-0.158c-3.306-0.231-5.978-0.535-5.967-0.678
							c0.01-0.143,2.697-0.072,6.004,0.159C216.99,143.144,219.661,143.447,219.651,143.591z"/>
					</g>
				</g>
				<g>
					<g>
						<path style="fill:#263238;" d="M243.593,145.263c-0.01,0.144-2.698,0.073-6.003-0.158c-3.306-0.231-5.978-0.535-5.967-0.678
							c0.01-0.143,2.698-0.072,6.004,0.158C240.931,144.816,243.603,145.12,243.593,145.263z"/>
					</g>
				</g>
				<g>
					<g>
						<path style="fill:#263238;" d="M266.561,149.435c-0.072,0.05-0.45-0.516-1.274-1.183c-0.811-0.665-2.143-1.379-3.75-1.474
							c-3.309-0.231-5.983-0.535-5.973-0.678c0.01-0.143,2.7-0.072,6.009,0.159c1.738,0.101,3.167,0.941,3.956,1.716
							C266.338,148.757,266.609,149.41,266.561,149.435z"/>
					</g>
				</g>
				<g>
					<g>
						<path style="fill:#263238;" d="M266.231,173.182c-0.143-0.01-0.073-2.698,0.158-6.003c0.231-3.306,0.534-5.977,0.678-5.967
							c0.143,0.01,0.072,2.698-0.159,6.004C266.678,170.52,266.375,173.192,266.231,173.182z"/>
					</g>
				</g>
				<g>
					<g>
						<path style="fill:#263238;" d="M264.559,197.124c-0.143-0.01-0.073-2.698,0.158-6.003c0.231-3.306,0.534-5.978,0.678-5.968
							c0.143,0.01,0.073,2.698-0.159,6.004C265.006,194.462,264.702,197.134,264.559,197.124z"/>
					</g>
				</g>
				<g>
					<g>
						<path style="fill:#263238;" d="M257.862,218.177c-0.014-0.09,0.661-0.179,1.62-0.63c0.95-0.443,2.171-1.335,2.963-2.73
							c0.4-0.69,0.636-1.422,0.759-2.102c0.105-0.674,0.142-1.345,0.211-1.878c0.123-1.081,0.235-1.747,0.306-1.742
							c0.072,0.005,0.09,0.68,0.061,1.767c-0.024,0.55-0.017,1.175-0.105,1.926c-0.105,0.736-0.347,1.538-0.78,2.286
							c-0.86,1.515-2.23,2.435-3.272,2.812C258.57,218.273,257.863,218.229,257.862,218.177z"/>
					</g>
				</g>
			</g>
		</g>
		<g>
			<g>
				<path style="fill:#263238;" d="M265.658,148.939c0.086,0.116-18.723,14.199-42.005,31.453
					c-23.29,17.26-42.233,31.153-42.319,31.038c-0.086-0.115,18.719-14.196,42.009-31.456
					C246.625,162.72,265.572,148.823,265.658,148.939z"/>
			</g>
		</g>
		<g>
			<g>
				<path style="fill:#263238;" d="M184.925,143.504c0.099-0.104,17.427,16.28,38.698,36.589
					c21.278,20.317,38.441,36.866,38.342,36.97c-0.099,0.104-17.423-16.276-38.701-36.593
					C201.992,160.16,184.826,143.608,184.925,143.504z"/>
			</g>
		</g>
	</g>
</g>
<g id="Gears">
	<path style="fill:#455A64;" d="M165.874,120.989c1.734-1.048,3.579-1.842,5.483-2.383l1.13-5.427l9.169-0.161l1.32,5.384
		c1.922,0.474,3.794,1.203,5.564,2.189l4.634-3.038l6.598,6.37l-2.872,4.737c1.048,1.734,1.842,3.58,2.383,5.484l5.427,1.129
		l0.161,9.169l-5.384,1.32c-0.473,1.921-1.203,3.793-2.189,5.563l3.037,4.635l-6.369,6.598l-4.738-2.873
		c-1.734,1.048-3.58,1.842-5.484,2.383l-1.13,5.427l-9.169,0.161l-1.32-5.384c-1.921-0.474-3.794-1.203-5.563-2.189l-4.634,3.038
		l-6.598-6.37l2.873-4.737c-1.048-1.734-1.843-3.58-2.383-5.484l-5.427-1.129l-0.161-9.169l5.384-1.32
		c0.474-1.921,1.203-3.794,2.189-5.563l-3.037-4.635l6.37-6.598L165.874,120.989L165.874,120.989z M170.761,133.204
		c-3.774,3.909-3.665,10.137,0.244,13.911c3.909,3.774,10.137,3.664,13.911-0.245c3.774-3.909,3.665-10.137-0.244-13.911
		C180.763,129.186,174.535,129.295,170.761,133.204z"/>
	<path style="fill:#455A64;" d="M227.332,332.915c1.847-1.116,3.813-1.962,5.84-2.538l1.203-5.781l9.767-0.171l1.406,5.735
		c2.047,0.504,4.042,1.281,5.927,2.331l4.936-3.236l7.028,6.786l-3.06,5.046c1.116,1.847,1.962,3.814,2.538,5.842l5.78,1.203
		l0.172,9.767l-5.735,1.406c-0.504,2.046-1.281,4.041-2.331,5.926l3.235,4.937l-6.785,7.028l-5.047-3.06
		c-1.847,1.116-3.813,1.962-5.841,2.538l-1.203,5.781l-9.767,0.171l-1.406-5.735c-2.047-0.505-4.041-1.281-5.926-2.332l-4.936,3.236
		l-7.028-6.785l3.06-5.046c-1.116-1.847-1.963-3.813-2.538-5.841l-5.781-1.203l-0.171-9.767l5.735-1.406
		c0.504-2.046,1.281-4.041,2.331-5.926l-3.235-4.937l6.785-7.028L227.332,332.915L227.332,332.915z M232.539,345.927
		c-4.02,4.164-3.904,10.798,0.26,14.818s10.798,3.903,14.818-0.261c4.02-4.164,3.904-10.798-0.26-14.818
		C243.193,341.647,236.559,341.763,232.539,345.927z"/>
</g>
<g id="Magnifying_glass">
	<g>
		<g style="opacity:0.3;">
			<path style="fill:#FFFFFF;" d="M38.084,223.377c0,0,26.852,18.193,25.522,20.44s-17.741,14.445-20.42,12.982
				C35.972,252.862,28.365,231.622,38.084,223.377z"/>
		</g>
		<g>
			<g>
				<g>
					<g>
						<g>
							<g>
								<g>
									<g>
										<g>
											<g>
												<g>
													<g>
														<path style="fill:#455A64;" d="M65.746,266.579c-6.096,1.257-12.623,0.69-18.729-2.03
															c-7.52-3.35-13.286-9.429-16.235-17.116c-2.949-7.688-2.727-16.063,0.624-23.584
															c6.916-15.525,25.175-22.529,40.701-15.612l0,0c7.521,3.351,13.286,9.43,16.235,17.117
															c2.949,7.687,2.727,16.062-0.624,23.584C83.521,258.356,75.149,264.64,65.746,266.579z M53.792,208.228
															c-8.774,1.81-16.585,7.671-20.501,16.46c-3.126,7.017-3.333,14.832-0.582,22.004
															c2.751,7.173,8.131,12.845,15.148,15.971c7.017,3.127,14.832,3.334,22.005,0.581
															c7.172-2.75,12.844-8.131,15.971-15.148c3.126-7.017,3.333-14.832,0.582-22.004
															c-2.751-7.173-8.131-12.844-15.148-15.971C65.571,207.584,59.479,207.055,53.792,208.228z"/>
													</g>
												</g>
											</g>
										</g>
									</g>
								</g>
							</g>
						</g>
					</g>
				</g>
				<g>
					<g>
						<g>
							<g>
								<g>
									<g>
										<g>
											<g>
												<g>
													<g>
														<path style="fill:#263238;" d="M64.09,269.586c-6.096,1.257-12.623,0.69-18.729-2.03
															c-7.52-3.35-13.286-9.429-16.235-17.116c-2.949-7.688-2.727-16.063,0.624-23.584
															c6.916-15.525,25.175-22.529,40.701-15.612l0,0c7.521,3.351,13.286,9.43,16.235,17.117
															c2.949,7.687,2.727,16.062-0.624,23.584C81.865,261.363,73.492,267.646,64.09,269.586z M52.135,211.235
															c-8.774,1.81-16.585,7.671-20.501,16.46c-3.126,7.017-3.333,14.832-0.582,22.004
															c2.751,7.173,8.131,12.845,15.148,15.971c7.017,3.127,14.832,3.334,22.005,0.582
															c7.172-2.75,12.844-8.131,15.971-15.148c3.126-7.017,3.333-14.832,0.582-22.004
															c-2.751-7.173-8.131-12.844-15.148-15.971C63.914,210.591,57.822,210.061,52.135,211.235z"/>
													</g>
												</g>
											</g>
										</g>
									</g>
								</g>
							</g>
						</g>
					</g>
				</g>
				<g>
					<g>
						<g>
							<g>
								<g>
									<g>
										<g>
											<g>
												<g>
													<g>
														<path style="fill:#455A64;" d="M64.674,267.853c-6.096,1.257-12.623,0.69-18.729-2.03
															c-7.52-3.35-13.286-9.43-16.235-17.117c-2.949-7.688-2.727-16.063,0.624-23.584
															c6.916-15.525,25.175-22.529,40.701-15.612l0,0c7.521,3.351,13.286,9.43,16.235,17.117
															c2.949,7.687,2.727,16.062-0.624,23.584C82.449,259.63,74.076,265.914,64.674,267.853z M52.719,209.502
															c-8.774,1.81-16.585,7.671-20.501,16.46c-3.126,7.017-3.333,14.832-0.582,22.004
															c2.751,7.173,8.131,12.844,15.148,15.971c7.017,3.127,14.832,3.333,22.005,0.582
															c7.172-2.751,12.844-8.131,15.971-15.148c3.126-7.017,3.333-14.832,0.582-22.004
															c-2.751-7.173-8.131-12.844-15.148-15.971C64.498,208.858,58.406,208.329,52.719,209.502z"/>
													</g>
												</g>
											</g>
										</g>
									</g>
								</g>
							</g>
						</g>
					</g>
				</g>
			</g>
			<g>
				<g>
					<g>
						<g>
							<g>
								<g>
									<g>
										<g>
											<g>
												<g>
													<g>
														<g>
															<g>
																<path style="fill:#455A64;" d="M108.976,272.761l-0.755,1.137c-0.673,1.014-2.444,1.031-3.368,0.41l-24.115-16.548
																	l3.543-5.338l24.063,16.513C109.468,269.733,109.843,271.456,108.976,272.761z"/>
															</g>
														</g>
													</g>
												</g>
											</g>
										</g>
									</g>
								</g>
							</g>
						</g>
					</g>
				</g>
			</g>
		</g>
		<g>
			<g>
				<g>
					<g>
						<path style="fill:#263238;" d="M72.298,226.191c0.05,0.064-5.882,4.805-13.248,10.589c-7.368,5.786-13.38,10.423-13.43,10.359
							c-0.05-0.064,5.881-4.804,13.249-10.589C66.235,230.765,72.248,226.127,72.298,226.191z"/>
					</g>
				</g>
			</g>
		</g>
		<g>
			<g>
				<g>
					<g>
						<path style="fill:#263238;" d="M64.336,224.283c0.051,0.063-4.337,3.684-9.8,8.086c-5.464,4.404-9.934,7.922-9.985,7.859
							c-0.051-0.063,4.336-3.683,9.801-8.087C59.814,227.739,64.285,224.22,64.336,224.283z"/>
					</g>
				</g>
			</g>
		</g>
		<g>
			<g>
				<g>
					<g>
						<path style="fill:#263238;" d="M71.507,235.59c0.051,0.063-2.953,2.568-6.708,5.594c-3.757,3.027-6.842,5.43-6.893,5.367
							c-0.051-0.063,2.952-2.567,6.709-5.595C68.37,237.93,71.456,235.527,71.507,235.59z"/>
					</g>
				</g>
			</g>
		</g>
		<g style="opacity:0.3;">
			<polygon points="89.642,256.139 88.554,263.124 93.524,266.504 102.212,264.651 			"/>
		</g>
	</g>
</g>
<g id="Pencil">
	<g>
		<g>
			<g>
				<path style="fill:#FF725E;" d="M182.249,385.373c-1.689-7.202,2.78-14.41,9.982-16.099c7.202-1.689,14.41,2.78,16.1,9.982
					c1.689,7.202-2.78,14.41-9.982,16.1C191.146,397.045,183.938,392.576,182.249,385.373z"/>
			</g>
		</g>
		<g>
			<g>
				<g>
					<g>
						<g>
							<path style="fill:#FF725E;" d="M39.188,281.023l13.121,23.269l130.859,86.024l14.287-22.827L67.309,282.191l-26.966-2.928
								C39.484,279.169,38.762,280.269,39.188,281.023z"/>
						</g>
					</g>
					<g style="opacity:0.7;">
						<g>
							<g>
								<path style="fill:#FFFFFF;" d="M67.309,282.191c-0.078,1.274-1.018,2.409-2.162,2.284c1.361,1.595,1.473,4.35,0.266,6.532
									c-1.207,2.182-3.644,3.627-5.778,3.428c0.636,2.102,0.066,4.767-1.437,6.722c-1.503,1.955-3.879,3.123-5.995,2.946
									l-12.936-22.938c-0.455-0.807,0.316-1.984,1.236-1.884L67.309,282.191z"/>
							</g>
						</g>
					</g>
					<g>
						<g>
							<path style="fill:#FF725E;" d="M44.399,289.085c1.414-0.324,4.841-1.737,5.558-7.862c0.061-0.516-0.239-0.942-0.701-0.992
								l-9.028-0.98c-0.816-0.089-1.501,0.956-1.097,1.673l4.391,7.788C43.697,289.02,44.034,289.168,44.399,289.085z"/>
						</g>
					</g>
				</g>
			</g>
			<g style="opacity:0.3;">
				<g>
					<path d="M59.634,294.434l129.663,84.231l-6.714,11.234L52.308,304.293l-0.105-0.19c0,0,1.226,0.178,2.724-0.435
						c1.003-0.41,2.186-1.172,3.145-2.354c1.234-1.521,1.723-3.172,1.815-4.474C59.985,295.434,59.634,294.434,59.634,294.434z"/>
				</g>
			</g>
			<g style="opacity:0.3;">
				<g>
					<path d="M65.146,284.475l130.502,85.806l1.975-2.708L67.309,282.191c0,0-0.042,1.842-1.726,2.278
						C65.449,284.504,65.303,284.474,65.146,284.475z"/>
				</g>
			</g>
			<g>
				<g>
					<g>
						<path style="fill:#FFFFFF;" d="M53.157,294.426c0.009-0.016,0.056,0.125,0.276,0.137c0.2,0.018,0.603-0.151,0.736-0.617
							c0.13-0.44,0.075-1.014-0.117-1.572c-0.106-0.274-0.28-0.539-0.557-0.686c-0.268-0.149-0.647-0.179-0.98,0.041
							c-0.337,0.212-0.561,0.628-0.687,1.057c-0.13,0.434-0.164,0.9-0.177,1.375c-0.016,0.943,0.106,1.954,0.491,2.855
							c0.2,0.434,0.526,0.838,1.011,0.904c0.479,0.069,1.033-0.219,1.426-0.655c0.791-0.92,1.021-2.258,1.019-3.451
							c-0.042-2.443-1.439-4.434-3.249-4.957c-0.455-0.112-0.961,0.006-1.359,0.332c-0.403,0.315-0.702,0.756-0.941,1.191
							c-0.464,0.889-0.761,1.781-0.948,2.595c-0.374,1.638-0.295,2.96-0.172,3.827c0.07,0.434,0.144,0.763,0.202,0.983
							c0.06,0.219,0.083,0.339,0.083,0.339s-0.19-0.43-0.349-1.298c-0.143-0.866-0.242-2.197,0.122-3.859
							c0.183-0.827,0.475-1.729,0.946-2.643c0.244-0.449,0.551-0.912,0.985-1.256c0.428-0.357,1.001-0.492,1.484-0.372
							c1.894,0.54,3.313,2.574,3.362,5.085c0.014,0.625-0.067,1.261-0.222,1.879c-0.161,0.614-0.421,1.234-0.857,1.716
							c-0.429,0.473-1.032,0.791-1.578,0.713c-0.551-0.079-0.898-0.528-1.104-0.981c-0.396-0.94-0.51-1.961-0.489-2.926
							c0.017-0.482,0.054-0.96,0.194-1.417c0.134-0.448,0.378-0.903,0.762-1.142c0.38-0.246,0.801-0.203,1.085-0.038
							c0.297,0.163,0.478,0.452,0.584,0.739c0.189,0.586,0.237,1.163,0.09,1.636c-0.154,0.499-0.598,0.674-0.805,0.64
							C53.192,294.572,53.156,294.416,53.157,294.426z"/>
					</g>
				</g>
			</g>
			<g>
				<g>
					<g>
						<path style="fill:#FFFFFF;" d="M55.151,281.148c0.019,0.003-0.118,0.361-0.213,1.016c-0.099,0.653-0.097,1.602,0.167,2.673
							c0.251,1.079,0.791,2.237,1.453,3.476c0.639,1.246,1.412,2.63,1.647,4.373c0.233,1.735-0.098,3.535-0.734,5.039
							c-0.633,1.517-1.582,2.716-2.466,3.56c-0.894,0.848-1.733,1.351-2.316,1.646c-0.588,0.292-0.927,0.386-0.927,0.386
							c-0.001-0.006,0.08-0.045,0.236-0.115c0.156-0.068,0.384-0.177,0.671-0.333c0.572-0.312,1.395-0.825,2.267-1.672
							c0.864-0.843,1.785-2.027,2.398-3.517c0.616-1.478,0.935-3.242,0.707-4.939c-0.229-1.703-0.987-3.078-1.62-4.33
							c-0.654-1.244-1.191-2.425-1.431-3.524c-0.253-1.092-0.237-2.062-0.117-2.722C54.991,281.5,55.151,281.148,55.151,281.148z"/>
					</g>
				</g>
			</g>
			<g>
				<g>
					<g>
						<path style="fill:#FFFFFF;" d="M61.9,281.492c0.043,0.018-0.712,0.458-1.046,1.675c-0.322,1.182-0.315,2.85-0.223,4.631
							c0.112,1.785,0.411,3.344,0.69,4.441c0.136,0.551,0.266,0.987,0.354,1.289c0.092,0.3,0.139,0.47,0.128,0.476
							c-0.011,0.006-0.077-0.152-0.189-0.443c-0.107-0.293-0.255-0.723-0.407-1.269c-0.31-1.088-0.63-2.653-0.742-4.452
							c-0.059-0.898-0.062-1.766-0.027-2.561c0.032-0.793,0.115-1.526,0.304-2.132c0.182-0.609,0.488-1.061,0.734-1.316
							C61.73,281.578,61.9,281.492,61.9,281.492z"/>
					</g>
				</g>
			</g>
			<g>
				<g>
					<g>
						<path style="fill:#FFFFFF;" d="M64.8,291.897c-0.018,0.013-0.206-0.299-0.457-0.844c-0.24-0.544-0.557-1.354-0.529-2.372
							c0.01-1.021,0.495-1.971,0.998-2.45c0.247-0.247,0.482-0.397,0.648-0.477c0.166-0.081,0.263-0.099,0.264-0.091
							c0.012,0.031-0.382,0.156-0.838,0.651c-0.46,0.479-0.895,1.366-0.906,2.342c-0.028,0.974,0.261,1.773,0.472,2.329
							C64.672,291.543,64.824,291.882,64.8,291.897z"/>
					</g>
				</g>
			</g>
			<g>
				<g>
					<g>
						<path style="fill:#FFFFFF;" d="M51.24,280.384c0.005-0.003,0.029,0.038,0.068,0.121c0.039,0.083,0.097,0.204,0.163,0.368
							c0.063,0.164,0.141,0.374,0.144,0.652c0.008,0.277-0.086,0.603-0.221,0.931c-0.259,0.67-0.701,1.408-1.122,2.244
							c-0.421,0.837-0.814,1.788-1.152,2.804c-0.675,2.035-1.025,3.922-1.282,5.28c-0.108,0.59-0.205,1.123-0.294,1.612
							c-0.07,0.381-0.115,0.591-0.126,0.591c-0.011,0,0.012-0.211,0.062-0.592c0.052-0.381,0.131-0.932,0.243-1.614
							c0.227-1.361,0.56-3.257,1.242-5.311c0.341-1.025,0.742-1.986,1.176-2.829c0.434-0.844,0.88-1.568,1.147-2.219
							c0.32-0.648,0.254-1.193,0.122-1.515C51.295,280.575,51.227,280.391,51.24,280.384z"/>
					</g>
				</g>
			</g>
		</g>
		<g>
			<g>
				<g>
					<path style="fill:#E0E0E0;" d="M182.302,389.816l15.321-22.244c0.216-0.314,0.646-0.393,0.96-0.177l6.854,4.721
						c0.314,0.216,0.393,0.646,0.177,0.96l-15.321,22.244c-0.216,0.314-0.646,0.393-0.96,0.177l-6.854-4.721
						C182.165,390.56,182.086,390.13,182.302,389.816z"/>
				</g>
			</g>
			<g>
				<g>
					<g>
						<path style="fill:#263238;" d="M182.302,389.816c0.008,0.005-0.032,0.059-0.068,0.179c-0.033,0.116-0.055,0.317,0.064,0.526
							c0.111,0.21,0.415,0.336,0.708,0.551c0.308,0.206,0.658,0.44,1.048,0.701c0.795,0.537,1.755,1.185,2.866,1.935
							c0.559,0.379,1.155,0.784,1.786,1.213c0.158,0.107,0.318,0.217,0.481,0.327c0.173,0.115,0.308,0.232,0.471,0.241
							c0.164,0.018,0.337-0.04,0.456-0.158c0.105-0.116,0.231-0.329,0.348-0.492c3.852-5.618,9.146-13.339,14.994-21.868
							c0.139-0.194,0.111-0.483-0.062-0.644c-0.203-0.159-0.512-0.358-0.761-0.534c-0.526-0.363-1.049-0.723-1.568-1.081
							c-1.038-0.716-2.06-1.421-3.065-2.115c-0.502-0.347-1-0.691-1.493-1.031c-0.191-0.148-0.443-0.141-0.622-0.009
							c-0.043,0.033-0.082,0.072-0.114,0.117l-0.126,0.182l-0.251,0.363c-0.668,0.966-1.322,1.911-1.96,2.834
							c-2.554,3.681-4.855,6.999-6.795,9.794c-1.933,2.762-3.502,5.005-4.608,6.584c-0.538,0.754-0.962,1.349-1.269,1.779
							c-0.138,0.186-0.249,0.337-0.338,0.457C182.35,389.769,182.308,389.82,182.302,389.816c-0.005-0.004,0.027-0.061,0.094-0.17
							c0.081-0.126,0.182-0.284,0.307-0.479c0.293-0.44,0.697-1.048,1.21-1.819c1.082-1.596,2.618-3.862,4.509-6.652
							c1.92-2.809,4.199-6.141,6.728-9.84c0.635-0.925,1.285-1.873,1.949-2.841l0.25-0.364l0.126-0.183
							c0.053-0.076,0.119-0.144,0.194-0.201c0.296-0.235,0.758-0.226,1.046-0.001c0.494,0.339,0.992,0.682,1.495,1.027
							c1.006,0.692,2.03,1.396,3.068,2.11c0.519,0.357,1.043,0.717,1.569,1.08c0.271,0.194,0.509,0.335,0.81,0.574
							c0.304,0.284,0.352,0.789,0.109,1.128c-5.884,8.504-11.21,16.203-15.086,21.805c-0.133,0.179-0.214,0.335-0.386,0.527
							c-0.177,0.172-0.43,0.253-0.667,0.223c-0.251-0.025-0.432-0.19-0.582-0.29c-0.161-0.112-0.32-0.223-0.477-0.333
							c-0.625-0.437-1.216-0.85-1.77-1.237c-1.096-0.77-2.045-1.436-2.829-1.988c-0.384-0.272-0.727-0.516-1.029-0.73
							c-0.281-0.224-0.586-0.356-0.711-0.607c-0.121-0.239-0.081-0.455-0.034-0.574C182.249,389.86,182.302,389.816,182.302,389.816
							z"/>
					</g>
				</g>
			</g>
		</g>
		<g>
			<g>
				<g>
					<path style="fill:#263238;" d="M203.723,375.484c-0.057,0.087-1.871-1.008-4.051-2.445c-2.18-1.438-3.901-2.673-3.844-2.76
						c0.057-0.087,1.871,1.008,4.051,2.445C202.059,374.161,203.78,375.397,203.723,375.484z"/>
				</g>
			</g>
		</g>
		<g>
			<g>
				<g>
					<path style="fill:#263238;" d="M198.15,384.147c-0.058,0.089-1.937-1.038-4.26-2.415c-2.322-1.379-4.212-2.487-4.161-2.581
						c0.048-0.09,2.024,0.873,4.354,2.257C196.413,382.789,198.206,384.062,198.15,384.147z"/>
				</g>
			</g>
		</g>
		<g>
			<g>
				<g>
					<path style="fill:#263238;" d="M183.186,388.637c0.059-0.086,1.912,1.001,4.139,2.428c2.228,1.427,3.99,2.656,3.936,2.746
						c-0.053,0.089-1.906-0.998-4.139-2.428C184.89,389.952,183.127,388.723,183.186,388.637z"/>
				</g>
			</g>
		</g>
		<g style="opacity:0.3;">
			<polygon points="135.882,359.099 185.136,359.262 172.518,350.993 123.55,350.993 			"/>
		</g>
	</g>
</g>
<g id="Shadows_1">
	<path style="opacity:0.3;" d="M210.669,350.993v7.926h20.115c0,0-2.125-5.064-0.948-7.926H210.669z"/>
	<path style="opacity:0.3;" d="M268.748,350.993l0.121,6.906l-4.293,1.02H248.89c0.405-0.166,2.864-5.366,0.948-7.926H268.748z"/>
	<g style="opacity:0.3;">
		<polyline points="176.54,183.755 269.865,183.755 269.051,195.408 175.725,195.408 176.443,186.356 		"/>
	</g>
</g>
<g id="UX">
	<g>
		<g>
			<g>
				<path style="fill:#F5F5F5;" d="M278.164,350.993H100.276c-4.092,0-7.409-3.317-7.409-7.409V196.752
					c0-4.092,3.317-7.409,7.409-7.409h177.888c4.092,0,7.409,3.317,7.409,7.409v146.832
					C285.573,347.676,282.256,350.993,278.164,350.993z"/>
			</g>
			<g>
				<g>
					<path style="fill:#FF725E;" d="M278.164,350.993c0,0,0.152-0.017,0.451-0.036c0.299-0.013,0.747-0.069,1.32-0.214
						c1.122-0.279,2.868-1.019,4.227-2.911c0.675-0.93,1.172-2.166,1.311-3.577c0.064-1.417,0.011-2.991,0.022-4.683
						c-0.007-3.391-0.015-7.301-0.024-11.702c-0.02-17.617-0.048-43.096-0.083-74.578c-0.01-15.744-0.02-32.988-0.032-51.5
						c-0.001-1.157-0.001-2.319-0.002-3.486c-0.009-1.175,0.062-2.335-0.259-3.434c-0.575-2.21-2.31-4.112-4.503-4.876
						c-0.542-0.209-1.117-0.313-1.693-0.392c-0.574-0.04-1.176-0.041-1.781-0.036c-1.205,0.001-2.415,0.001-3.629,0.002
						c-2.429,0.001-4.876,0.002-7.341,0.003c-9.861,0.004-20.01,0.007-30.417,0.011c-41.631,0.006-87.399,0.013-135.438,0.02
						c-2.927-0.053-5.714,1.909-6.7,4.631c-0.568,1.345-0.453,2.823-0.465,4.32c0,1.488,0,2.973,0,4.456
						c0,5.932-0.001,11.825-0.001,17.675c-0.001,11.7-0.003,23.229-0.004,34.557c-0.005,22.656-0.01,44.51-0.015,65.328
						c-0.002,5.204-0.004,10.344-0.005,15.416c-0.001,2.536-0.002,5.054-0.003,7.555c0.001,1.215,0.307,2.416,0.874,3.477
						c0.591,1.044,1.416,1.966,2.429,2.602c1.007,0.637,2.164,1.048,3.351,1.116c1.189,0.054,2.433,0.016,3.64,0.028
						c2.429,0.001,4.84,0.002,7.231,0.003c4.783,0.002,9.491,0.005,14.119,0.007c18.513,0.011,35.758,0.022,51.502,0.032
						c31.482,0.035,56.96,0.063,74.574,0.083c8.799,0.021,15.633,0.038,20.275,0.049c2.313,0.011,4.078,0.02,5.273,0.026
						C277.556,350.975,278.164,350.993,278.164,350.993s-0.609,0.018-1.796,0.027c-1.195,0.006-2.96,0.014-5.273,0.026
						c-4.642,0.011-11.476,0.028-20.275,0.049c-17.615,0.02-43.092,0.048-74.574,0.083c-15.744,0.01-32.989,0.02-51.502,0.032
						c-4.628,0.002-9.336,0.004-14.119,0.007c-2.392,0.001-4.802,0.002-7.231,0.003c-1.222-0.012-2.418,0.029-3.673-0.026
						c-1.261-0.072-2.494-0.507-3.565-1.185c-1.078-0.677-1.956-1.655-2.586-2.766c-0.605-1.128-0.932-2.411-0.933-3.698
						c-0.001-2.501-0.002-5.02-0.003-7.555c-0.002-5.072-0.003-10.211-0.005-15.416c-0.005-20.818-0.01-42.672-0.015-65.328
						c-0.001-11.328-0.003-22.857-0.004-34.557c0-5.85-0.001-11.743-0.001-17.675c0-1.483,0-2.969,0-4.456
						c0.01-0.75-0.022-1.474,0.022-2.248c0.041-0.769,0.193-1.536,0.476-2.256c1.057-2.921,4.049-5.025,7.188-4.968
						c48.04,0.007,93.808,0.014,135.438,0.02c10.407,0.004,20.556,0.007,30.417,0.011c2.465,0.001,4.913,0.002,7.341,0.003
						c1.214,0,2.424,0.001,3.629,0.002c0.6-0.003,1.202-0.004,1.826,0.04c0.612,0.083,1.223,0.196,1.799,0.418
						c2.33,0.815,4.167,2.833,4.776,5.181c0.34,1.18,0.262,2.399,0.271,3.549c-0.001,1.167-0.001,2.329-0.002,3.486
						c-0.011,18.512-0.022,35.757-0.032,51.5c-0.035,31.482-0.063,56.962-0.083,74.578c-0.009,4.402-0.017,8.312-0.024,11.702
						c-0.02,1.697,0.026,3.254-0.047,4.694c-0.15,1.435-0.664,2.688-1.355,3.626c-1.392,1.908-3.166,2.638-4.3,2.902
						c-0.579,0.137-1.031,0.184-1.331,0.189C278.316,350.994,278.164,350.993,278.164,350.993z"/>
				</g>
			</g>
		</g>
		<g>
			<g>
				<path style="fill:#FF725E;" d="M124.778,304.635c-6.008-6.19-9.012-15.055-9.012-26.601v-44.998h14.465v44.429
					c0,15.646,6.601,23.467,19.806,23.467c13.129,0,19.694-7.822,19.694-23.467v-44.429h14.243v44.998
					c0,11.545-2.987,20.411-8.958,26.601c-5.972,6.19-14.336,9.284-25.091,9.284C139.168,313.919,130.787,310.826,124.778,304.635z"
					/>
			</g>
			<g>
				<path style="fill:#FF725E;" d="M252.179,312.78l-21.141-30.302L210.12,312.78h-16.468l28.93-40.669l-27.372-39.075h16.357
					l19.917,28.366l19.694-28.366h15.689l-27.26,38.505l29.263,41.239H252.179z"/>
			</g>
		</g>
		<g>
			<path style="fill:#FF725E;" d="M100.867,190.501c0,3.571-2.895,6.466-6.466,6.466s-6.466-2.895-6.466-6.466
				c0-3.571,2.895-6.466,6.466-6.466S100.867,186.93,100.867,190.501z"/>
		</g>
		<g>
			<path style="fill:#FF725E;" d="M289.238,190.501c0,3.571-2.895,6.466-6.466,6.466c-3.571,0-6.466-2.895-6.466-6.466
				c0-3.571,2.895-6.466,6.466-6.466C286.343,184.035,289.238,186.93,289.238,190.501z"/>
		</g>
		<g>
			<path style="fill:#FF725E;" d="M100.867,350.993c0,3.571-2.895,6.466-6.466,6.466s-6.466-2.895-6.466-6.466
				c0-3.571,2.895-6.466,6.466-6.466S100.867,347.422,100.867,350.993z"/>
		</g>
		<g>
			<path style="fill:#FF725E;" d="M289.238,350.993c0,3.571-2.895,6.466-6.466,6.466c-3.571,0-6.466-2.895-6.466-6.466
				c0-3.571,2.895-6.466,6.466-6.466C286.343,344.527,289.238,347.422,289.238,350.993z"/>
		</g>
	</g>
</g>
<g id="Character_00000005950862112475389860000016703871126544629142_">
	<g>
		<g>
			<g>
				<g>
					<path style="fill:#263238;" d="M457.695,301.578l-10.954-62.235c-5.608-48.641-6.572-107.933-14.319-123.169
						c-14.309-28.142-54.869-27.552-54.869-27.552c-53.86,0.583-60.032,42.514-62.348,80.434c-0.393,6.433-2.16,17.951-4.521,31.296
						c-5.683,27.848-13.343,56.588-31.621,76.705c-6.976,7.678-11.234,18.017-12.111,28.354
						c-0.877,10.337,5.555,22.178,15.893,23.042c-4.797,5.387-6.935,13.037-5.625,20.131c1.31,7.094,6.038,13.476,12.443,16.795
						c9.025,4.676,19.898,3.14,29.866,1.149c9.902-1.978,20.238-4.548,27.598-11.461c7.376-6.928,10.592-17.132,12.868-26.993
						c2.741-11.874,4.529-23.966,5.369-36.123L457.695,301.578z"/>
				</g>
			</g>
			<g>
				<g>
					<g>
						<g>
							<g>
								<path style="fill:#FFBF9D;" d="M385.926,103.179l-3.613-2.916l-34.998,17.573c-5.214,0.722-9.008,5.313-8.735,10.569
									l15.254,120.73c0.613,8.002-2.427,11.991,2.928,17.968l36.725,39.767c12.854,14.349,9.007-19.258,16.795-36.878
									c0.544-1.231-2.594-5.392-2.471-6.247c0.108-1.067,0.337-1.783,0.322-2.682c0.295-9.579-0.322-17.812-0.322-17.812
									c-0.214-10.472-0.353-14.765-0.343-14.667c0,0,21.962-4.376,25.61-33.331c1.814-14.4-0.353-33.827-2.77-52.923
									C426.961,115.903,407.243,101.396,385.926,103.179z"/>
							</g>
						</g>
					</g>
				</g>
			</g>
			<g>
				<g>
					<g>
						<g>
							<g>
								<g>
									<g>
										<g>
											<g>
												<g>
													<g>
														<g>
															<g>
																<path style="fill:#263238;" d="M382.173,167.662c0.132,1.949-1.41,3.667-3.443,3.842
																	c-2.029,0.175-3.784-1.259-3.916-3.208c-0.131-1.949,1.411-3.669,3.439-3.844
																	C380.286,164.276,382.041,165.713,382.173,167.662z"/>
															</g>
														</g>
													</g>
												</g>
											</g>
										</g>
									</g>
								</g>
							</g>
						</g>
					</g>
				</g>
			</g>
			<g>
				<g>
					<g>
						<g>
							<g>
								<g>
									<g>
										<g>
											<g>
												<g>
													<g>
														<g>
															<g>
																<path style="fill:#263238;" d="M418.978,164.837c0.132,1.949-1.41,3.667-3.442,3.842
																	c-2.029,0.175-3.784-1.259-3.916-3.209c-0.131-1.948,1.411-3.669,3.438-3.844
																	C417.092,161.451,418.847,162.888,418.978,164.837z"/>
															</g>
														</g>
													</g>
												</g>
											</g>
										</g>
									</g>
								</g>
							</g>
						</g>
					</g>
				</g>
			</g>
			<g>
				<g>
					<g>
						<g>
							<g>
								<g>
									<g>
										<g>
											<g>
												<g>
													<g>
														<g>
															<g>
																<g>
																	<path style="fill:#263238;" d="M427.146,150.223c-0.443,0.497-3.308-1.484-7.284-1.347
																		c-3.973,0.081-6.825,2.221-7.271,1.748c-0.22-0.209,0.22-1.093,1.46-2.06c1.221-0.961,3.326-1.925,5.803-1.995
																		c2.477-0.066,4.59,0.78,5.817,1.674C426.922,149.142,427.364,149.999,427.146,150.223z"/>
																</g>
															</g>
														</g>
													</g>
												</g>
											</g>
										</g>
									</g>
								</g>
							</g>
						</g>
					</g>
				</g>
			</g>
			<g>
				<g>
					<g>
						<g>
							<g>
								<g>
									<g>
										<g>
											<g>
												<g>
													<g>
														<g>
															<g>
																<g>
																	<path style="fill:#263238;" d="M387,153.945c-0.492,0.448-3.143-1.817-7.109-2.087
																		c-3.959-0.328-7.017,1.507-7.413,0.991c-0.195-0.231,0.327-1.065,1.665-1.899c1.313-0.832,3.505-1.574,5.976-1.389
																		c2.471,0.189,4.485,1.247,5.615,2.262C386.884,152.846,387.239,153.746,387,153.945z"/>
																</g>
															</g>
														</g>
													</g>
												</g>
											</g>
										</g>
									</g>
								</g>
							</g>
						</g>
					</g>
				</g>
			</g>
			<g>
				<g>
					<g>
						<g>
							<g>
								<g>
									<g>
										<g>
											<g>
												<g>
													<g>
														<g>
															<g>
																<path style="fill:#263238;" d="M403.208,181.626c-0.026-0.225,2.431-0.731,6.42-1.373
																	c1.012-0.138,1.966-0.37,2.115-1.068c0.215-0.742-0.244-1.822-0.774-2.987c-1.034-2.426-2.115-4.969-3.251-7.634
																	c-4.522-10.872-7.832-19.826-7.393-20.003c0.44-0.179,4.463,8.489,8.986,19.361c1.09,2.682,2.134,5.238,3.126,7.684
																	c0.422,1.142,1.124,2.429,0.655,3.968c-0.249,0.768-0.977,1.342-1.622,1.538c-0.644,0.22-1.215,0.249-1.717,0.295
																	C405.73,181.753,403.23,181.852,403.208,181.626z"/>
															</g>
														</g>
													</g>
												</g>
											</g>
										</g>
									</g>
								</g>
							</g>
						</g>
					</g>
				</g>
			</g>
			<g>
				<g>
					<g>
						<g>
							<g>
								<g>
									<g>
										<g>
											<g>
												<g>
													<g>
														<g>
															<path style="fill:#FF9A6C;" d="M407.467,228.584c0,0-19.34,1.873-38.912-9.05c0,0,10.342,19.631,39.088,16.007
																L407.467,228.584z"/>
														</g>
													</g>
												</g>
											</g>
										</g>
									</g>
								</g>
							</g>
						</g>
					</g>
				</g>
			</g>
			<g>
				<g>
					<g>
						<g>
							<g>
								<g>
									<g>
										<g>
											<g>
												<g>
													<g>
														<g>
															<path style="fill:#FF9A6C;" d="M401.835,191.262c-1.491-1.844-4.029-2.802-6.508-2.454
																c-1.719,0.242-3.436,1.13-4.439,2.568c-1.003,1.438-1.158,3.44-0.163,4.749c1.122,1.474,3.375,1.75,5.255,1.15
																c1.881-0.6,3.473-1.902,4.984-3.196c0.417-0.358,0.844-0.732,1.097-1.213c0.253-0.48,0.29-1.099-0.053-1.479"/>
														</g>
													</g>
												</g>
											</g>
										</g>
									</g>
								</g>
							</g>
						</g>
					</g>
				</g>
			</g>
			<g>
				<g>
					<g>
						<g>
							<g>
								<g>
									<g>
										<g>
											<g>
												<g>
													<g>
														<g>
															<g>
																<path style="fill:#263238;" d="M391.597,184.753c0.645-0.059,0.792,4.256,4.585,7.2
																	c3.785,2.955,8.37,2.322,8.423,2.924c0.069,0.269-0.998,0.872-2.937,0.986c-1.902,0.126-4.703-0.396-7.023-2.197
																	c-2.314-1.806-3.364-4.281-3.568-6.047C390.854,185.822,391.3,184.738,391.597,184.753z"/>
															</g>
														</g>
													</g>
												</g>
											</g>
										</g>
									</g>
								</g>
							</g>
						</g>
					</g>
				</g>
			</g>
			<g>
				<g>
					<g>
						<g>
							<g>
								<g>
									<g>
										<g>
											<g>
												<path style="fill:#263238;" d="M389.519,142.9c-0.467,1.051-4.393,0.263-9.087,0.498c-4.701,0.141-8.55,1.241-9.1,0.23
													c-0.243-0.483,0.482-1.451,2.073-2.39c1.577-0.938,4.047-1.761,6.864-1.876c2.816-0.11,5.344,0.513,6.992,1.321
													C388.921,141.492,389.722,142.399,389.519,142.9z"/>
											</g>
										</g>
									</g>
								</g>
							</g>
						</g>
					</g>
				</g>
			</g>
			<g>
				<g>
					<g>
						<g>
							<g>
								<g>
									<g>
										<g>
											<g>
												<path style="fill:#263238;" d="M424.583,131.084c-0.67,0.925-3.439,0.076-6.734,0.138
													c-3.296-0.054-6.063,0.802-6.735-0.122c-0.297-0.45,0.114-1.368,1.305-2.262c1.173-0.89,3.16-1.651,5.425-1.656
													c2.265-0.001,4.252,0.755,5.427,1.643C424.465,129.716,424.877,130.634,424.583,131.084z"/>
											</g>
										</g>
									</g>
								</g>
							</g>
						</g>
					</g>
				</g>
			</g>
			<g>
				<g>
					<g>
						<g>
							<g>
								<path style="fill:#263238;" d="M343.451,178.683c0,0,20.799,4.64,28.149-46.355c2.513-17.437,17.235-32.603,17.235-32.603
									l-6.594-1.405c0,0-39.061,14.562-39.692,15.122c-0.631,0.56-8.384,21.514-8.384,21.514L343.451,178.683z"/>
							</g>
						</g>
					</g>
				</g>
			</g>
			<g>
				<g>
					<g>
						<g>
							<g>
								<path style="fill:#FFBF9D;" d="M348.295,176.407c-0.074-2.145-2.717-7.123-4.846-7.385
									c-5.686-0.7-15.869,0.082-15.502,14.454c0.502,19.646,20.123,15.089,20.143,14.525
									C348.105,197.559,348.55,183.814,348.295,176.407z"/>
							</g>
						</g>
					</g>
				</g>
			</g>
			<g>
				<g>
					<g>
						<g>
							<g>
								<path style="fill:#FF9A6C;" d="M341.898,190.711c-0.088-0.061-0.336,0.248-0.908,0.528
									c-0.558,0.272-1.523,0.476-2.557,0.118c-2.095-0.708-3.927-3.959-4.113-7.497c-0.096-1.787,0.235-3.499,0.833-4.926
									c0.563-1.452,1.466-2.48,2.507-2.692c1.033-0.267,1.789,0.339,2.044,0.885c0.278,0.543,0.163,0.939,0.268,0.969
									c0.056,0.049,0.413-0.339,0.234-1.146c-0.091-0.389-0.333-0.847-0.805-1.213c-0.481-0.371-1.179-0.549-1.905-0.452
									c-1.513,0.144-2.84,1.573-3.497,3.138c-0.74,1.574-1.155,3.5-1.046,5.506c0.227,3.956,2.348,7.608,5.209,8.357
									c1.39,0.324,2.534-0.121,3.117-0.6C341.875,191.187,341.966,190.745,341.898,190.711z"/>
							</g>
						</g>
					</g>
				</g>
			</g>
			<g>
				<g>
					<g>
						<g>
							<g>
								<path style="fill:#263238;" d="M356.416,167.978c-0.013-0.065,1.073-0.158,2.881-0.833c1.798-0.667,4.285-2.083,6.63-4.615
									c1.165-1.265,2.29-2.791,3.281-4.553c0.969-1.774,1.805-3.782,2.484-5.959c1.384-4.355,2.089-9.357,3.04-14.568
									c0.953-5.214,2.046-10.153,3.328-14.57c1.26-4.423,2.741-8.304,4.185-11.468c1.451-3.162,2.861-5.606,3.912-7.24
									c0.514-0.825,0.97-1.428,1.258-1.85c0.297-0.417,0.459-0.63,0.474-0.62c0.015,0.011-0.119,0.244-0.387,0.679
									c-0.259,0.44-0.688,1.059-1.173,1.897c-0.995,1.661-2.348,4.12-3.748,7.285c-1.393,3.166-2.83,7.038-4.059,11.449
									c-1.251,4.404-2.326,9.329-3.276,14.532c-0.949,5.194-1.67,10.22-3.095,14.619c-0.699,2.198-1.561,4.227-2.564,6.025
									c-1.025,1.785-2.187,3.325-3.39,4.595c-2.42,2.544-4.985,3.937-6.829,4.553
									C357.511,167.961,356.416,167.978,356.416,167.978z"/>
							</g>
						</g>
					</g>
				</g>
			</g>
		</g>
		<g>
			<g>
				<g>
					<path style="fill:#455A64;" d="M305.143,329.222l38.552,93.603l-12.158,44.214h152.993c0,0-10.087-46.18-10.705-56.56
						c-0.618-10.379,0-69.637-4.945-89.971c-4.945-20.334-19.102-63.914-19.102-63.914l-41.642-6.612
						c-19.093,10.255-34.087,8.532-54.618-3.352l-37.748,18.55L305.143,329.222z"/>
				</g>
			</g>
			<g style="opacity:0.3;">
				<g>
					<g>
						<path d="M474.893,417.272l-117.354,11.628c8.459-0.18,14.968,6.98,22.292,11.217c13.56,7.844,30.448,5.649,45.923,3.216
							c12.822-2.017,25.644-4.033,38.466-6.05c3.236-0.509,6.683-1.117,9.068-3.363
							C477.562,429.895,476.392,422.948,474.893,417.272z"/>
					</g>
				</g>
			</g>
			<g>
				<g>
					<path style="fill:#FFBF9D;" d="M385.267,407.625l-19.651-18.974c-1.908-1.842-4.517-2.759-7.156-2.509
						c-5.609,0.53-15.114,1.517-17.069,2.277c-2.811,1.093-5.465,2.655-6.246,4.06c-0.781,1.405-3.435,9.837-3.591,11.086
						c-0.076,0.607,0.106,2.358,0.314,3.997c0.245,1.938,2.377,3.082,4.077,2.12c0.764-0.432,1.459-1.002,1.855-1.745
						c1.249-2.342,1.093-3.279,1.093-3.279s-0.625,8.432,6.246,8.588c0,0-3.165,7.183,5.678,10.149c0,0-0.327,4.684,7.069,5.309
						c7.396,0.625,14.11,0,14.11,0s13.52,9.711,23.044,10.335c9.525,0.625,30.851-3.538,30.851-3.538l2.574-39.28L385.267,407.625z"
						/>
				</g>
			</g>
			<g>
				<g>
					<g>
						<path style="fill:#FF9A6C;" d="M358.642,395.588c0.024,0.067-1.177,0.574-3.148,1.318c-1.973,0.738-4.719,1.721-7.836,2.55
							c-1.543,0.439-3.1,0.686-4.393,1.041c-1.315,0.352-2.106,1.336-2.678,2.196c-0.571,0.87-1.024,1.61-1.418,2.06
							c-0.387,0.457-0.66,0.65-0.68,0.628c-0.03-0.031,0.19-0.27,0.516-0.752c0.335-0.477,0.725-1.222,1.268-2.138
							c0.278-0.453,0.61-0.948,1.071-1.405c0.454-0.463,1.086-0.834,1.771-1.051c1.384-0.407,2.858-0.648,4.408-1.088
							c3.092-0.822,5.847-1.746,7.848-2.392C357.371,395.902,358.617,395.518,358.642,395.588z"/>
					</g>
				</g>
			</g>
			<g>
				<g>
					<g>
						<path style="fill:#FF9A6C;" d="M361.172,407.63c0.025,0.067-0.809,0.456-2.187,1.01c-1.378,0.554-3.302,1.269-5.451,1.988
							c-2.15,0.719-4.117,1.306-5.551,1.693c-1.434,0.387-2.334,0.578-2.354,0.51c-0.021-0.071,0.842-0.389,2.246-0.866
							c1.594-0.533,3.446-1.152,5.492-1.836c2.045-0.685,3.897-1.305,5.49-1.839C360.266,407.826,361.146,407.561,361.172,407.63z"
							/>
					</g>
				</g>
			</g>
			<g>
				<g>
					<g>
						<path style="fill:#FF9A6C;" d="M366.028,418.828c0.017,0.161-3.422,0.512-7.511,1.626c-4.097,1.093-7.245,2.517-7.312,2.37
							c-0.029-0.061,0.723-0.496,2.005-1.065c1.281-0.57,3.1-1.254,5.169-1.813c2.069-0.556,3.986-0.88,5.379-1.031
							C365.154,418.763,366.023,418.761,366.028,418.828z"/>
					</g>
				</g>
			</g>
			<g>
				<g>
					<path style="fill:#FFBF9D;" d="M411.542,437.994l86.941-15.1c0,0-10.241-42.542-25.525-42.542
						c-2.239,0-77.919,28.279-77.919,28.279L411.542,437.994z"/>
				</g>
			</g>
			<g>
				<g>
					<path style="fill:#455A64;" d="M448.754,256.524c0,0,12.639,2.698,21.643,21.091c8.895,18.17,43.312,98.26,44.655,111.694
						c1.344,13.434-9.556,31.518-19.057,34.018l-29.306-42.974l0.896-6.269l-24.533-81.817L448.754,256.524z"/>
				</g>
			</g>
			<g>
				<g>
					<g>
						<path style="fill:#FF9A6C;" d="M396.29,418.955c-0.055,0.051-0.819-0.681-2.045-1.871c-1.346-1.323-2.969-2.917-4.763-4.679
							c-1.85-1.84-3.501-3.533-4.659-4.794c-1.16-1.259-1.829-2.083-1.777-2.131c0.055-0.051,0.818,0.681,2.044,1.871
							c1.346,1.323,2.969,2.917,4.764,4.68c1.849,1.84,3.5,3.532,4.658,4.793C395.673,418.084,396.342,418.908,396.29,418.955z"/>
					</g>
				</g>
			</g>
			<g>
				<g>
					<g>
						<path style="fill:#263238;" d="M455.138,286.972c0.007-0.006,0.066,0.055,0.176,0.18c0.127,0.15,0.284,0.335,0.476,0.561
							c0.399,0.508,1.05,1.212,1.758,2.218c1.489,1.956,3.45,4.946,5.438,8.875c1.997,3.922,3.904,8.836,5.375,14.469
							c1.472,5.632,2.454,11.985,2.82,18.689c0.657,13.439-0.986,25.552-2.253,34.223c-0.653,4.343-1.247,7.846-1.669,10.264
							c-0.212,1.175-0.379,2.104-0.501,2.782c-0.058,0.291-0.105,0.528-0.144,0.721c-0.035,0.162-0.058,0.244-0.067,0.243
							c-0.009-0.001-0.004-0.087,0.014-0.251c0.025-0.195,0.055-0.435,0.092-0.73c0.099-0.682,0.233-1.616,0.404-2.798
							c0.361-2.473,0.873-5.976,1.503-10.285c1.172-8.678,2.75-20.768,2.096-34.143c-0.365-6.671-1.327-12.99-2.764-18.595
							c-1.437-5.607-3.295-10.503-5.239-14.425c-1.934-3.927-3.836-6.933-5.27-8.919c-0.68-1.021-1.304-1.743-1.675-2.272
							c-0.175-0.24-0.318-0.435-0.435-0.594C455.176,287.05,455.13,286.978,455.138,286.972z"/>
					</g>
				</g>
			</g>
			<g>
				<g>
					<g>
						<path style="fill:#263238;" d="M499.158,377.111c-0.012,0.035-0.439-0.078-1.202-0.309c-0.864-0.268-1.941-0.602-3.219-0.998
							c-2.715-0.821-6.494-1.965-10.792-2.378c-4.297-0.412-8.227,0.239-10.856,1.248c-2.652,0.986-4.042,2.12-4.102,2.025
							c-0.018-0.023,0.311-0.321,0.969-0.779c0.655-0.461,1.668-1.045,2.998-1.593c2.647-1.12,6.665-1.847,11.039-1.426
							c4.37,0.421,8.166,1.635,10.858,2.548c1.349,0.464,2.429,0.868,3.171,1.159C498.766,376.899,499.17,377.077,499.158,377.111z"
							/>
					</g>
				</g>
			</g>
			<g>
				<g>
					<g>
						<path style="fill:#263238;" d="M495.607,358.068c0.009,0.035-0.418,0.195-1.196,0.453c-0.781,0.249-1.899,0.646-3.262,1.175
							c-2.728,1.053-6.402,2.771-10.135,5.216c-3.728,2.455-6.765,5.145-8.815,7.229c-1.027,1.041-1.836,1.909-2.374,2.526
							c-0.546,0.612-0.862,0.94-0.89,0.917c-0.029-0.022,0.233-0.394,0.733-1.049c0.492-0.66,1.263-1.571,2.263-2.653
							c1.995-2.166,5.028-4.931,8.794-7.412c3.772-2.47,7.514-4.154,10.294-5.124c1.39-0.488,2.532-0.833,3.334-1.023
							C495.152,358.125,495.598,358.033,495.607,358.068z"/>
					</g>
				</g>
			</g>
			<g style="opacity:0.3;">
				<g>
					<g>
						<path d="M465.639,305.923c6.954,18.037,8.919,37.968,5.623,57.016c5.248-1.96,10.495-3.92,15.743-5.88
							c-4.289,5.925-9.924,10.868-16.357,14.349c4.245-1.227,8.595-2.467,13.005-2.179c4.41,0.288,8.966,2.413,10.95,6.361
							c-5.146-0.94-10.385-1.883-15.581-1.277c-5.196,0.607-10.439,3.006-13.235,7.428c3.881-16.751,5.375-34.053,4.423-51.221"/>
					</g>
				</g>
			</g>
		</g>
		<g>
			<g>
				<path style="fill:#263238;" d="M363.533,262.031c-7.345-15.617-15.56-31.909-14.294-49.121
					c-8.148,2.628-13.306,12.237-10.994,20.48l-5.92,15.807c3.695,25.527,19.222,49.093,41.22,62.561
					C377.699,295.008,370.877,277.649,363.533,262.031z"/>
			</g>
		</g>
		<g>
			<g>
				<g>
					<g>
						<path style="fill:#455A64;" d="M317.549,264.031c0,0-29.197,17.031-21.635,48.373c8.521,35.321,87.132,88.081,87.132,88.081
							c-3.691-21.83-0.818-42.711,11.138-62.278l-40.702-37.711"/>
					</g>
				</g>
				<g>
					<g>
						<g>
							<path style="fill:#263238;" d="M353.482,300.496c0,0,0.261,0.214,0.748,0.652c0.497,0.451,1.214,1.103,2.15,1.952
								c1.89,1.734,4.652,4.268,8.191,7.515c7.088,6.538,17.28,15.939,29.751,27.443l0.122,0.112l-0.086,0.143
								c-4.712,7.797-8.828,17.168-10.911,27.81c-2.129,10.62-2.175,22.379-0.146,34.319l0.102,0.598l-0.499-0.341
								c-8.287-5.653-16.679-11.823-25.103-18.379c-16.451-12.878-31.515-26.036-43.545-39.616
								c-1.529-1.673-2.923-3.427-4.351-5.111c-1.344-1.753-2.747-3.424-3.968-5.194c-2.558-3.452-4.754-7.019-6.609-10.604
								c-3.817-7.158-5.125-14.862-4.774-21.703c0.359-6.889,2.536-12.895,5.201-17.633c2.679-4.761,5.769-8.363,8.486-11.057
								c2.723-2.704,5.089-4.528,6.727-5.702c0.821-0.586,1.468-1.004,1.905-1.278c0.439-0.272,0.677-0.391,0.677-0.391
								s-0.219,0.149-0.648,0.436c-0.427,0.289-1.063,0.721-1.872,1.319c-1.614,1.199-3.953,3.045-6.644,5.761
								c-2.685,2.707-5.738,6.312-8.374,11.056c-2.623,4.721-4.754,10.684-5.087,17.509c-0.321,6.787,0.989,14.397,4.791,21.486
								c1.85,3.554,4.041,7.097,6.595,10.531c1.218,1.76,2.62,3.423,3.962,5.167c1.427,1.677,2.819,3.422,4.346,5.089
								c12.017,13.525,27.072,26.658,43.505,39.522c8.413,6.548,16.802,12.719,25.066,18.366l-0.398,0.257
								c-2.03-11.994-1.97-23.82,0.189-34.497c2.113-10.7,6.273-20.113,11.029-27.93l0.035,0.255
								c-12.421-11.559-22.571-21.005-29.63-27.574c-3.507-3.282-6.243-5.842-8.117-7.595c-0.918-0.868-1.622-1.534-2.11-1.995
								C353.715,300.74,353.482,300.496,353.482,300.496z"/>
						</g>
					</g>
				</g>
			</g>
			<g>
				<g>
					<path style="fill:#FFBF9D;" d="M383.046,399.321c0,0,18.397,15.009,37.238,6.061c3.012-1.431,6.801-5.181,9.083-11.438
						c11.994-32.877,13.402-119.671,13.402-119.671l-32.871-2.225l-15.715,66.159C382.888,354.415,379.334,374.874,383.046,399.321z
						"/>
				</g>
			</g>
			<g>
				<g>
					<g>
						<path style="fill:#FF9A6C;" d="M433.749,378.421c0.018,0.003-0.005,0.219-0.064,0.627c-0.062,0.408-0.15,1.01-0.297,1.779
							c-0.277,1.541-0.729,3.766-1.475,6.471c-0.747,2.7-1.805,5.894-3.515,9.206c-1.692,3.284-4.183,6.761-7.906,9.054
							c-3.752,2.203-7.938,2.991-11.65,2.987c-3.736,0.02-7.06-0.64-9.748-1.447c-2.692-0.811-4.784-1.725-6.171-2.458
							c-0.709-0.336-1.218-0.677-1.578-0.877c-0.355-0.211-0.536-0.329-0.527-0.345c0.024-0.043,0.783,0.375,2.195,1.037
							c1.407,0.672,3.505,1.527,6.184,2.285c2.675,0.754,5.966,1.366,9.64,1.32c3.653-0.022,7.739-0.813,11.384-2.953
							c3.599-2.216,6.055-5.598,7.747-8.828c1.71-3.255,2.798-6.411,3.587-9.083c0.788-2.677,1.293-4.883,1.632-6.409
							c0.161-0.719,0.291-1.301,0.393-1.758C433.674,378.628,433.731,378.418,433.749,378.421z"/>
					</g>
				</g>
			</g>
			<g>
				<g>
					<g>
						<path style="fill:#263238;" d="M393.129,338.684c0.021,0.117-2.109,0.205-5.241,1.434c-3.13,1.19-7.124,3.738-10.586,7.522
							c-3.464,3.789-5.878,7.811-7.608,10.7c-0.817,1.391-1.498,2.549-2.026,3.449c-0.482,0.813-0.763,1.255-0.795,1.238
							c-0.032-0.017,0.188-0.493,0.615-1.337c0.427-0.844,1.061-2.056,1.883-3.536c1.651-2.942,4.031-7.027,7.543-10.871
							c3.514-3.843,7.625-6.395,10.842-7.514c1.604-0.576,2.959-0.868,3.901-0.986c0.468-0.079,0.84-0.083,1.089-0.105
							C392.996,338.664,393.127,338.666,393.129,338.684z"/>
					</g>
				</g>
			</g>
			<g>
				<g>
					<g>
						<path style="fill:#FFBF9D;" d="M411.096,263.435c-0.727-2.425-4.823-24.826-6.488-30.035
							c-2.349-7.349-21.444-20.49-21.444-20.49s2.994-6.898,11.124-3.313c9.625,4.245,14.383,11.391,16.807,9.936
							c2.425-1.455,17.544-16.845,21.666-16.36c4.122,0.485,5.027,4.714,3.573,6.412c-1.455,1.697-3.088,4.5-3.088,4.5
							s8.729-2.627,7.032,6.931c0,0,9.942-6.204,8.972,6.89c0,0,6.547-2.667,8.002,1.94c1.455,4.607-2.86,9.942-5.042,13.579
							c-2.182,3.637-9.264,24.733-9.264,24.733l-0.818,12.902l-34.027-1.447L411.096,263.435z"/>
					</g>
				</g>
				<g>
					<g>
						<g>
							<path style="fill:#FF9A6C;" d="M442.582,282.293c0,0-0.014-0.314-0.009-0.927c0.009-0.632,0.022-1.538,0.039-2.721
								c0.049-2.413,0.12-5.942,0.212-10.489l0-0.018l0.006-0.018c1.784-5.29,4.063-12.156,7.15-20.144
								c0.802-1.965,1.585-4.113,2.912-6.012c1.237-1.935,2.563-3.914,3.508-6.146c0.464-1.113,0.827-2.298,0.904-3.523
								c0.071-1.208-0.136-2.51-0.839-3.502c-0.148-0.272-0.417-0.435-0.624-0.656c-0.267-0.147-0.506-0.347-0.808-0.433
								c-0.569-0.246-1.214-0.317-1.852-0.331c-1.285-0.006-2.608,0.288-3.842,0.749l-0.342,0.128l0.023-0.36
								c0.079-1.23,0.097-2.485-0.074-3.725c-0.171-1.224-0.542-2.496-1.408-3.374c-0.855-0.902-2.203-1.138-3.465-0.929
								c-1.271,0.194-2.531,0.703-3.663,1.365l-0.435,0.254l0.061-0.507c0.059-0.488,0.118-0.981,0.178-1.478
								c0.033-0.496-0.002-0.995,0.002-1.498c-0.139-0.979-0.398-1.983-1.073-2.72c-0.663-0.741-1.667-1.118-2.694-1.223
								c-1.029-0.101-2.118,0.002-3.128,0.275l-0.614,0.166l0.319-0.54c0.6-1.013,1.233-2.007,1.92-2.985
								c0.345-0.488,0.703-0.97,1.093-1.436c0.374-0.427,0.582-0.922,0.651-1.485c0.129-1.107-0.234-2.303-1.005-3.149
								c-0.743-0.87-1.896-1.37-3.045-1.468c-0.529-0.014-1.114,0.179-1.657,0.428c-0.549,0.247-1.085,0.543-1.608,0.865
								c-1.049,0.644-2.061,1.37-3.058,2.126c-1.993,1.515-3.922,3.158-5.844,4.835c-1.499,1.338-2.99,2.669-4.472,3.991
								c-1.49,1.322-2.908,2.676-4.497,3.896c-0.385,0.323-1.055,0.538-1.588,0.365c-0.542-0.132-0.972-0.424-1.382-0.709
								c-0.81-0.59-1.518-1.256-2.239-1.901c-1.427-1.301-2.861-2.558-4.375-3.686c-1.512-1.129-3.092-2.139-4.728-3.009
								c-1.629-0.885-3.328-1.587-5.094-1.881c-1.756-0.296-3.582-0.11-5.132,0.68c-1.53,0.798-2.818,2.088-3.581,3.578
								l-0.085-0.305c5.334,3.706,10.252,7.517,14.538,11.55c2.122,2.03,4.123,4.102,5.645,6.444
								c0.363,0.597,0.751,1.172,0.984,1.833c0.126,0.321,0.288,0.634,0.381,0.959l0.273,0.973c0.333,1.294,0.631,2.57,0.91,3.824
								c2.212,10.029,3.701,18.617,5.188,25.107l0.008,0.036l-0.005,0.026c-0.992,5.213-1.76,9.249-2.284,12.002
								c-0.265,1.352-0.468,2.386-0.608,3.103c-0.141,0.697-0.23,1.05-0.23,1.05s0.043-0.361,0.161-1.063
								c0.125-0.72,0.306-1.758,0.543-3.115c0.496-2.758,1.224-6.802,2.163-12.025l0.003,0.061
								c-1.549-6.523-3.076-15.078-5.326-25.095c-0.629-2.473-0.98-5.194-2.52-7.448c-1.492-2.282-3.483-4.336-5.596-6.346
								c-4.267-3.995-9.188-7.792-14.503-11.471l-0.178-0.123l0.093-0.182c0.831-1.625,2.163-2.951,3.8-3.817
								c1.651-0.846,3.601-1.044,5.437-0.736c1.844,0.303,3.612,1.037,5.255,1.928c1.66,0.88,3.264,1.903,4.797,3.046
								c1.534,1.141,2.988,2.414,4.415,3.714c0.718,0.643,1.428,1.306,2.194,1.862c0.756,0.56,1.655,0.981,2.36,0.342
								c1.522-1.17,2.969-2.546,4.449-3.861c1.483-1.324,2.976-2.657,4.477-3.997c1.927-1.681,3.863-3.33,5.873-4.857
								c1.006-0.762,2.029-1.496,3.103-2.155c0.536-0.329,1.089-0.635,1.669-0.896c0.578-0.257,1.196-0.486,1.902-0.47
								c1.286,0.109,2.555,0.662,3.403,1.646c0.866,0.96,1.276,2.286,1.128,3.559c-0.068,0.631-0.349,1.281-0.769,1.751
								c-0.376,0.449-0.729,0.922-1.068,1.401c-0.677,0.96-1.309,1.95-1.899,2.945l-0.294-0.373c1.1-0.295,2.213-0.398,3.331-0.29
								c1.102,0.112,2.243,0.531,3.009,1.386c0.777,0.853,1.054,1.965,1.199,3.015c-0.002,0.529,0.032,1.059-0.003,1.577
								c-0.063,0.514-0.125,1.024-0.187,1.53l-0.374-0.253c1.207-0.701,2.488-1.218,3.855-1.428c0.68-0.098,1.385-0.107,2.068,0.055
								c0.681,0.164,1.321,0.52,1.807,1.017c0.984,1.01,1.357,2.375,1.535,3.647c0.174,1.292,0.152,2.573,0.069,3.826l-0.319-0.232
								c1.307-0.484,2.651-0.78,4.023-0.773c0.68,0.017,1.375,0.093,2.014,0.368c0.333,0.099,0.612,0.322,0.91,0.493
								c0.241,0.247,0.542,0.444,0.711,0.748c0.795,1.136,0.989,2.514,0.915,3.794c-0.086,1.294-0.468,2.519-0.947,3.658
								c-0.975,2.283-2.321,4.271-3.563,6.198c-1.324,1.882-2.081,3.956-2.902,5.934c-3.115,7.958-5.436,14.814-7.263,20.084
								l0.006-0.035c-0.142,4.545-0.253,8.074-0.328,10.486c-0.044,1.183-0.078,2.088-0.101,2.72
								C442.612,281.981,442.582,282.293,442.582,282.293z"/>
						</g>
					</g>
				</g>
				<g>
					<g>
						<g>
							<path style="fill:#FF9A6C;" d="M433.216,214.328c0.093,0.118-1.87,1.796-4.219,3.936c-2.354,2.137-4.21,3.931-4.319,3.828
								c-0.103-0.096,1.594-2.065,3.965-4.217C431.009,215.719,433.131,214.217,433.216,214.328z"/>
						</g>
					</g>
				</g>
				<g>
					<g>
						<g>
							<path style="fill:#FF9A6C;" d="M440.99,220.494c0.125,0.052-0.621,1.933-2.142,3.884c-1.512,1.96-3.147,3.149-3.229,3.041
								c-0.102-0.118,1.342-1.456,2.813-3.364C439.913,222.157,440.85,220.425,440.99,220.494z"/>
						</g>
					</g>
				</g>
				<g>
					<g>
						<g>
							<path style="fill:#FF9A6C;" d="M449.117,227.428c0.118,0.085-0.7,1.42-1.826,2.982c-1.127,1.562-2.136,2.759-2.254,2.674
								c-0.118-0.085,0.7-1.42,1.827-2.982C447.99,228.54,448.999,227.343,449.117,227.428z"/>
						</g>
					</g>
				</g>
			</g>
		</g>
	</g>
</g>
</svg>
