<?xml version="1.0" encoding="utf-8"?>
<!-- Generator: Adobe Illustrator 27.5.0, SVG Export Plug-In . SVG Version: 6.00 Build 0)  -->
<svg version="1.1" id="Ñëîé_1" xmlns="http://www.w3.org/2000/svg" xmlns:xlink="http://www.w3.org/1999/xlink" x="0px" y="0px"
	 viewBox="0 0 2496.146 2200" style="enable-background:new 0 0 2496.146 2200;" xml:space="preserve">
<rect style="fill:#FFFFFF;" width="2496.146" height="2200"/>
<g>
	<path style="fill:#322A28;" d="M822.482,346.608c0,5.798-0.876,11.137-2.623,16.013c-1.749,4.879-4.348,9.112-7.799,12.701
		c-3.451,3.589-7.754,6.397-12.907,8.421c-5.155,2.023-11.091,3.037-17.808,3.037c-6.812,0-12.794-1.014-17.946-3.037
		c-5.155-2.024-9.456-4.832-12.907-8.421c-3.451-3.589-6.053-7.821-7.8-12.701c-1.749-4.876-2.623-10.215-2.623-16.013v-60.05
		h21.536v59.222c0,3.038,0.483,5.845,1.449,8.421c0.966,2.578,2.323,4.81,4.073,6.696c1.746,1.887,3.841,3.361,6.281,4.417
		c2.437,1.059,5.084,1.588,7.938,1.588c2.851,0,5.474-0.528,7.868-1.588c2.392-1.056,4.463-2.53,6.212-4.417
		c1.747-1.886,3.106-4.118,4.073-6.696c0.966-2.576,1.449-5.383,1.449-8.421v-59.222h21.535V346.608z"/>
	<path style="fill:#322A28;" d="M842.084,286.558h21.536v97.737h-21.536V286.558z"/>
	<path style="fill:#322A28;" d="M914.144,279.242l15.737,4.831l-41.414,107.538l-15.599-4.831L914.144,279.242z"/>
	<path style="fill:#322A28;" d="M1021.819,346.608c0,5.798-0.876,11.137-2.623,16.013c-1.749,4.879-4.348,9.112-7.799,12.701
		c-3.451,3.589-7.754,6.397-12.907,8.421c-5.155,2.023-11.091,3.037-17.808,3.037c-6.812,0-12.794-1.014-17.946-3.037
		c-5.155-2.024-9.456-4.832-12.907-8.421c-3.451-3.589-6.053-7.821-7.8-12.701c-1.749-4.876-2.623-10.215-2.623-16.013v-60.05
		h21.536v59.222c0,3.038,0.483,5.845,1.449,8.421c0.966,2.578,2.323,4.81,4.073,6.696c1.746,1.887,3.841,3.361,6.281,4.417
		c2.437,1.059,5.084,1.588,7.938,1.588c2.851,0,5.474-0.528,7.868-1.588c2.392-1.056,4.463-2.53,6.212-4.417
		c1.747-1.886,3.106-4.118,4.073-6.696c0.966-2.576,1.449-5.383,1.449-8.421v-59.222h21.535V346.608z"/>
	<path style="fill:#322A28;" d="M1065.995,333.218l-32.302-46.66h27.057l20.845,34.235l20.017-34.235h26.091l-31.613,46.245
		l35.34,51.492h-27.058l-23.882-39.344l-23.192,39.344h-25.539L1065.995,333.218z"/>
	<path style="fill:#322A28;" d="M1182.226,286.558h32.303c7.82,0,15.254,0.875,22.294,2.623c7.04,1.749,13.183,4.579,18.429,8.49
		c5.246,3.912,9.409,8.996,12.494,15.254c3.082,6.26,4.624,13.852,4.624,22.777c0,7.917-1.497,14.887-4.486,20.914
		c-2.991,6.029-7.019,11.091-12.079,15.185c-5.063,4.097-10.906,7.203-17.531,9.318c-6.626,2.119-13.576,3.175-20.845,3.175h-35.203
		V286.558z M1203.762,364.416h11.181c4.969,0,9.595-0.504,13.873-1.518c4.28-1.011,7.983-2.692,11.113-5.039
		c3.128-2.347,5.591-5.428,7.385-9.249c1.794-3.818,2.692-8.489,2.692-14.011c0-4.785-0.898-8.95-2.692-12.494
		c-1.794-3.542-4.21-6.465-7.247-8.766c-3.037-2.299-6.605-4.025-10.699-5.176c-4.096-1.15-8.399-1.725-12.907-1.725h-12.699
		V364.416z"/>
	<path style="fill:#322A28;" d="M1347.88,372.699c-3.313,4.234-7.502,7.502-12.562,9.801c-5.063,2.3-10.308,3.451-15.737,3.451
		c-5.155,0-10.008-0.828-14.564-2.485s-8.514-4.025-11.872-7.109c-3.361-3.082-6.005-6.786-7.938-11.113
		c-1.933-4.325-2.899-9.156-2.899-14.495c0-5.336,0.966-10.168,2.899-14.495c1.933-4.324,4.577-8.028,7.938-11.112
		c3.358-3.083,7.316-5.453,11.872-7.109c4.556-1.657,9.409-2.485,14.564-2.485c4.784,0,9.132,0.828,13.045,2.485
		c3.911,1.656,7.224,4.027,9.939,7.109c2.714,3.084,4.808,6.788,6.282,11.112c1.47,4.327,2.208,9.159,2.208,14.495v6.489h-48.041
		c0.828,3.957,2.624,7.109,5.384,9.456c2.761,2.347,6.165,3.52,10.215,3.52c3.404,0,6.281-0.759,8.629-2.278
		c2.347-1.518,4.393-3.472,6.142-5.867L1347.88,372.699z M1330.348,343.157c0.09-3.496-1.059-6.488-3.451-8.973
		c-2.395-2.484-5.477-3.727-9.249-3.727c-2.302,0-4.327,0.369-6.074,1.105c-1.749,0.738-3.244,1.681-4.487,2.83
		c-1.242,1.153-2.209,2.485-2.899,4.004c-0.69,1.518-1.082,3.106-1.174,4.763H1330.348z"/>
	<path style="fill:#322A28;" d="M1401.579,336.945c-3.037-3.773-7.04-5.66-12.01-5.66c-1.749,0-3.451,0.415-5.108,1.242
		c-1.657,0.829-2.484,2.256-2.484,4.28c0,1.657,0.849,2.878,2.553,3.658c1.702,0.783,3.865,1.474,6.488,2.071
		c2.623,0.6,5.429,1.243,8.421,1.933c2.99,0.691,5.798,1.773,8.421,3.244c2.623,1.473,4.785,3.474,6.489,6.005
		c1.701,2.532,2.554,5.914,2.554,10.147c0,4.327-0.945,7.892-2.83,10.698c-1.888,2.809-4.304,5.062-7.248,6.764
		c-2.946,1.704-6.26,2.899-9.939,3.59c-3.682,0.69-7.316,1.035-10.906,1.035c-4.693,0-9.434-0.669-14.219-2.002
		c-4.786-1.333-8.834-3.703-12.148-7.109l12.563-13.943c1.932,2.395,4.072,4.21,6.419,5.453c2.347,1.242,5.084,1.863,8.214,1.863
		c2.392,0,4.556-0.345,6.489-1.035c1.932-0.69,2.899-1.954,2.899-3.796c0-1.747-0.853-3.059-2.555-3.934
		c-1.704-0.874-3.865-1.61-6.488-2.209c-2.623-0.597-5.431-1.242-8.421-1.933c-2.992-0.69-5.798-1.725-8.421-3.106
		c-2.623-1.381-4.787-3.335-6.489-5.867c-1.704-2.53-2.554-5.911-2.554-10.146c0-3.955,0.804-7.361,2.416-10.215
		c1.609-2.852,3.727-5.199,6.35-7.041c2.623-1.84,5.636-3.196,9.042-4.072c3.403-0.874,6.854-1.311,10.353-1.311
		c4.417,0,8.881,0.645,13.39,1.933c4.509,1.289,8.328,3.589,11.458,6.902L1401.579,336.945z"/>
	<path style="fill:#322A28;" d="M1426.15,296.083c0-3.314,1.174-6.143,3.521-8.49s5.176-3.521,8.49-3.521
		c3.313,0,6.143,1.174,8.49,3.521s3.52,5.177,3.52,8.49c0,3.313-1.173,6.142-3.52,8.49c-2.347,2.347-5.177,3.52-8.49,3.52
		c-3.314,0-6.143-1.173-8.49-3.52C1427.324,302.226,1426.15,299.396,1426.15,296.083z M1427.807,317.205h20.708v67.09h-20.708
		V317.205z"/>
	<path style="fill:#322A28;" d="M1533.826,378.634c0,12.7-3.199,22.34-9.595,28.921c-6.397,6.578-16.13,9.87-29.197,9.87
		c-5.984,0-11.872-0.669-17.67-2.001c-5.798-1.336-11.136-3.934-16.013-7.8l11.458-17.118c3.22,2.669,6.602,4.785,10.146,6.35
		c3.542,1.564,7.431,2.347,11.665,2.347c6.35,0,11.02-1.541,14.012-4.624c2.99-3.085,4.487-7.019,4.487-11.803v-6.489h-0.276
		c-2.395,3.223-5.362,5.501-8.905,6.833c-3.544,1.333-6.88,2.002-10.008,2.002c-4.97,0-9.479-0.849-13.528-2.553
		c-4.051-1.702-7.524-4.094-10.423-7.179c-2.899-3.083-5.131-6.741-6.695-10.975c-1.566-4.232-2.347-8.88-2.347-13.943
		c0-4.417,0.711-8.742,2.14-12.976c1.425-4.233,3.45-7.96,6.073-11.182c2.624-3.22,5.82-5.819,9.595-7.799
		c3.773-1.978,8.052-2.968,12.838-2.968c2.944,0,5.636,0.323,8.076,0.966c2.437,0.646,4.624,1.473,6.557,2.485
		c1.932,1.013,3.589,2.14,4.97,3.382c1.381,1.242,2.485,2.463,3.313,3.658h0.276v-8.835h19.051V378.634z M1481.645,350.336
		c0,2.209,0.414,4.303,1.242,6.281c0.828,1.98,2.002,3.727,3.521,5.246c1.518,1.518,3.266,2.739,5.246,3.658
		c1.978,0.922,4.163,1.381,6.557,1.381c2.3,0,4.464-0.459,6.489-1.381c2.022-0.919,3.796-2.14,5.314-3.658
		c1.519-1.518,2.692-3.266,3.521-5.246c0.828-1.978,1.242-4.072,1.242-6.281c0-2.209-0.414-4.301-1.242-6.281
		c-0.828-1.978-2.001-3.727-3.521-5.246c-1.518-1.519-3.292-2.737-5.314-3.658c-2.025-0.919-4.189-1.381-6.489-1.381
		c-2.394,0-4.579,0.462-6.557,1.381c-1.98,0.921-3.727,2.139-5.246,3.658c-1.518,1.518-2.692,3.267-3.521,5.246
		C1482.058,346.035,1481.645,348.126,1481.645,350.336z"/>
	<path style="fill:#322A28;" d="M1550.39,317.205h19.879v9.111h0.276c0.643-1.287,1.563-2.576,2.76-3.865
		c1.195-1.288,2.623-2.438,4.28-3.451c1.657-1.012,3.542-1.84,5.66-2.485c2.116-0.643,4.417-0.966,6.901-0.966
		c5.246,0,9.478,0.806,12.701,2.416c3.22,1.611,5.729,3.844,7.524,6.695c1.794,2.854,3.013,6.213,3.658,10.078
		c0.643,3.865,0.966,8.054,0.966,12.562v36.997h-20.707V351.44c0-1.933-0.069-3.934-0.208-6.006
		c-0.138-2.071-0.552-3.979-1.242-5.729c-0.69-1.747-1.749-3.175-3.175-4.28c-1.428-1.104-3.474-1.656-6.143-1.656
		c-2.67,0-4.831,0.483-6.488,1.449c-1.657,0.967-2.923,2.256-3.796,3.866c-0.876,1.611-1.45,3.429-1.726,5.453
		c-0.276,2.025-0.414,4.141-0.414,6.35v33.407h-20.708V317.205z"/>
	<path style="fill:#322A28;" d="M1693.129,372.699c-3.313,4.234-7.502,7.502-12.562,9.801c-5.063,2.3-10.309,3.451-15.737,3.451
		c-5.155,0-10.008-0.828-14.564-2.485s-8.514-4.025-11.872-7.109c-3.361-3.082-6.005-6.786-7.938-11.113
		c-1.933-4.325-2.899-9.156-2.899-14.495c0-5.336,0.966-10.168,2.899-14.495c1.933-4.324,4.577-8.028,7.938-11.112
		c3.358-3.083,7.316-5.453,11.872-7.109c4.556-1.657,9.409-2.485,14.564-2.485c4.784,0,9.132,0.828,13.045,2.485
		c3.911,1.656,7.224,4.027,9.939,7.109c2.714,3.084,4.808,6.788,6.282,11.112c1.47,4.327,2.208,9.159,2.208,14.495v6.489h-48.041
		c0.828,3.957,2.624,7.109,5.384,9.456c2.761,2.347,6.165,3.52,10.215,3.52c3.404,0,6.281-0.759,8.629-2.278
		c2.347-1.518,4.393-3.472,6.142-5.867L1693.129,372.699z M1675.597,343.157c0.091-3.496-1.059-6.488-3.451-8.973
		c-2.395-2.484-5.477-3.727-9.249-3.727c-2.302,0-4.327,0.369-6.074,1.105c-1.749,0.738-3.244,1.681-4.487,2.83
		c-1.242,1.153-2.209,2.485-2.899,4.004c-0.69,1.518-1.082,3.106-1.174,4.763H1675.597z"/>
	<path style="fill:#322A28;" d="M1708.865,317.205h20.707v10.768h0.276c2.208-4.142,4.831-7.248,7.869-9.319
		c3.036-2.071,6.854-3.106,11.457-3.106c1.195,0,2.392,0.047,3.59,0.138c1.195,0.093,2.299,0.276,3.313,0.552v18.913
		c-1.473-0.46-2.923-0.805-4.348-1.036c-1.429-0.228-2.923-0.345-4.487-0.345c-3.958,0-7.088,0.552-9.388,1.656
		c-2.302,1.105-4.072,2.647-5.315,4.625c-1.242,1.98-2.048,4.348-2.415,7.109c-0.37,2.76-0.552,5.798-0.552,9.111v28.024h-20.707
		V317.205z"/>
</g>
<g>
	<path style="fill:#E5F0F8;" d="M1898.557,1996.529c0,0,568.538-1563.568-474.791-1457.731
		c-446.864,45.331-363.443,320.341-560.803,577.656c-127.927,166.789-373.968,30.345-466.17,176.091s16.15,561.319,54.158,703.984
		H1898.557z"/>
	<g>
		<rect x="482.819" y="753.207" style="fill:#BBDBF3;" width="1585.652" height="1159.983"/>
		<rect x="497.548" y="767.906" style="fill:#FFFFFF;" width="1556.226" height="1130.558"/>
		<rect x="497.532" y="767.918" style="fill:#BBDBF3;" width="1556.228" height="106.548"/>
		<g>
			
				<line style="fill:none;stroke:#FFFFFF;stroke-width:9.8294;stroke-linecap:round;stroke-linejoin:round;stroke-miterlimit:10;" x1="1955.388" y1="851.839" x2="2016.683" y2="790.544"/>
			
				<line style="fill:none;stroke:#FFFFFF;stroke-width:9.8294;stroke-linecap:round;stroke-linejoin:round;stroke-miterlimit:10;" x1="2016.683" y1="851.839" x2="1955.388" y2="790.544"/>
		</g>
		<g>
			<g>
				<polyline style="fill:none;stroke:#BBDBF3;stroke-width:3.4922;stroke-linecap:round;stroke-linejoin:round;" points="
					1275.646,1166.361 1275.646,1176.837 1265.17,1176.837 				"/>
				
					<line style="fill:none;stroke:#BBDBF3;stroke-width:3.4922;stroke-linecap:round;stroke-linejoin:round;stroke-dasharray:21.1812,21.1812;" x1="1243.988" y1="1176.837" x2="576.779" y2="1176.837"/>
				<polyline style="fill:none;stroke:#BBDBF3;stroke-width:3.4922;stroke-linecap:round;stroke-linejoin:round;" points="
					566.189,1176.837 555.712,1176.837 555.712,1166.361 				"/>
				
					<line style="fill:none;stroke:#BBDBF3;stroke-width:3.4922;stroke-linecap:round;stroke-linejoin:round;stroke-dasharray:23.1948,23.1948;" x1="555.712" y1="1143.166" x2="555.712" y2="1108.374"/>
				<polyline style="fill:none;stroke:#BBDBF3;stroke-width:3.4922;stroke-linecap:round;stroke-linejoin:round;" points="
					555.712,1096.776 555.712,1086.3 566.189,1086.3 				"/>
				
					<line style="fill:none;stroke:#BBDBF3;stroke-width:3.4922;stroke-linecap:round;stroke-linejoin:round;stroke-dasharray:21.1812,21.1812;" x1="587.37" y1="1086.3" x2="1254.579" y2="1086.3"/>
				<polyline style="fill:none;stroke:#BBDBF3;stroke-width:3.4922;stroke-linecap:round;stroke-linejoin:round;" points="
					1265.17,1086.3 1275.646,1086.3 1275.646,1096.776 				"/>
				
					<line style="fill:none;stroke:#BBDBF3;stroke-width:3.4922;stroke-linecap:round;stroke-linejoin:round;stroke-dasharray:23.1948,23.1948;" x1="1275.646" y1="1119.971" x2="1275.646" y2="1154.763"/>
			</g>
		</g>
		<rect x="555.712" y="927.817" style="fill:#E5F0F8;" width="170.062" height="25.614"/>
		<rect x="782.578" y="927.817" style="fill:#E5F0F8;" width="170.062" height="25.614"/>
		<rect x="1009.444" y="927.817" style="fill:#E5F0F8;" width="170.062" height="25.614"/>
		<rect x="1236.311" y="927.817" style="fill:#E5F0F8;" width="170.062" height="25.614"/>
		<rect x="1463.177" y="927.817" style="fill:#E5F0F8;" width="170.062" height="25.614"/>
		<rect x="1837.693" y="907.806" style="fill:#BBDBF3;" width="157.8" height="65.636"/>
		<g>
			<rect x="555.726" y="1722.776" style="fill:#E5F0F8;" width="289.127" height="175.688"/>
			<rect x="566.717" y="1734.378" style="fill:#FFFFFF;" width="267.145" height="164.086"/>
			<polygon style="fill:#E5F0F8;" points="642.231,1849.852 681.513,1898.464 602.167,1898.464 			"/>
			<polygon style="fill:#E5F0F8;" points="815.849,1898.464 705.396,1898.464 770.155,1789.198 			"/>
			
				<ellipse transform="matrix(0.7071 -0.7071 0.7071 0.7071 -1056.5309 1017.7574)" style="fill:#E5F0F8;" cx="700.276" cy="1784.224" rx="13.521" ry="13.521"/>
		</g>
		<g>
			<rect x="1706.367" y="1722.776" style="fill:#E5F0F8;" width="289.127" height="175.688"/>
			<rect x="1717.358" y="1734.378" style="fill:#FFFFFF;" width="267.145" height="164.086"/>
			<polygon style="fill:#E5F0F8;" points="1792.871,1849.852 1832.154,1898.464 1752.808,1898.464 			"/>
			<polygon style="fill:#E5F0F8;" points="1966.49,1898.464 1856.036,1898.464 1920.795,1789.198 			"/>
			
				<ellipse transform="matrix(0.9239 -0.3827 0.3827 0.9239 -541.8998 844.1374)" style="fill:#E5F0F8;" cx="1850.93" cy="1784.224" rx="13.52" ry="13.521"/>
		</g>
		<g>
			<rect x="1322.831" y="1722.776" style="fill:#E5F0F8;" width="289.094" height="175.688"/>
			<rect x="1333.789" y="1734.378" style="fill:#FFFFFF;" width="267.179" height="164.086"/>
			<polygon style="fill:#E5F0F8;" points="1409.335,1849.852 1448.619,1898.464 1369.272,1898.464 			"/>
			<polygon style="fill:#E5F0F8;" points="1582.955,1898.464 1472.501,1898.464 1537.26,1789.198 			"/>
			
				<ellipse transform="matrix(0.7071 -0.7071 0.7071 0.7071 -831.8517 1560.1808)" style="fill:#E5F0F8;" cx="1467.379" cy="1784.224" rx="13.521" ry="13.521"/>
		</g>
		<g>
			<rect x="939.262" y="1722.776" style="fill:#E5F0F8;" width="289.127" height="175.688"/>
			<rect x="950.253" y="1734.378" style="fill:#FFFFFF;" width="267.145" height="164.086"/>
			<polygon style="fill:#E5F0F8;" points="1025.766,1849.852 1065.049,1898.464 985.703,1898.464 			"/>
			<polygon style="fill:#E5F0F8;" points="1199.385,1898.464 1088.931,1898.464 1153.691,1789.198 			"/>
			
				<ellipse transform="matrix(0.2311 -0.9729 0.9729 0.2311 -902.5639 2426.3979)" style="fill:#E5F0F8;" cx="1083.828" cy="1784.224" rx="13.521" ry="13.521"/>
		</g>
		<rect x="555.712" y="1259.311" style="fill:#E5F0F8;" width="340.211" height="42.08"/>
		<rect x="925.022" y="1259.311" style="fill:#E5F0F8;" width="156.603" height="42.08"/>
		<rect x="555.712" y="1333.199" style="fill:#E5F0F8;" width="220.082" height="42.08"/>
		<rect x="804.909" y="1333.199" style="fill:#E5F0F8;" width="359.046" height="42.08"/>
		<g>
			<rect x="555.712" y="1418.057" style="fill:#E5F0F8;" width="58.969" height="18.588"/>
			<rect x="622.959" y="1418.057" style="fill:#E5F0F8;" width="232.933" height="18.588"/>
			<rect x="865.145" y="1418.058" style="fill:#E5F0F8;" width="201.746" height="18.588"/>
			<rect x="1075.175" y="1418.058" style="fill:#E5F0F8;" width="209.531" height="18.588"/>
			<rect x="555.712" y="1453.543" style="fill:#E5F0F8;" width="122.317" height="18.588"/>
			<rect x="687.523" y="1453.543" style="fill:#E5F0F8;" width="218.561" height="18.588"/>
			<rect x="915.577" y="1453.544" style="fill:#E5F0F8;" width="369.129" height="18.588"/>
			<rect x="555.712" y="1489.029" style="fill:#E5F0F8;" width="187.609" height="18.588"/>
			<rect x="751.118" y="1489.029" style="fill:#E5F0F8;" width="265.582" height="18.588"/>
			<rect x="1026.933" y="1489.029" style="fill:#E5F0F8;" width="257.773" height="18.588"/>
			<rect x="555.712" y="1524.515" style="fill:#E5F0F8;" width="229.847" height="18.588"/>
		</g>
		<rect x="1748.931" y="1672.983" style="fill:#E5F0F8;" width="203.997" height="18.639"/>
		<rect x="1365.38" y="1672.983" style="fill:#E5F0F8;" width="203.997" height="18.639"/>
		<rect x="981.828" y="1672.983" style="fill:#E5F0F8;" width="203.997" height="18.639"/>
		<rect x="598.277" y="1672.983" style="fill:#E5F0F8;" width="203.997" height="18.639"/>
		<g>
			
				<rect x="592.674" y="1032.404" style="fill:#FFFFFF;stroke:#BBDBF3;stroke-width:5.5329;stroke-miterlimit:10;" width="719.933" height="90.537"/>
			
				<rect x="1132.088" y="1032.404" style="fill:#BBDBF3;stroke:#BBDBF3;stroke-width:4.8444;stroke-miterlimit:10;" width="180.518" height="90.537"/>
			<path style="fill:#FFFFFF;" d="M1191.141,1096.078c12.997,7.262,29.023,3.684,37.993-7.62l48.247,26.958l4.672-8.361
				l-48.241-26.955c4.962-13.569-0.412-29.078-13.432-36.353c-14.44-8.068-32.729-2.945-40.797,11.496
				C1171.514,1069.684,1176.7,1088.01,1191.141,1096.078z M1217.203,1049.435c11.245,6.283,15.306,20.625,9.022,31.871
				c-6.319,11.31-20.626,15.305-31.871,9.022c-11.309-6.319-15.341-20.561-9.021-31.871
				C1191.616,1047.211,1205.894,1043.116,1217.203,1049.435z"/>
		</g>
		
			<rect x="1332.047" y="1086.3" style="fill:none;stroke:#BBDBF3;stroke-width:3.4922;stroke-linecap:round;stroke-linejoin:round;stroke-miterlimit:10;stroke-dasharray:20.9533;" width="663.446" height="528.633"/>
		<g>
			
				<rect x="1526.046" y="935.597" transform="matrix(-1.836970e-16 1 -1 -1.836970e-16 3057.6826 -523.0427)" style="fill:#BBDBF3;" width="528.633" height="663.446"/>
			<rect x="1483.859" y="1029.662" style="fill:#FFFFFF;" width="613.012" height="475.316"/>
			<polygon style="fill:#BBDBF3;" points="1483.859,1504.978 1657.162,1294.609 1778.909,1445.346 1950.69,1155.467 
				2096.871,1504.978 			"/>
			<circle style="fill:#BBDBF3;" cx="1790.365" cy="1144.037" r="31.025"/>
		</g>
	</g>
	<g>
		<path style="fill:#40A87B;" d="M373.887,1997.481c0,0-21.038-83.919-73.48-109.818c-52.442-25.899-108.414,9.558-94.201,46.843
			c12.255,32.15,62.65-7.381,101.859,8.164s45.39,54.81,45.39,54.81H373.887z"/>
		<path style="fill:none;stroke:#6ADB6A;stroke-width:2.3631;stroke-miterlimit:10;" d="M216.343,1912.147
			c0,0,56.284-32.076,98.043-2.421c41.759,29.655,54.975,87.754,54.975,87.754"/>
		
			<line style="fill:none;stroke:#6ADB6A;stroke-width:2.3631;stroke-miterlimit:10;" x1="225.421" y1="1897.146" x2="238.516" y2="1902.855"/>
		
			<line style="fill:none;stroke:#6ADB6A;stroke-width:2.3631;stroke-miterlimit:10;" x1="244.333" y1="1884.913" x2="270.416" y2="1897.146"/>
		
			<line style="fill:none;stroke:#6ADB6A;stroke-width:2.3631;stroke-miterlimit:10;" x1="283.52" y1="1884.913" x2="297.09" y2="1900.942"/>
		
			<line style="fill:none;stroke:#6ADB6A;stroke-width:2.3631;stroke-miterlimit:10;" x1="309.241" y1="1895.655" x2="315.341" y2="1910.417"/>
		
			<line style="fill:none;stroke:#6ADB6A;stroke-width:2.3631;stroke-miterlimit:10;" x1="231.968" y1="1932.573" x2="252.071" y2="1899.315"/>
		
			<line style="fill:none;stroke:#6ADB6A;stroke-width:2.3631;stroke-miterlimit:10;" x1="267.482" y1="1927.807" x2="285.92" y2="1898.196"/>
		
			<line style="fill:none;stroke:#6ADB6A;stroke-width:2.3631;stroke-miterlimit:10;" x1="298.802" y1="1923.268" x2="326.52" y2="1919.823"/>
		
			<line style="fill:none;stroke:#6ADB6A;stroke-width:2.3631;stroke-miterlimit:10;" x1="331.071" y1="1940.062" x2="346.959" y2="1945.279"/>
	</g>
	<g>
		<path style="fill:#6ADB6A;" d="M397.411,1994.839c0,0,14.845-281.293-119.51-245.044s104.805,187.852,104.601,245.044H397.411z"/>
		<path style="fill:none;stroke:#40A87B;stroke-width:2.3631;stroke-miterlimit:10;" d="M391.982,1994.839
			c0,0-4.691-146.966-100.464-219.636"/>
		
			<line style="fill:none;stroke:#40A87B;stroke-width:2.3631;stroke-miterlimit:10;" x1="333.524" y1="1817.817" x2="331.131" y2="1767.138"/>
		
			<line style="fill:none;stroke:#40A87B;stroke-width:2.3631;stroke-miterlimit:10;" x1="258.383" y1="1796.818" x2="323.117" y2="1805.255"/>
		
			<line style="fill:none;stroke:#40A87B;stroke-width:2.3631;stroke-miterlimit:10;" x1="283.558" y1="1840.07" x2="352.003" y2="1848.045"/>
		
			<line style="fill:none;stroke:#40A87B;stroke-width:2.3631;stroke-miterlimit:10;" x1="317.78" y1="1882.933" x2="370.646" y2="1890.404"/>
		
			<line style="fill:none;stroke:#40A87B;stroke-width:2.3631;stroke-miterlimit:10;" x1="375.717" y1="1842.884" x2="363.6" y2="1872.323"/>
		
			<line style="fill:none;stroke:#40A87B;stroke-width:2.3631;stroke-miterlimit:10;" x1="355.806" y1="1795.104" x2="345.476" y2="1836.551"/>
		
			<line style="fill:none;stroke:#40A87B;stroke-width:2.3631;stroke-miterlimit:10;" x1="387.029" y1="1892.03" x2="377.375" y2="1911.271"/>
		
			<line style="fill:none;stroke:#40A87B;stroke-width:2.3631;stroke-miterlimit:10;" x1="345.476" y1="1922.668" x2="383.358" y2="1934.612"/>
	</g>
	<g>
		<path style="fill:#40A87B;" d="M1945.827,541.104c-109.818,27.238-191.233,126.424-191.233,244.665
			c0,59.761,20.837,114.63,55.583,157.838l196.528-157.838L1945.827,541.104z"/>
		<path style="fill:#F9E181;" d="M2157.651,583.824c-42.081-31.505-94.333-50.166-150.946-50.166
			c-20.997,0-41.377,2.609-60.878,7.446l60.878,244.665L2157.651,583.824z"/>
		<path style="fill:#FFDDB8;" d="M2258.625,778.17c-2.36-79.505-41.452-149.784-100.974-194.346l-150.946,201.945L2258.625,778.17z"
			/>
		<path style="fill:#FFD09C;" d="M2258.625,778.17l-251.92,7.599l178.904,177.605c45.242-45.571,73.208-108.316,73.208-177.605
			C2258.817,783.22,2258.701,780.7,2258.625,778.17z"/>
		<path style="fill:#A6C9F1;" d="M2084.428,1025.615c38.65-12.517,73.221-34.079,101.181-62.241l-178.904-177.605L2084.428,1025.615
			z"/>
		<path style="fill:#0775EF;" d="M1810.177,943.607c46.209,57.462,117.052,94.273,196.528,94.273
			c27.13,0,53.235-4.335,77.723-12.266l-77.723-239.846L1810.177,943.607z"/>
		<polygon style="fill:#40A87B;" points="1945.827,541.104 1979.192,541.104 1843.542,943.607 1810.177,943.607 		"/>
		<path style="fill:#6ADB6A;" d="M1979.192,541.104c-109.818,27.238-191.233,126.424-191.233,244.665
			c0,59.761,20.837,114.63,55.583,157.838l196.528-157.838L1979.192,541.104z"/>
		<path style="fill:#F9ECB8;" d="M2191.015,583.824c-42.081-31.505-94.333-50.166-150.945-50.166
			c-20.997,0-41.377,2.609-60.878,7.446l60.878,244.665L2191.015,583.824z"/>
		<path style="fill:#F9E181;" d="M2291.99,778.17c-2.36-79.505-41.452-149.784-100.975-194.346L2040.07,785.769L2291.99,778.17z"/>
		<path style="fill:#F74242;" d="M2291.99,778.17l-251.92,7.599l178.903,177.605c45.242-45.571,73.208-108.316,73.208-177.605
			C2292.182,783.22,2292.065,780.7,2291.99,778.17z"/>
		<path style="fill:#2EC6FC;" d="M2117.793,1025.615c38.65-12.517,73.221-34.079,101.18-62.241L2040.07,785.769L2117.793,1025.615z"
			/>
		<path style="fill:#088CFC;" d="M1843.542,943.607c46.209,57.462,117.052,94.273,196.528,94.273
			c27.13,0,53.235-4.335,77.723-12.266l-77.723-239.846L1843.542,943.607z"/>
	</g>
	<g>
		<path style="fill:#BBDBF3;" d="M1988.8,1958.195l3.698-0.481c3.227,23.195,0.405,32.014,0.405,32.014s-4.986-7.803-7.802-31.051
			L1988.8,1958.195z"/>
		<path style="fill:#586773;" d="M1720.461,1958.401l-3.674-0.641c-4.225,23.034-1.786,31.967-1.786,31.967s5.318-7.58,9.135-30.686
			L1720.461,1958.401z"/>
		<polygon style="fill:#93ACBF;" points="1979.41,1963.891 1998.281,1961.435 1999.4,1912.126 1911.535,1236.932 1885.254,1240.352 
					"/>
		<path style="fill:#F9ECB8;" d="M1960.997,1898.312l0.003,0.024c0.111,0.477,0.222,0.954,0.382,1.425
			c1.126-0.417,2.404,0.154,2.87,1.273c0.496,1.165-0.024,2.461-1.137,2.975c0.229,0.437,0.479,0.847,0.753,1.254
			c0.991-0.694,2.374-0.456,3.114,0.504c0.74,0.961,0.598,2.331-0.329,3.14c0.316,0.352,0.681,0.698,1.045,1.044
			c0.763-0.935,2.144-1.09,3.128-0.333c0.983,0.757,1.187,2.132,0.481,3.133c0.428,0.264,0.852,0.504,1.277,0.743
			c0.545-1.103,1.83-1.615,2.948-1.146c1.166,0.463,1.705,1.769,1.288,2.905c0.46,0.137,0.945,0.27,1.426,0.38
			c0.236-1.211,1.356-2.045,2.56-1.857c1.201,0.163,2.081,1.253,1.99,2.445c0.472,0.037,0.962,0.022,1.451,0.008l0.024-0.003
			c-0.109-1.215,0.759-2.287,1.968-2.444c1.233-0.16,2.347,0.653,2.552,1.856c0.477-0.111,0.954-0.222,1.425-0.382
			c-0.393-1.129,0.178-2.407,1.298-2.873c1.116-0.489,2.413,0.03,2.951,1.14c0.437-0.229,0.871-0.482,1.281-0.732
			c-0.694-0.991-0.508-2.392,0.501-3.138c0.961-0.74,2.334-0.574,3.143,0.353c0.349-0.34,0.698-0.681,1.044-1.045
			c-0.938-0.787-1.093-2.168-0.336-3.152c0.757-0.984,2.156-1.19,3.136-0.457c0.24-0.425,0.504-0.852,0.74-1.301
			c-1.124-0.517-1.612-1.806-1.146-2.948c0.469-1.118,1.745-1.702,2.881-1.284c0.161-0.464,0.298-0.924,0.407-1.405
			c-1.208-0.212-2.042-1.332-1.885-2.582c0.187-1.204,1.277-2.084,2.472-1.969c0.034-0.496,0.019-0.986,0.005-1.476l-0.003-0.024
			c-1.215,0.109-2.287-0.759-2.444-1.968c-0.157-1.209,0.653-2.347,1.856-2.552c-0.111-0.477-0.223-0.954-0.382-1.425
			c-1.126,0.417-2.404-0.154-2.897-1.295c-0.468-1.143,0.051-2.44,1.164-2.954c-0.229-0.437-0.482-0.871-0.756-1.278
			c-0.991,0.694-2.371,0.481-3.111-0.48c-0.743-0.985-0.601-2.355,0.353-3.143c-0.344-0.373-0.708-0.719-1.073-1.065
			c-0.763,0.935-2.144,1.09-3.128,0.333c-0.98-0.733-1.184-2.107-0.478-3.109c-0.428-0.264-0.852-0.504-1.277-0.743
			c-0.545,1.103-1.833,1.59-2.951,1.121c-1.142-0.466-1.699-1.721-1.284-2.881c-0.463-0.161-0.948-0.295-1.426-0.38
			c-0.239,1.187-1.359,2.021-2.561,1.857c-1.204-0.187-2.08-1.253-1.993-2.469c-0.496-0.034-0.986-0.019-1.475-0.005
			c0.109,1.215-0.756,2.311-1.989,2.471c-1.209,0.157-2.326-0.681-2.531-1.883l-0.024,0.003c-0.477,0.111-0.954,0.223-1.401,0.379
			c0.396,1.153-0.178,2.408-1.295,2.897c-1.119,0.465-2.416-0.054-2.951-1.14c-0.44,0.205-0.875,0.458-1.281,0.732
			c0.698,1.015,0.481,2.371-0.504,3.114c-0.961,0.74-2.331,0.598-3.14-0.329c-0.349,0.34-0.698,0.681-1.044,1.045
			c0.938,0.787,1.093,2.168,0.333,3.128c-0.757,0.983-2.132,1.187-3.109,0.478c-0.264,0.428-0.504,0.852-0.74,1.301
			c1.103,0.545,1.591,1.833,1.122,2.951c-0.469,1.118-1.748,1.678-2.884,1.26c-0.161,0.463-0.27,0.945-0.404,1.429
			c1.207,0.212,2.042,1.332,1.857,2.561c-0.16,1.225-1.25,2.105-2.445,1.99c-0.034,0.496-0.019,0.986-0.005,1.475
			c1.215-0.109,2.29,0.784,2.447,1.992C1963.013,1896.992,1962.199,1898.106,1960.997,1898.312z"/>
		<path style="fill:#F9E181;" d="M1977.202,1893.904c0.457,3.51,3.673,5.985,7.183,5.529c3.51-0.457,5.986-3.673,5.529-7.183
			c-0.457-3.51-3.673-5.986-7.183-5.529C1979.221,1887.178,1976.745,1890.394,1977.202,1893.904z"/>
		
			<rect x="1945.502" y="1739.966" transform="matrix(0.9916 -0.129 0.129 0.9916 -209.2619 266.0456)" style="fill:#586773;" width="5.77" height="15.776"/>
		<polygon style="fill:#93ACBF;" points="1729.597,1964.498 1710.849,1961.23 1711.86,1911.918 1828.785,1241.146 
			1854.894,1245.697 		"/>
		<path style="fill:#F9ECB8;" d="M1750.823,1899.774l-0.004,0.024c-0.132,0.472-0.263,0.944-0.443,1.407
			c-1.106-0.465-2.409,0.05-2.922,1.148c-0.546,1.142-0.082,2.46,1.007,3.021c-0.248,0.427-0.515,0.826-0.807,1.22
			c-0.96-0.737-2.352-0.558-3.133,0.37c-0.78,0.928-0.698,2.303,0.193,3.151c-0.331,0.338-0.71,0.668-1.089,0.998
			c-0.722-0.967-2.095-1.182-3.11-0.468c-1.015,0.714-1.278,2.078-0.616,3.109c-0.439,0.245-0.873,0.466-1.308,0.688
			c-0.496-1.126-1.759-1.692-2.896-1.272c-1.185,0.412-1.78,1.694-1.412,2.847c-0.466,0.117-0.956,0.229-1.441,0.318
			c-0.183-1.22-1.267-2.101-2.478-1.966c-1.207,0.111-2.133,1.162-2.093,2.357c-0.473,0.017-0.962-0.019-1.45-0.055l-0.024-0.004
			c0.161-1.209-0.66-2.317-1.861-2.527c-1.225-0.214-2.373,0.552-2.63,1.744c-0.472-0.132-0.944-0.264-1.407-0.443
			c0.441-1.111-0.074-2.413-1.172-2.926c-1.094-0.537-2.412-0.074-2.997,1.012c-0.427-0.248-0.85-0.519-1.249-0.787
			c0.736-0.96,0.611-2.368-0.365-3.157c-0.928-0.78-2.307-0.674-3.156,0.217c-0.334-0.355-0.668-0.711-0.998-1.089
			c0.971-0.746,1.186-2.119,0.472-3.135c-0.714-1.015-2.102-1.282-3.113-0.592c-0.221-0.434-0.466-0.873-0.683-1.331
			c1.146-0.469,1.688-1.735,1.272-2.896c-0.42-1.137-1.67-1.776-2.823-1.408c-0.141-0.47-0.258-0.936-0.346-1.421
			c1.215-0.159,2.097-1.243,1.994-2.498c-0.135-1.211-1.186-2.137-2.385-2.073c-0.012-0.497,0.023-0.986,0.059-1.474l0.004-0.024
			c1.209,0.161,2.317-0.66,2.527-1.861c0.209-1.201-0.552-2.373-1.744-2.63c0.132-0.472,0.264-0.944,0.443-1.407
			c1.107,0.465,2.409-0.05,2.95-1.168c0.517-1.122,0.054-2.44-1.036-3.001c0.248-0.427,0.519-0.85,0.811-1.244
			c0.96,0.737,2.348,0.583,3.128-0.345c0.785-0.952,0.703-2.327-0.217-3.156c0.359-0.358,0.739-0.688,1.118-1.018
			c0.722,0.967,2.095,1.182,3.11,0.468c1.011-0.69,1.274-2.054,0.612-3.085c0.439-0.245,0.873-0.466,1.307-0.688
			c0.497,1.126,1.763,1.668,2.9,1.248c1.161-0.416,1.771-1.646,1.408-2.823c0.47-0.141,0.96-0.253,1.441-0.318
			c0.188,1.196,1.271,2.077,2.478,1.966c1.211-0.135,2.132-1.162,2.098-2.381c0.497-0.012,0.986,0.023,1.474,0.059
			c-0.161,1.209,0.656,2.341,1.881,2.555c1.201,0.209,2.353-0.579,2.61-1.772l0.024,0.004c0.472,0.132,0.944,0.264,1.383,0.439
			c-0.445,1.135,0.074,2.413,1.168,2.95c1.098,0.513,2.416,0.05,2.997-1.012c0.431,0.224,0.854,0.495,1.249,0.787
			c-0.741,0.984-0.583,2.348,0.369,3.132c0.928,0.78,2.303,0.698,3.151-0.193c0.334,0.355,0.668,0.71,0.998,1.089
			c-0.971,0.746-1.186,2.119-0.468,3.11c0.714,1.015,2.078,1.278,3.085,0.612c0.245,0.439,0.466,0.873,0.683,1.332
			c-1.126,0.496-1.668,1.763-1.248,2.9c0.42,1.137,1.674,1.752,2.827,1.384c0.141,0.47,0.229,0.955,0.342,1.445
			c-1.215,0.159-2.097,1.243-1.966,2.478c0.107,1.231,1.158,2.156,2.357,2.093c0.012,0.497-0.023,0.986-0.059,1.474
			c-1.209-0.161-2.321,0.684-2.531,1.885C1748.866,1898.369,1749.631,1899.517,1750.823,1899.774z"/>
		<path style="fill:#F9E181;" d="M1734.823,1894.671c-0.608,3.487-3.928,5.821-7.415,5.214c-3.487-0.608-5.821-3.928-5.214-7.415
			c0.608-3.487,3.928-5.821,7.415-5.214C1733.097,1887.864,1735.431,1891.184,1734.823,1894.671z"/>
		
			<rect x="1990.145" y="1713.816" transform="matrix(0.9916 -0.129 0.129 0.9916 -208.1128 271.8806)" style="fill:#93ACBF;" width="7.724" height="56.202"/>
		
			<rect x="1977.476" y="1735.35" transform="matrix(0.9916 -0.129 0.129 0.9916 -208.369 270.5825)" style="fill:#586773;" width="12.754" height="15.776"/>
		<path style="fill:#586773;" d="M1961.441,1723.12L1961.441,1723.12c-1.546,0.201-2.976-0.899-3.177-2.445l-3.435-26.399
			c-0.201-1.546,0.899-2.976,2.445-3.177l0,0c1.546-0.201,2.976,0.899,3.177,2.445l3.435,26.399
			C1964.087,1721.489,1962.987,1722.919,1961.441,1723.12z"/>
		<polygon style="fill:#322A28;" points="1892.181,1174.059 1847.373,1174.059 1849.811,1139.302 1889.744,1139.302 		"/>
		<path style="fill:#586773;" d="M1889.045,1147.228h-38.535c-1.845,0-3.32-1.536-3.244-3.38l4.323-104.917
			c0.231-5.601,4.839-10.023,10.445-10.023h15.488c5.606,0,10.214,4.422,10.445,10.023l4.323,104.917
			C1892.364,1145.691,1890.89,1147.228,1889.045,1147.228z"/>
		<path style="fill:#586773;" d="M1869.777,1167.605c-31.552-1.068-46.095,10.435-46.095,10.435v77.189
			c0,0.842,0.143,1.671,0.43,2.463c1.858,5.137,9.245,25.847,12.388,38.915c3.537,14.707,3.981,29.976,3.986,36.57
			c0.002,2.297,1.206,4.461,3.239,5.531c9.13,4.805,19.327,5.556,26.052,5.556s16.922-0.751,26.052-5.556
			c2.033-1.07,3.237-3.234,3.239-5.531c0.005-6.594,0.449-21.863,3.987-36.57c3.143-13.069,10.531-33.779,12.388-38.915
			c0.286-0.792,0.43-1.621,0.43-2.463v-77.189C1915.873,1178.04,1901.329,1166.537,1869.777,1167.605z"/>
		<path style="fill:none;stroke:#93ACBF;stroke-width:2.4376;stroke-miterlimit:10;" d="M1869.777,1337.354
			c-8.92,0-16.447-1.524-22.381-4.528c-0.024-7.904-0.612-23.007-4.179-37.835c-3.188-13.258-10.456-33.7-12.608-39.651
			l-0.017-73.471c4.816-2.588,16.324-7.425,35.084-7.425c1.257,0,2.547,0.021,3.867,0.067c0.078,0.002,0.39,0.002,0.469,0
			c1.321-0.045,2.609-0.067,3.867-0.067c18.731,0,30.236,4.824,35.082,7.431v73.353c-2.164,6.05-9.427,26.46-12.624,39.764
			c-3.571,14.841-4.156,29.938-4.178,37.833C1886.223,1335.83,1878.697,1337.354,1869.777,1337.354z"/>
		<g>
			<path style="fill:#F9ECB8;" d="M1836.108,1230.53c-1.267-5.733,1.726-11.402,6.881-13.699c0.749-0.333,1.528-0.596,2.355-0.779
				c0.827-0.183,1.659-0.276,2.464-0.286c5.646-0.076,10.747,3.789,12.015,9.522c1.264,5.718-1.729,11.388-6.881,13.699
				c-0.734,0.33-1.527,0.597-2.354,0.779c-0.827,0.183-1.645,0.272-2.464,0.286
				C1842.48,1240.142,1837.372,1236.248,1836.108,1230.53z"/>
			<path style="fill:#F9E181;" d="M1848.122,1240.052l-5.134-23.221c0.749-0.333,1.528-0.596,2.355-0.779
				c0.827-0.183,1.659-0.276,2.464-0.286l5.134,23.221c-0.734,0.33-1.527,0.597-2.354,0.779
				C1849.759,1239.949,1848.941,1240.038,1848.122,1240.052z"/>
		</g>
		<g>
			<path style="fill:#F9ECB8;" d="M1903.446,1230.53c1.267-5.733-1.726-11.402-6.881-13.699c-0.748-0.333-1.527-0.596-2.355-0.779
				c-0.827-0.183-1.659-0.276-2.464-0.286c-5.646-0.076-10.747,3.789-12.015,9.522c-1.264,5.718,1.729,11.388,6.881,13.699
				c0.734,0.33,1.527,0.597,2.354,0.779c0.827,0.183,1.645,0.272,2.464,0.286C1897.075,1240.142,1902.182,1236.248,1903.446,1230.53
				z"/>
			<path style="fill:#F9E181;" d="M1891.432,1240.052l5.134-23.221c-0.748-0.333-1.527-0.596-2.355-0.779
				c-0.827-0.183-1.659-0.276-2.464-0.286l-5.134,23.221c0.734,0.33,1.527,0.597,2.354,0.779
				C1889.795,1239.949,1890.613,1240.038,1891.432,1240.052z"/>
		</g>
	</g>
	<path style="fill:#0775EF;" d="M2018.371,2029.242H321.223c-9.743,0-17.641-7.898-17.641-17.641v-4.378
		c0-9.743,7.898-17.641,17.641-17.641l1697.148,0c9.743,0,17.641,7.898,17.641,17.641v4.378
		C2036.012,2021.344,2028.114,2029.242,2018.371,2029.242z"/>
	<g>
		<path style="fill:#2EC6FC;" d="M637.482,1731.854c0.031,27.626-1.226,136.008-8.22,161.63
			c-7.013,25.622-22.004,95.98-126.995,96.098c-53.445,0.06-83.607-18.144-101.272-39.398c-17.049-20.51-22.441-43.845-25.92-56.415
			c-7.07-25.606-8.57-133.985-8.601-161.612c-0.02-17.38-1.71-63.112-0.209-103.109c0.868-23.603,2.855-45.177,6.94-57.775
			c7.24-22.307,35.67-52.982,124.657-53.939l0.063,56.556l7.768-0.009l-0.063-56.556c88.971,0.776,117.488,31.369,124.778,53.659
			C641.494,1604.877,637.451,1704.227,637.482,1731.854z"/>
		<path style="fill:#088CFC;" d="M412.747,1897.248c-0.948,18.76-6.384,37.991-11.751,52.937
			c-17.049-20.51-22.441-43.845-25.92-56.415c-7.07-25.606-8.57-133.985-8.601-161.612c-0.02-17.38-1.71-63.112-0.209-103.109
			c3.503,50.219,14.271,117.604,19.214,139.636C392.051,1797.813,414.715,1858.069,412.747,1897.248z"/>
		<path style="fill:#088CFC;" d="M591.581,1897.047c0.99,18.758,6.469,37.976,11.87,52.91
			c17.003-20.548,22.342-43.895,25.793-56.473c7.013-25.622,8.27-134.004,8.239-161.63c-0.019-17.38,1.568-63.115-0.023-103.109
			c-3.39,50.226-14.007,117.636-18.9,139.679C612.053,1797.566,589.525,1857.873,591.581,1897.047z"/>
		<path style="fill:#088CFC;" d="M513.039,1736.383l-22.104,0.025c-7.768,0.009-14.072-6.281-14.081-14.049l-0.167-148.694
			c-0.009-7.768,6.281-14.072,14.05-14.081l22.104-0.025c7.768-0.009,14.072,6.281,14.081,14.049l0.167,148.694
			C527.098,1730.07,520.807,1736.375,513.039,1736.383z"/>
		<path style="fill:#2EC6FC;" d="M501.89,1649.49L501.89,1649.49c-9.676,0.011-17.528-7.824-17.539-17.5l-0.041-36.545
			c-0.011-9.676,7.824-17.528,17.5-17.539l0,0c9.676-0.011,17.528,7.824,17.539,17.499l0.041,36.545
			C519.401,1641.627,511.566,1649.48,501.89,1649.49z"/>
	</g>
	<g>
		<g>
			<path style="fill:#93ACBF;" d="M763.885,1608.863h-26.521v-265.805c0-6.036-4.911-10.947-10.949-10.947H431.856
				c-20.661,0-37.469-16.808-37.469-37.469v-139.923c0-20.661,16.808-37.469,37.469-37.469h167.991v26.521H431.856
				c-6.038,0-10.949,4.911-10.949,10.949v139.923c0,6.038,4.911,10.949,10.949,10.949h294.559c20.661,0,37.469,16.808,37.469,37.468
				V1608.863z"/>
		</g>
		<path style="fill:#F9ECB8;" d="M1105.471,1035.625v189.788c0,11.437-10.323,20.686-23.042,20.686H470.659
			c-12.719,0-23.005-9.249-23.005-20.686v-189.788c0-11.437,10.286-20.719,23.005-20.719h611.769c0.221,0,0.406,0,0.627,0.033
			C1095.48,1015.203,1105.471,1024.386,1105.471,1035.625z"/>
		<path style="fill:#586773;" d="M788.993,1989.773h-76.74c-11.022,0-20.04-9.018-20.04-20.04v-385.308
			c0-11.022,9.018-20.04,20.04-20.04h76.74c11.022,0,20.04,9.018,20.04,20.04v385.308
			C809.033,1980.755,800.015,1989.773,788.993,1989.773z"/>
		<path style="fill:#2EC6FC;" d="M1083.056,1014.938c-2.802,26.653-13.973,69.152-56.628,73.727
			c-62.637,6.696-76.794-42.234-131.984-40.908c-55.19,1.326-35.798,108.602-99.172,112.514
			c-63.374,3.912-29.826-105.817-85.753-123.917c-55.927-18.1-7.447,109.961-74.545,122.691
			c-67.098,12.763-38.784-77.772-58.913-113.641c-20.129-35.902-39.521,27.846-74.545,45.947
			c-26.249,13.559-21.973-45.748-18.176-76.446h599.087C1082.65,1014.905,1082.834,1014.905,1083.056,1014.938z"/>
	</g>
	<g>
		<polygon style="fill:#BBDBF3;" points="458.572,705.534 458.572,811.644 458.572,842.917 399.936,811.644 316.101,811.644 
			316.101,705.534 		"/>
		<g>
			<path style="fill:#FFFFFF;" d="M422.494,766.213c1.667,0,3.172,0.679,4.274,1.774c1.096,1.095,1.774,2.614,1.774,4.274
				c0,3.327-2.722,6.048-6.048,6.048c3.327,0,6.048,2.722,6.048,6.048s-2.722,6.048-6.048,6.048h-54.53l0-48.387h6.445
				c2.776-2.043,7.07-5.363,10.894-8.958c6.257-5.887,2.903-15.773,6.633-16.23c3.737-0.457,8.508,4.308,9.476,10.914
				c0.833,5.699-4.845,12.507-6.432,14.274l27.514,0c3.327,0,6.048,2.722,6.048,6.048c0,3.327-2.722,6.048-6.048,6.048
				c3.327,0,6.048,2.722,6.048,6.048C428.543,763.491,425.821,766.213,422.494,766.213z"/>
			<path style="fill:#FFFFFF;" d="M367.965,739.156l0,53.979c0,3.065-2.507,5.565-5.565,5.565l-10.706,0
				c-3.065,0-5.565-2.5-5.565-5.565v-53.979c0-3.058,2.5-5.565,5.565-5.565H362.4C365.458,733.592,367.965,736.099,367.965,739.156z
				"/>
			<line style="fill:#FFFFFF;" x1="367.965" y1="742.019" x2="367.965" y2="764.395"/>
			<line style="fill:#FFFFFF;" x1="422.494" y1="754.116" x2="405.295" y2="754.152"/>
			<line style="fill:#FFFFFF;" x1="422.494" y1="766.213" x2="406.289" y2="766.224"/>
			<line style="fill:#FFFFFF;" x1="422.494" y1="778.31" x2="405.779" y2="778.03"/>
		</g>
	</g>
	<g>
		<polygon style="fill:#BBDBF3;" points="629.907,558.669 629.907,674.888 629.907,709.14 565.685,674.888 473.862,674.888 
			473.862,558.669 		"/>
		<g>
			<path style="fill:#FFFFFF;" d="M551.881,654.37c0,0,0,0-0.016-0.016c-81.559-36.154-23.878-100.983,0.016-60.344
				C575.791,553.37,633.473,618.217,551.881,654.37z"/>
		</g>
	</g>
	<g>
		<path style="fill:#322A28;" d="M777.026,719.767H672.871c0,0-6.004-19.142,8.005-26.583c14.01-7.441,16.011-17.112,10.007-27.287
			c-6.004-10.174-3.622-22.819,6.671-31.189c10.294-8.37,11.834-28.032,37.677-21.315c0,0,32.216,6.383,34.312,24.984
			c2.097,18.601,2.061,16.997,10.734,28.345c8.673,11.348-2.669,31.06,0,38.216s7.672,14.828,7.672,14.828H777.026z"/>
		<path style="fill:#F74242;" d="M859.023,889.703L859.023,889.703c-13.453,8.258-31.216,4.007-39.473-9.446l-62.07-101.12
			c-8.258-13.453-4.007-31.216,9.446-39.473l0,0c13.453-8.258,31.216-4.007,39.473,9.446l62.07,101.12
			C876.726,863.683,872.475,881.446,859.023,889.703z"/>
		<path style="fill:#088CFF;" d="M669.12,925.386c0,0-8.363,9.504-11.69,17.255c-3.327,7.751,36.392,3.476,36.392,3.476
			l-4.33-37.235L669.12,925.386z"/>
		<path style="fill:#0775EF;" d="M934.003,1088.52L934.003,1088.52c-15.514,21.63-45.904,26.635-67.535,11.121L715.383,991.281
			c-21.63-15.514-26.635-45.904-11.121-67.535l0,0c15.514-21.63,45.904-26.635,67.535-11.121l151.086,108.361
			C944.512,1036.499,949.517,1066.89,934.003,1088.52z"/>
		<path style="fill:#088CFF;" d="M890.48,1102.079L890.48,1102.079c-15.514,21.63-45.904,26.635-67.535,11.121L671.86,1004.84
			c-21.63-15.514-26.635-45.904-11.121-67.535h0c15.514-21.63,45.904-26.635,67.535-11.121l151.086,108.361
			C900.989,1050.058,905.994,1080.449,890.48,1102.079z"/>
		<path style="fill:#F74242;" d="M710.199,723.697l-50.226,23.654c0,0,11.167,128.389,12.322,142.533s-3.175,35.503-3.175,35.503
			h120.364c0,0-1.443-69.274,6.639-88.613c5.475-13.101,9.237-21.071,6.062-36.08c-3.175-15.009-13.855-37.523-10.102-63.501
			l-30.885-12.412L710.199,723.697z"/>
		<polygon style="fill:#A06753;" points="929.328,1325.637 920.078,1293.03 970.361,1285.767 974.43,1318.651 		"/>
		<path style="fill:#A06753;" d="M761.209,666.391v58.4c0,0,0,0.714-0.143,1.855c-0.599,4.767-3.682,17.012-19.552,16.841
			c-14.5-0.171-24.633-10.818-28.943-16.413c-1.57-1.998-2.369-3.368-2.369-3.368l7.307-57.315H761.209z"/>
		<polygon style="fill:#A06753;" points="759.406,1319.953 804.201,1328.602 813.701,1300.187 763.959,1292.767 		"/>
		<polygon style="fill:#824C3A;" points="761.197,724.78 735.232,691.629 761.197,686.628 		"/>
		<path style="fill:#A06753;" d="M766.054,695.568c-9.578,5.149-24.411,3.651-36.281-5.033
			c-11.87-8.683-41.365-43.887-14.726-67.558c26.674-23.668,49.819,3.392,51.437,7.935c0,0,3.271,16.453,5.547,28.054
			c0.601,2.947,1.119,5.569,1.508,7.544c0.047,0.322,0.133,0.612,0.183,0.898C775.507,676.496,775.63,690.455,766.054,695.568z"/>
		<path style="fill:#F74242;" d="M609.852,905.649L609.852,905.649c-14.243-6.805-20.328-24.026-13.523-38.268l51.151-107.058
			c6.805-14.243,24.026-20.328,38.268-13.523l0,0c14.243,6.805,20.328,24.026,13.523,38.269l-51.151,107.058
			C641.316,906.368,624.095,912.454,609.852,905.649z"/>
		<path style="fill:#0775EF;" d="M881.71,1022.433c-24.119,8.657-36.654,35.227-27.996,59.346l60.688,218.408l74.783-11.63
			l-45.478-225.153l-0.018,0.004c-0.254-4.328-1.093-8.691-2.631-12.978C932.399,1026.31,905.829,1013.776,881.71,1022.433z"/>
		<polygon style="fill:#322A28;" points="751.618,1354.208 772.823,1357.947 776.597,1344.499 785.732,1360.224 835.758,1369.044 
			804.201,1328.602 759.406,1319.953 		"/>
		<path style="fill:#088CFF;" d="M861.546,1025.449c-25.236-4.45-49.302,12.401-53.752,37.637l-57.428,232.987l71.63,13.83
			l73.05-218.123l-0.017-0.006c1.927-3.883,3.363-8.088,4.154-12.574C903.633,1053.964,886.783,1029.899,861.546,1025.449z"/>
		
			<line style="fill:none;stroke:#D1DDFF;stroke-width:2.8544;stroke-miterlimit:10;" x1="790.067" y1="1335.021" x2="810.079" y2="1338.485"/>
		<path style="fill:#322A28;" d="M735.232,613.394c0,0,27.45-4.036,35.664,21.482l-13.735,3.169c0,0-1.397-9.006-9.07-11.675
			c0,0,6.141,5.962,5.669,12.967l-15.763,4.482c0,0-2.458-9.611-2.291-13.614c0,0-2.275,9.598-1.441,14.935l-10.737,5.129
			c0,0,1.713,9.081-1.789,13.084c-3.502,4.003-6.337,19.573-6.337,19.573s-17.513-30.038-14.177-41.213
			C704.56,630.539,710.867,612.426,735.232,613.394z"/>
		
			<line style="fill:none;stroke:#D1DDFF;stroke-width:2.8544;stroke-miterlimit:10;" x1="793.688" y1="1342.767" x2="813.701" y2="1346.231"/>
		<polygon style="fill:#322A28;" points="933.145,1360.077 954.404,1356.66 953.562,1342.717 967.347,1354.579 1017.5,1346.516 
			974.43,1318.651 929.328,1325.637 		"/>
		
			<line style="fill:none;stroke:#D1DDFF;stroke-width:2.8544;stroke-miterlimit:10;" x1="963.181" y1="1329.348" x2="983.224" y2="1326.061"/>
		
			<line style="fill:none;stroke:#D1DDFF;stroke-width:2.8544;stroke-miterlimit:10;" x1="969.141" y1="1335.479" x2="989.184" y2="1332.192"/>
		<path style="fill:none;stroke:#E5F0F8;stroke-width:1.4272;stroke-miterlimit:10;" d="M766.057,953.283
			c0,0,79.524,56.068,94.889,66.76c15.364,10.692,38.068,22.771,38.95,48.46c0.882,25.689-25.096,82.799-25.096,82.799"/>
		<path style="fill:#A06753;" d="M721.341,671.32c2.735,5.053,3.313,8.512-0.655,10.659c-3.967,2.147-10.217,0.926-12.952-4.127
			c-2.735-5.053-1.736-10.89,2.232-13.037C713.933,662.668,718.607,666.267,721.341,671.32z"/>
		
			<path style="fill:none;stroke:#724638;stroke-width:0.7136;stroke-linecap:round;stroke-linejoin:round;stroke-miterlimit:10;" d="
			M710.134,670.368c0,0,6.704-1.541,8.323,4.075c0,0-2.583-1.634-5.854-0.424"/>
		<path style="fill:#322A28;" d="M744.934,659.056c0.38,2.187,1.836,3.76,3.25,3.514c1.415-0.246,2.253-2.219,1.873-4.406
			c-0.38-2.187-1.836-3.76-3.25-3.514C745.393,654.897,744.554,656.869,744.934,659.056z"/>
		<path style="fill:#322A28;" d="M763.324,654.108c0.38,2.187,1.836,3.76,3.251,3.514c1.415-0.246,2.253-2.219,1.873-4.406
			c-0.38-2.187-1.836-3.76-3.251-3.514C763.782,649.949,762.944,651.921,763.324,654.108z"/>
		<path style="fill:#FFFFFF;" d="M756.413,683.18c2.739,0.43,5.307-1.442,5.737-4.18l-9.917-1.556
			C751.803,680.182,753.675,682.75,756.413,683.18z"/>
		<path style="fill:none;stroke:#2C3447;stroke-width:1.0594;stroke-miterlimit:10;" d="M739.188,655.529
			c0,0,3.442-6.214,8.902-5.133"/>
		<path style="fill:none;stroke:#2C3447;stroke-width:1.0594;stroke-miterlimit:10;" d="M762.462,646.889
			c0,0,3.086-1.149,7.082,1.714"/>
		<path style="fill:none;stroke:#2C3447;stroke-width:1.0594;stroke-miterlimit:10;" d="M756.772,655.571
			c0,0,2.136,10.793,8.726,11.012c0,0-1.703,2.193-4.106,3.392"/>
		<path style="fill:#A14C53;" d="M750.536,670.349c-0.157,2.176-3.555,3.703-7.588,3.411c-4.033-0.292-7.175-2.292-7.018-4.468
			c0.157-2.176,3.555-3.703,7.588-3.411C747.552,666.172,750.694,668.173,750.536,670.349z"/>
		<path style="fill:#A14C53;" d="M773.539,666.51c-2.302,0.506-4.292,0.114-5.011-1.212c-0.937-1.732,0.6-4.382,3.503-6.332
			C772.632,661.913,773.151,664.535,773.539,666.51z"/>
		<path style="fill:#A06753;" d="M816.94,872.862c-6.888-15.868-1.064-33.825,12.942-39.905l127.702-36.307
			c3.991-2.146,8.471-4.774,11.915-7.402c8.007-6.109,31.713-20.141,33.708-16.712c1.995,3.43-12.297,16.335-10.279,17.089
			c2.018,0.753,14.714-6.267,19.889-9.689c5.175-3.422,15.087-12.546,18.495-11.303c3.408,1.243,2.932,6.565,2.932,6.565
			s3.356-3.945,5.414-1.375c2.058,2.57-1.682,9.986-1.682,9.986s1.644-2.386,3.209,1.012c1.566,3.398-7.785,12.519-7.785,12.519
			s2.408-1.033,3.245,1.706c0.836,2.74-12.771,13.363-24.618,17.637c-10.575,3.815-36.711,10.088-42.203,11.391L854.93,890.659
			C840.924,896.738,823.829,888.73,816.94,872.862z"/>
		
			<line style="fill:none;stroke:#2C3447;stroke-width:1.4671;stroke-miterlimit:10;" x1="669.954" y1="846.429" x2="686.99" y2="810.771"/>
		<polygon style="fill:#89A5C7;" points="744.866,993.094 699.858,953.283 832.988,953.283 882.508,993.094 		"/>
		<path style="fill:none;stroke:#FFFFFF;stroke-width:1.2083;stroke-miterlimit:10;" d="M722.234,683.55
			c0.397,2.299-1.146,4.485-3.445,4.881c-2.299,0.397-4.485-1.146-4.881-3.445c-0.397-2.299,1.146-4.485,3.445-4.881
			C719.652,679.708,721.838,681.25,722.234,683.55z"/>
		<g>
			<polygon style="fill:#A5BBD6;" points="882.508,993.094 744.866,993.094 780.788,890.024 918.43,890.024 			"/>
			<g>
				<polygon style="fill:#89A5C7;" points="746.367,988.091 701.359,948.279 834.489,948.279 884.009,988.091 				"/>
				<polygon style="fill:#A5BBD6;" points="879.908,990.813 742.266,990.813 778.188,887.743 915.83,887.743 				"/>
				<polygon style="fill:#89A5C7;" points="915.83,887.743 918.43,890.024 780.788,890.024 744.866,993.094 742.266,990.813 
					778.188,887.743 				"/>
				<polygon style="fill:#586773;" points="701.359,948.279 699.858,953.283 744.866,993.094 746.61,988.091 				"/>
			</g>
			<ellipse style="fill:#89A5C7;" cx="837.452" cy="942.731" rx="15.26" ry="6.755"/>
		</g>
		<path style="fill:#A06753;" d="M596.218,864.406c8.119-15.275,25.793-21.909,39.276-14.743l107.969,77.257
			c4.165,1.785,9.012,3.651,13.214,4.707c9.768,2.456,35.514,12.253,34.075,15.951c-1.439,3.698-20.439,0.561-19.771,2.608
			c0.669,2.048,14.07,7.603,19.971,9.518c5.901,1.915,19.213,3.983,20.365,7.423c1.151,3.44-3.307,6.384-3.307,6.384
			s5.176,0.167,4.449,3.378c-0.728,3.211-8.859,4.907-8.859,4.907s2.89-0.201,1.208,3.14c-1.682,3.342-14.643,1.712-14.643,1.712
			s2.309,1.24,0.687,3.601c-1.622,2.361-18.41-1.662-29.134-8.265c-9.573-5.894-30.765-22.427-35.206-25.91l-120.543-50.866
			C592.489,898.042,588.1,879.681,596.218,864.406z"/>
		<path style="fill:none;stroke:#2C3447;stroke-width:1.4671;stroke-miterlimit:10;" d="M795.708,837.883
			c0,0,9.046-19.029,7.577-28.912c-1.469-9.883-9.521-36.588-10.583-44.789"/>
	</g>
	<g>
		<polygon style="fill:#FDAE97;" points="1460.152,1301.303 1521.205,1300.266 1518.007,1236.158 1516.48,1205.502 
			1516.393,1203.975 1468.623,1183.892 1467.067,1205.559 1465.914,1221.349 		"/>
		<path style="fill:#088CFC;" d="M1579.551,1499.743l25.674,212.529c0.807,5.372,0.781,10.957-0.315,16.594
			c-5.158,26.537-30.852,43.868-57.389,38.709s-36.693-25.648-41.459-56.119c-9.149-58.492-41.105-233.988-41.105-233.988
			L1579.551,1499.743z"/>
		<polygon style="fill:#088CFC;" points="1413.079,1489.045 1507.388,1495.373 1506.918,1599.857 1495.725,1616.411 
			1485.349,1717.138 1389.885,1709.507 		"/>
		<path style="fill:#FDAE97;" d="M1489.886,1274.493c-22.401,0.493-33.305-11.796-35.652-17.215l9.74-2.631l54.866-1.742l6.656,2.13
			C1522.686,1260.264,1512.772,1273.989,1489.886,1274.493z"/>
		<path style="fill:#FFFFFF;" d="M1410.387,1413.868l0.963,91.612h168.894l-0.78-230.963l-59.177-21.383
			c-0.663,1.215-1.381,2.486-2.265,3.813l-0.221,0.276c-3.205,4.089-9.338,7.957-26.522,8.343
			c-14.311,0.332-21.328-1.657-25.306-4.255l-0.055-0.055c-2.155-1.437-3.868-4.273-4.863-5.82l-55.42,13.445l3.758,116.587
			L1410.387,1413.868z"/>
		<path style="fill:#F74242;" d="M1454.234,1257.278c0,0,4.793,85.472,4.103,134.875s-4.103,174.255-4.103,174.255
			s-31.288,0.661-60.067-5.167c0,0-0.434-56.561,7.501-95.568c7.935-39.007,3.966-196.792,3.966-196.792L1454.234,1257.278z"/>
		<path style="fill:#F74242;" d="M1633.181,1461.045l-0.358,0.14c-15.732,6.17-33.653-1.653-39.823-17.385l-50.277-128.187
			c-6.17-15.732,1.653-33.653,17.385-39.823l0.358-0.14c15.732-6.171,33.653,1.653,39.823,17.385l50.277,128.187
			C1656.737,1436.954,1648.913,1454.874,1633.181,1461.045z"/>
		<path style="fill:#088CFC;" d="M1623.104,1927.989l-88.71-0.061l-26.74-206.436c-2.792-26.902,16.71-50.992,43.578-53.824
			c26.903-2.792,50.955,16.708,53.787,43.575c0.255,2.335,0.285,4.617,0.199,6.928l15.443,181.193L1623.104,1927.989
			L1623.104,1927.989z"/>
		<path style="fill:#088CFC;" d="M1485.689,1713.426l-22.781,214.563h-87.151l13.974-215.738c-0.114-2.274,0.531-4.813,0.72-7.163
			c2.388-26.945,23.8-47.069,50.745-44.72C1468.104,1662.756,1488.038,1686.48,1485.689,1713.426z"/>
		<path style="fill:#322A28;" d="M1465.692,1163.125c0,0-3.261-21.585,5.997-17.501
			C1480.948,1149.708,1465.692,1163.125,1465.692,1163.125z"/>
		<path style="fill:#F74242;" d="M1525.495,1255.035c0,0-23.096,119.736-23.872,179.248c-0.776,59.512-0.776,59.512-0.776,59.512
			l2.645,72.613c0,0,64.347,7.977,86.843-1.199c0,0,1.571-86.195-4.408-116.714s-6.463-173.978-6.463-173.978L1525.495,1255.035z"/>
		<polygon style="fill:#EA9D85;" points="1464.23,1244.713 1498.55,1219.689 1465.914,1221.349 		"/>
		
			<path style="fill:none;stroke:#FFFFFF;stroke-width:1.6347;stroke-linecap:round;stroke-linejoin:round;stroke-miterlimit:10;" d="
			M1513.632,1548.831c0,0,46.838,7.757,68.659,0"/>
		<path style="fill:#FDAE97;" d="M1470.011,1147.772c0,0-6.568,19.438-11.228,33.226l-3.851,11.397
			c-3.043,9.005-5.031,23.215,4.059,29.729c9.057,6.503,24.404,6.988,37.666-0.267c13.273-7.287,50.881-47.592,26.884-75.285
			C1499.51,1118.869,1472.281,1143.356,1470.011,1147.772z"/>
		
			<path style="fill:none;stroke:#FFFFFF;stroke-width:1.6347;stroke-linecap:round;stroke-linejoin:round;stroke-miterlimit:10;" d="
			M1443.099,1280.875c0,0,4.647,74.72,6.291,107.782c1.644,33.063-6.291,149.441-6.291,149.441"/>
		<path style="fill:#322A28;" d="M1517.558,1227.151c0,0-9.322-13.02-7.199-19.763c2.124-6.743-3.926-16.315-0.178-26.557
			c3.748-10.242,5.301-14.563-0.275-15.339s-46.177-1.222-42.894-19.732c3.283-18.51,53.005-25.425,64.109,9.859
			c0,0,12.356,2.316,2.524,27.355C1523.814,1208.014,1522.09,1209.799,1517.558,1227.151z"/>
		
			<path style="fill:none;stroke:#FFFFFF;stroke-width:1.6347;stroke-linecap:round;stroke-linejoin:round;stroke-miterlimit:10;" d="
			M1535.372,1266.768c0,0-8.798,73.178-14.167,109.325c-5.369,36.148-6.299,125.247-7.573,158.258"/>
		<g>
			<path style="fill:#FDAE97;" d="M1506.981,1201.306c-5.376,4.317-7.624,7.875-4.234,12.095c3.39,4.221,10.871,5.777,16.246,1.46
				c5.376-4.317,6.986-11.238,3.596-15.459S1512.357,1196.989,1506.981,1201.306z"/>
		</g>
		<path style="fill:#322A28;" d="M1488.385,1182.154c-0.706,2.089-2.373,3.412-3.724,2.955c-1.351-0.457-1.874-2.52-1.169-4.609
			c0.706-2.089,2.373-3.412,3.724-2.955C1488.568,1178.002,1489.091,1180.066,1488.385,1182.154z"/>
		<path style="fill:#322A28;" d="M1463.121,1173.617c-0.706,2.089-0.183,4.152,1.169,4.609c1.351,0.457,3.019-0.866,3.724-2.955
			c0.706-2.089,0.182-4.152-1.169-4.609S1463.827,1171.529,1463.121,1173.617z"/>
		<path style="fill:#EA9D85;" d="M1479.836,1194.632c-0.006,2.136,3.433,3.877,7.68,3.888c4.247,0.011,7.695-1.711,7.701-3.847
			c0.006-2.136-3.432-3.877-7.68-3.889C1483.29,1190.773,1479.842,1192.496,1479.836,1194.632z"/>
		<path style="fill:#EA9D85;" d="M1458.784,1180.999l-2.504,7.41c3,1.421,5.85,1.422,6.833-0.061
			C1464.229,1186.578,1462.301,1183.298,1458.784,1180.999z"/>
		
			<path style="fill:none;stroke:#EA9D85;stroke-width:1.5927;stroke-linecap:round;stroke-linejoin:round;stroke-miterlimit:10;" d="
			M1515.444,1209.297c-3.193-1.797-6.216-2.1-6.216-2.1c4.962-4.662,9.179-2.499,9.179-2.499"/>
		<path style="fill:none;stroke:#332B27;stroke-width:1.0188;stroke-miterlimit:10;" d="M1477.506,1180.089l-9.116,11.78
			c-0.924,1.193-0.916,2.863,0.019,4.047l1.448,1.834l1.483,1.88"/>
		<path style="fill:none;stroke:#332B27;stroke-width:1.0188;stroke-miterlimit:10;" d="M1492.893,1178.942
			c0,0-2.978-5.931-8.686-6.272"/>
		<path style="fill:none;stroke:#332B27;stroke-width:1.0188;stroke-miterlimit:10;" d="M1463.042,1166.365
			c0,0,4.718-2.19,8.856,1.754"/>
		<polygon style="fill:#FDAE97;" points="1450.333,1961.522 1452.669,1927.989 1387.374,1927.989 1384.824,1961.522 		"/>
		<path style="fill:#F74242;" d="M1367.494,1461.119l-0.371-0.102c-16.298-4.466-25.98-21.454-21.514-37.753l36.386-132.799
			c4.466-16.298,21.455-25.98,37.753-21.514l0.371,0.102c16.298,4.466,25.98,21.454,21.514,37.753l-36.386,132.799
			C1400.781,1455.903,1383.792,1465.585,1367.494,1461.119z"/>
		<polygon style="fill:#EA9D85;" points="1386.219,1943.18 1452.669,1927.989 1387.374,1927.989 		"/>
		<polygon style="fill:#FDAE97;" points="1547.253,1961.522 1544.748,1927.935 1611.629,1927.989 1612.762,1961.522 		"/>
		<polygon style="fill:#EA9D85;" points="1546.145,1946.668 1611.629,1927.989 1544.748,1927.935 		"/>
		<path style="fill:#322A28;" d="M1352.646,1989.727h96.419l0.166-3.923l1.184-25.987h-65.61c-8.122,0-15.637,4.769-21.383,9.742
			c-4.752,4.255-8.288,9.835-9.946,16.245C1353.088,1987.075,1352.812,1988.401,1352.646,1989.727z"/>
		<path style="fill:#FFF1F0;" d="M1352.646,1989.727h96.419l0.166-3.923h-95.756
			C1353.088,1987.075,1352.812,1988.401,1352.646,1989.727z"/>
		<g>
			
				<path style="fill:none;stroke:#FFF1F0;stroke-width:1.2615;stroke-linecap:round;stroke-linejoin:round;stroke-miterlimit:10;" d="
				M1382.83,1965.164c0,0,8.334-14.627,13.947-8.844C1402.389,1962.103,1382.83,1965.164,1382.83,1965.164"/>
			
				<path style="fill:none;stroke:#FFF1F0;stroke-width:1.2615;stroke-linecap:round;stroke-linejoin:round;stroke-miterlimit:10;" d="
				M1385.764,1968.077l-2.934-2.913c0,0-8.334-14.627-13.947-8.844c-5.613,5.783,13.947,8.844,13.947,8.844"/>
			
				<line style="fill:none;stroke:#FFF1F0;stroke-width:1.2615;stroke-linecap:round;stroke-linejoin:round;stroke-miterlimit:10;" x1="1380.59" y1="1968.077" x2="1382.83" y2="1965.164"/>
		</g>
		<path style="fill:#322A28;" d="M1644.439,1989.727h-96.419l-0.166-3.923l-1.184-25.987h65.61c8.123,0,15.637,4.769,21.383,9.742
			c4.752,4.255,8.288,9.835,9.946,16.245C1643.997,1987.075,1644.274,1988.401,1644.439,1989.727z"/>
		<path style="fill:#FFF1F0;" d="M1644.439,1989.727h-96.419l-0.166-3.923h95.756
			C1643.997,1987.075,1644.274,1988.401,1644.439,1989.727z"/>
		<g>
			
				<path style="fill:none;stroke:#FFF1F0;stroke-width:1.2615;stroke-linecap:round;stroke-linejoin:round;stroke-miterlimit:10;" d="
				M1614.256,1966.049c0,0-8.334-14.627-13.947-8.844C1594.696,1962.988,1614.256,1966.049,1614.256,1966.049"/>
			
				<path style="fill:none;stroke:#FFF1F0;stroke-width:1.2615;stroke-linecap:round;stroke-linejoin:round;stroke-miterlimit:10;" d="
				M1611.322,1968.962l2.934-2.913c0,0,8.334-14.627,13.947-8.844s-13.947,8.844-13.947,8.844"/>
			
				<line style="fill:none;stroke:#FFF1F0;stroke-width:1.2615;stroke-linecap:round;stroke-linejoin:round;stroke-miterlimit:10;" x1="1616.495" y1="1968.962" x2="1614.256" y2="1966.049"/>
		</g>
		
			<polyline style="fill:none;stroke:#FFFFFF;stroke-width:0.8288;stroke-linecap:round;stroke-linejoin:round;stroke-miterlimit:10;" points="
			1493.557,1637.458 1485.877,1611.814 1478.517,1611.814 1466.8,1580.074 		"/>
		
			<line style="fill:none;stroke:#FFFFFF;stroke-width:0.8288;stroke-linecap:round;stroke-linejoin:round;stroke-miterlimit:10;" x1="1614.256" y1="1903.753" x2="1538.763" y2="1903.753"/>
		
			<line style="fill:none;stroke:#FFFFFF;stroke-width:0.8288;stroke-linecap:round;stroke-linejoin:round;stroke-miterlimit:10;" x1="1460.317" y1="1903.753" x2="1384.824" y2="1903.753"/>
		<path style="fill:#FFFFFF;" d="M1477.431,1205.084l-12.221,1.313c0,0,0.963,6.306,7.052,5.995
			C1478.352,1212.081,1477.431,1205.084,1477.431,1205.084z"/>
		
			<path style="fill:none;stroke:#FFFFFF;stroke-width:1.6347;stroke-linecap:round;stroke-linejoin:round;stroke-miterlimit:10;" d="
			M1398.135,1544.49c0,0,22.482,7.494,44.964,1.543"/>
		<path style="fill:#FFFFFF;" d="M1443.099,1415.989c0,2.313-1.875,4.188-4.188,4.188s-4.188-1.875-4.188-4.188
			c0-2.313,1.875-4.188,4.188-4.188S1443.099,1413.676,1443.099,1415.989z"/>
		<path style="fill:#FFFFFF;" d="M1443.099,1454.46c0,2.313-1.875,4.188-4.188,4.188s-4.188-1.875-4.188-4.188
			c0-2.313,1.875-4.188,4.188-4.188S1443.099,1452.147,1443.099,1454.46z"/>
		<path style="fill:#FFFFFF;" d="M1437.809,1520.399c0,2.313-1.875,4.188-4.188,4.188c-2.313,0-4.188-1.875-4.188-4.188
			c0-2.313,1.875-4.188,4.188-4.188C1435.934,1516.211,1437.809,1518.086,1437.809,1520.399z"/>
		<g>
			<polygon style="fill:#93ACBF;" points="1323.231,1497.516 1467.304,1497.516 1429.703,1389.629 1285.63,1389.629 			"/>
			<g>
				<polygon style="fill:#93ACBF;" points="1465.733,1492.278 1512.844,1450.607 1373.493,1450.607 1321.659,1492.278 				"/>
				<polygon style="fill:#93ACBF;" points="1325.952,1495.128 1470.025,1495.128 1432.424,1387.241 1288.351,1387.241 				"/>
				<polygon style="fill:#586773;" points="1288.351,1387.241 1285.63,1389.629 1429.703,1389.629 1467.304,1497.516 
					1470.025,1495.128 1432.424,1387.241 				"/>
				<polygon style="fill:#586773;" points="1512.844,1450.607 1514.416,1455.844 1467.304,1497.516 1465.479,1492.278 				"/>
			</g>
			<path style="fill:#BBDBF3;" d="M1354.418,1444.799c0,3.905,7.152,7.07,15.974,7.07s15.974-3.166,15.974-7.07
				s-7.152-7.07-15.974-7.07S1354.418,1440.895,1354.418,1444.799z"/>
		</g>
		<path style="fill:#FDAE97;" d="M1438.574,1512.547c0.943,2.544,17.386,2.408,28.756-1.434c9.639-3.245,31.056-13.12,37.348-16.075
			l-11.89-38.641c-4.023,0.694-12.38,1.313-16.17,2.205c-10.084,2.374-29.383,10.628-28.836,14.393
			c0.512,3.734,18.14,0.196,17.075,1.955c-1.065,1.758-14.004,8.726-19.869,9.226c-5.897,0.535-18.671-0.405-20.469,2.528
			c-1.83,2.968,1.708,6.63,1.708,6.63s-4.848-0.923-4.87,2.208c-0.022,3.131,7.16,6.453,7.16,6.453s-2.611-0.818-1.781,2.632
			c0.863,3.481,13.223,4.744,13.223,4.744S1437.564,1510.007,1438.574,1512.547z"/>
		<path style="fill:#F74242;" d="M1490.439,1448.762l121.506-48.825c14.606-5.367,31.549,3.745,37.68,20.297
			c6.093,16.551-0.876,34.515-15.483,39.92l-126.593,44.215L1490.439,1448.762z"/>
		<polyline style="fill:none;stroke:#332B27;stroke-width:1.43;stroke-miterlimit:10;" points="1503.355,1443.572 1581.037,1413.3 
			1557.891,1354.285 		"/>
		
			<line style="fill:none;stroke:#332B27;stroke-width:1.43;stroke-miterlimit:10;" x1="1586.584" y1="1476.766" x2="1518.617" y2="1500.505"/>
	</g>
	<g>
		<g>
			<polygon style="fill:#E62C2C;" points="1043.504,1703.369 1020.678,1566.245 1150.843,1615.04 1119.185,1641.091 
				1157.395,1687.525 1113.372,1723.751 1075.162,1677.317 			"/>
			<polygon style="fill:#F74242;" points="1041.646,1692.045 1018.82,1554.922 1148.985,1603.716 1117.327,1629.768 
				1155.537,1676.202 1111.514,1712.427 1073.304,1665.994 			"/>
			<polygon style="fill:#E62C2C;" points="1148.985,1603.716 1150.843,1615.04 1129.749,1619.546 			"/>
			<polygon style="fill:#E62C2C;" points="1155.537,1676.202 1157.395,1687.525 1138.993,1689.815 			"/>
		</g>
		
			<ellipse transform="matrix(0.7071 -0.7071 0.7071 0.7071 -802.5082 1178.1982)" style="fill:none;stroke:#F74242;stroke-width:1.9898;stroke-miterlimit:10;" cx="1020.957" cy="1557.812" rx="17.805" ry="17.805"/>
		<circle style="fill:none;stroke:#F74242;stroke-width:1.9898;stroke-miterlimit:10;" cx="1020.957" cy="1557.812" r="31.934"/>
		<circle style="fill:none;stroke:#F74242;stroke-width:1.9898;stroke-miterlimit:10;" cx="1020.957" cy="1557.812" r="47.017"/>
	</g>
	<path style="fill:#E5F0F8;" d="M441.916,970.075c-8.32-11.886-22.421-19.391-38.156-18.49c-0.477,0.027-0.963,0.064-1.44,0.101
		c-21.447,1.921-38.432,19.652-39.453,41.163c-0.391,8.427,1.606,16.341,5.356,23.125c1.808,3.264,4.01,6.263,6.556,8.94l0,0.01
		c2.01,2.098,4.215,4.004,6.597,5.668c5.787,4.046,9.417,10.436,10.252,17.385l-2.009,0.03c-0.576,0.009-1.11,0.255-1.482,0.638
		c-0.069,0.071-0.127,0.151-0.195,0.232c-0.254,0.352-0.406,0.792-0.399,1.269c0.017,1.163,0.976,2.103,2.139,2.086
		c-0.577,0.009-1.11,0.255-1.482,0.638c-0.039,0.04-0.068,0.081-0.108,0.121c-0.312,0.382-0.494,0.862-0.486,1.379
		c0.017,1.163,0.976,2.103,2.139,2.086c-0.577,0.009-1.11,0.255-1.482,0.648c-0.059,0.061-0.117,0.131-0.176,0.202
		c-0.263,0.362-0.425,0.822-0.418,1.299c0.017,1.153,0.976,2.093,2.139,2.076c-0.577,0.009-1.11,0.255-1.482,0.648
		c-0.029,0.03-0.049,0.051-0.068,0.081c-0.333,0.373-0.534,0.873-0.526,1.42c0.017,1.163,0.976,2.093,2.139,2.076l2.177-0.032
		c0.027,0.518,0.072,1.032,0.152,1.539c0.289,1.757,0.905,3.401,1.773,4.875c0,0,0,0,0,0c0.164,0.279,0.337,0.55,0.519,0.816
		c0.091,0.133,0.188,0.26,0.283,0.389c0.127,0.173,0.256,0.344,0.391,0.51c0.098,0.122,0.198,0.243,0.3,0.361
		c0.163,0.188,0.331,0.371,0.503,0.551c0.08,0.084,0.157,0.171,0.239,0.252c0.249,0.248,0.509,0.485,0.776,0.714
		c0.093,0.08,0.189,0.154,0.284,0.232c0.198,0.161,0.4,0.317,0.607,0.468c0.105,0.077,0.21,0.153,0.318,0.226
		c0.245,0.168,0.495,0.328,0.751,0.481c0.063,0.038,0.124,0.079,0.188,0.116c0.316,0.182,0.64,0.35,0.97,0.508
		c0.102,0.049,0.207,0.093,0.31,0.14c0.248,0.111,0.499,0.216,0.754,0.313c0.112,0.043,0.224,0.086,0.338,0.126
		c0.32,0.113,0.644,0.216,0.973,0.306c0.038,0.01,0.074,0.024,0.112,0.034c0.366,0.097,0.739,0.175,1.116,0.242
		c0.11,0.02,0.222,0.035,0.333,0.052c0.285,0.044,0.572,0.08,0.863,0.106c0.115,0.011,0.23,0.023,0.346,0.03
		c0.393,0.027,0.788,0.043,1.189,0.037l2.376-0.036c3.926-0.058,7.461-1.702,9.987-4.315c2.076-2.129,3.476-4.904,3.897-7.992
		c0.033-0.266,0.056-0.535,0.073-0.805c0.017-0.241,0.027-0.484,0.032-0.727c0-0.004,0-0.007,0.001-0.01l1.978-0.03
		c0.577-0.009,1.11-0.255,1.482-0.639c0.382-0.393,0.613-0.914,0.604-1.5c-0.008-0.547-0.225-1.041-0.578-1.403
		c-0.384-0.432-0.955-0.692-1.571-0.682c0.577-0.009,1.11-0.255,1.482-0.639c0.382-0.393,0.613-0.924,0.604-1.5
		c-0.007-0.477-0.183-0.932-0.466-1.286c-0.395-0.491-1.006-0.81-1.682-0.8c0.577-0.009,1.11-0.255,1.482-0.648
		c0.382-0.383,0.613-0.924,0.604-1.5c-0.008-0.517-0.204-0.991-0.537-1.364c-0.394-0.442-0.975-0.721-1.611-0.712
		c0.577-0.009,1.11-0.255,1.482-0.649c0.382-0.383,0.613-0.914,0.604-1.5c-0.007-0.477-0.173-0.912-0.446-1.256
		c-0.395-0.511-1.017-0.83-1.703-0.82l-1.999,0.03c0.63-6.972,4.074-13.468,9.729-17.693c10.797-8.055,17.712-20.994,17.496-35.496
		C449.62,985.301,446.741,976.952,441.916,970.075z"/>
	<g>
		<path style="fill:#E5F0F8;" d="M951.894,568.125c-3.849-2.697-8.076-4.67-12.482-5.921c-0.785,4.748-5.032,8.246-9.949,7.995
			c-4.917-0.251-8.775-4.151-9.072-8.955c-4.498,0.785-8.905,2.317-13.008,4.608c2.796,3.917,2.281,9.386-1.379,12.69
			c-3.66,3.304-9.153,3.26-12.765,0.08c-2.697,3.849-4.67,8.076-5.908,12.471c4.748,0.785,8.235,5.02,7.984,9.937
			c-0.251,4.917-4.164,8.786-8.967,9.083c0.796,4.51,2.328,8.917,4.619,13.02c3.906-2.808,9.387-2.304,12.703,1.368
			c3.304,3.66,3.258,9.177,0.067,12.776c3.849,2.697,8.076,4.67,12.471,5.908c0.785-4.748,5.032-8.246,9.949-7.995
			c4.917,0.251,8.775,4.151,9.072,8.955c4.498-0.785,8.904-2.317,13.008-4.608c-2.796-3.917-2.28-9.386,1.379-12.69
			c3.66-3.304,9.153-3.26,12.765-0.08c2.697-3.849,4.67-8.076,5.908-12.471c-4.748-0.785-8.235-5.02-7.984-9.937
			c0.251-4.917,4.164-8.786,8.967-9.083c-0.785-4.498-2.317-8.904-4.608-13.008c-3.929,2.807-9.399,2.292-12.703-1.368
			C948.646,577.229,948.69,571.736,951.894,568.125z M942.935,589.05c7.535,8.345,6.889,21.226-1.469,28.772
			c-8.358,7.546-21.238,6.877-28.772-1.469c-7.546-8.358-6.9-21.239,1.458-28.785C922.51,580.023,935.389,580.692,942.935,589.05z"
			/>
		<path style="fill:#E5F0F8;" d="M909.693,695.491c-5.52,11.145-19.033,15.719-30.195,10.191
			c-11.161-5.529-15.711-19.05-10.191-30.195c5.529-11.161,19.042-15.736,30.203-10.207
			C910.672,670.808,915.222,684.33,909.693,695.491z M934.861,696.196c1.209-5.056,1.519-10.207,1.014-15.248
			c-5.204,1.124-10.529-1.823-12.271-6.983c-1.742-5.16,0.701-10.715,5.522-12.974c-2.636-4.308-6.005-8.218-10.03-11.507
			c-2.892,4.469-8.728,6.163-13.615,3.743c-4.887-2.421-7.076-8.09-5.273-13.099c-5.056-1.209-10.207-1.519-15.232-1.006
			c1.124,5.203-1.815,10.513-6.975,12.254c-5.16,1.742-10.731-0.71-12.991-5.53c-4.316,2.653-8.226,6.021-11.515,10.047
			c4.477,2.876,6.188,8.72,3.759,13.623c-2.421,4.887-8.115,7.084-13.115,5.265c-1.209,5.056-1.519,10.207-1.006,15.231
			c5.203-1.124,10.529,1.823,12.271,6.983c1.741,5.16-0.702,10.715-5.522,12.974c2.636,4.308,6.005,8.218,10.03,11.507
			c2.892-4.469,8.728-6.163,13.615-3.742c4.887,2.421,7.076,8.09,5.273,13.099c5.056,1.209,10.207,1.519,15.232,1.006
			c-1.124-5.204,1.815-10.513,6.975-12.254c5.16-1.741,10.731,0.71,12.991,5.53c4.308-2.636,8.218-6.005,11.507-10.03
			c-4.485-2.9-6.18-8.736-3.759-13.623C924.175,696.558,929.844,694.369,934.861,696.196z"/>
	</g>
	<path style="fill:#FFFFFF;" d="M1447.337,619.456c8.903,20.993,31.652,31.717,53.12,26.467l33.048,77.929l13.504-5.727
		l-33.043-77.919c18.747-11.755,26.813-35.566,17.895-56.594c-9.891-23.324-36.829-34.303-60.153-24.412
		C1448.383,569.091,1437.446,596.132,1447.337,619.456z M1522.676,587.506c7.703,18.164-0.856,39.328-19.02,47.031
		c-18.267,7.747-39.328-0.857-47.031-19.021c-7.746-18.266,0.753-39.283,19.02-47.03
		C1493.81,560.784,1514.93,569.24,1522.676,587.506z"/>
</g>
</svg>
