<?xml version="1.0" encoding="utf-8"?>
<!-- Generator: Adobe Illustrator 27.5.0, SVG Export Plug-In . SVG Version: 6.00 Build 0)  -->
<svg version="1.1" xmlns="http://www.w3.org/2000/svg" xmlns:xlink="http://www.w3.org/1999/xlink" x="0px" y="0px"
	 viewBox="0 0 3710 3710" style="enable-background:new 0 0 3710 3710;" xml:space="preserve">
<g id="Background">
	<g>
		<g>
			<rect style="fill:#FFFFFF;" width="3710" height="3710"/>
		</g>
	</g>
</g>
<g id="Illustration">
	<g>
		<linearGradient id="SVGID_1_" gradientUnits="userSpaceOnUse" x1="3610.8569" y1="4081.4114" x2="1119.3824" y2="987.1564">
			<stop  offset="0" style="stop-color:#DAE3FE"/>
			<stop  offset="1" style="stop-color:#E9EFFD"/>
		</linearGradient>
		<path style="fill:url(#SVGID_1_);" d="M2925.436,2861.149c-57.228,60.247-111.376,99.1-154.159,129.797
			c-502.893,360.831-1097.948,255.651-1224.415,229.964c-186.751-37.93-547.736-111.248-808.721-418.162
			c-394.85-464.335-333.366-1195.882-27.094-1678.786c56.022-88.331,351.946-578.591,953.411-657.214
			c364-47.581,788.307,48.385,1095.578,305.817C3405.028,1312.939,3359.111,2404.59,2925.436,2861.149z"/>
		<g>
			<g>
				<path style="fill:#91B3FA;" d="M1319.775,2305.67c0,0,8.916-374.869-163.745-475.201
					c-172.66-100.332-500.95-163.059-513.255-701.336c-7.205-315.131-15.002-452.912-20.228-512.99
					c-2.039-23.436,18.787-42.352,41.904-37.998c163.524,30.805,694.744,157.602,806.118,520.183
					C1602.603,1528.172,1319.775,2305.67,1319.775,2305.67z"/>
				<path style="opacity:0.5;fill:#FFFFFF;" d="M790.915,727.91c179.501,160.089,387.06,443.414,497.691,726.74
					c14.201,46.694,55.74,145.993,73.778,322.422c16.112,147.145,8.102,302.632-11.434,405.557
					c-1.235,6.507-7.511,10.781-14.018,9.545c-11.189-2.123-9.701-14.157-9.6-13.777c22.311-175.849,13.05-394.724-38.073-592.212
					c-65.315-242.492-210.993-477.598-361.671-677l-15.506-19.635C795.343,739.628,770.766,738.524,781.68,728.073
					C784.257,725.605,788.292,725.583,790.915,727.91z"/>
			</g>
			<g>
				<path style="fill:#BDD0FB;" d="M1597.247,3026.407c23.36,11.455-221.152-296.022-297.747-778.937
					c-36.093-227.562-36.564-512.678-166.193-622.552c-107.886-91.444-475.009-33.712-595.132-11.772
					c-15.01,2.741-20.063,21.702-8.379,31.516c57.605,48.378,180.834,162.492,212.942,277.497
					c42.321,151.585,186.437,248.002,315.456,274.095c129.02,26.093,200.791,51.416,263.645,257.747
					C1384.694,2660.331,1530.87,2993.86,1597.247,3026.407z"/>
				<path style="fill:#91B3FA;" d="M707.12,1677.193c153.258,6.419,317.769,76.33,401.252,207.469l7.88,12.514
					c18.199,29.342,121.34,237.929,178.624,410.836c0.713,2.156-0.455,4.482-2.61,5.196c-3.661,1.212-5.495-2.817-5.146-2.461
					c-39.911-97.68-97.233-221.522-142.887-314.133c-48.96-101.057-83.222-169.496-194.896-235.05
					c-124.297-70.599-243.044-77.867-242.688-77.794c-1.812-0.185-3.132-1.804-2.947-3.617
					C703.879,1678.411,705.394,1677.125,707.12,1677.193z"/>
			</g>
			<g>
				<path style="fill:#91B3FA;" d="M1492.427,3066.855c13.863,7.309-78.085-150.953-85.141-290.384
					c-7.056-139.431-38.511-377.408-158.75-519.764c-120.239-142.356-251.912-155.344-417.827-25.929
					c-138.262,107.845-224.507,162.271-275.086,172.388c-12.524,2.505-18.916,16.644-12.821,27.868
					c32.441,59.741,124.158,196.967,278.157,187.306c196.435-12.323,434.5-140.02,507.059-33.494
					c72.559,106.526,63.242,166.131,65.471,216.616C1395.719,2851.948,1400.688,3018.487,1492.427,3066.855z"/>
				<path style="opacity:0.5;fill:#FFFFFF;" d="M886.449,2401.709c60.178-57.692,158.185-114.385,243.84-103.814
					c111.443,17.952,185.681,92.372,226.176,203.154c15.831,47.039,22.342,72.148,31.701,129.808
					c0.748,4.604-6.044,5.98-7.175,1.484c-6.81-27.083-13.556-55.44-23.647-84.77c-58.74-189.224-184.131-214.711-189.009-218.583
					c-9.479,0.935-66.949-42.086-203.313,31.291c-25.464,13.86-50.251,29.682-73.522,47.132l-0.129,0.097
					c-1.684,1.263-4.072,0.922-5.335-0.762C884.869,2405.187,885.075,2403.023,886.449,2401.709z"/>
			</g>
		</g>
		<g>
			<g>
				
					<linearGradient id="SVGID_00000000906401597641112920000017055400154496947586_" gradientUnits="userSpaceOnUse" x1="2274.4348" y1="-849.1891" x2="1647.3256" y2="1673.0217" gradientTransform="matrix(0.9897 -0.143 0.1273 0.8808 224.3361 -123.5608)">
					<stop  offset="0" style="stop-color:#FF928E"/>
					<stop  offset="1" style="stop-color:#FE7062"/>
				</linearGradient>
				<path style="fill:url(#SVGID_00000000906401597641112920000017055400154496947586_);" d="M2129.108,933.863l-737.97,74.563
					c-8.024,0.811-15.116,5.566-18.912,12.681l-199.302,373.523c-6.521,12.222-8.969,26.206-6.988,39.917l253.399,1753.474
					c1.896,13.124,14.276,22.075,27.333,19.765l1220.042-215.905c15.26-2.7,25.62-17.027,23.403-32.365l-246.147-1703.288
					c-2.571-17.788-10.611-34.337-23.006-47.352l-245.622-257.899C2163.398,938.44,2146.334,932.123,2129.108,933.863z"/>
			</g>
			<g style="opacity:0.54;">
				<path style="fill:#FFFFFF;" d="M1500.634,3125.678c-5.397,0-10.663-1.703-15.186-4.968c-5.932-4.285-9.943-10.956-11.003-18.303
					l-236.036-1633.34c-2.016-13.924,0.279-27.832,6.635-40.223l177.942-346.82c4.203-8.187,12.08-13.609,21.074-14.506
					l664.638-66.164c17.002-1.682,34.214,4.951,46.041,17.773l222.459,241.146c11.999,13.01,19.698,29.242,22.255,46.943
					l229.283,1586.596c2.476,17.149-8.574,32.896-25.156,35.851l-1098.399,195.613
					C1503.666,3125.545,1502.145,3125.678,1500.634,3125.678z M2109.211,1006.496l0.511,5.143l-664.638,66.164
					c-5.485,0.547-10.307,3.888-12.901,8.939l-177.939,346.818c-5.374,10.471-7.312,22.238-5.606,34.027l236.036,1633.342
					c0.673,4.657,3.099,8.707,6.827,11.4c3.496,2.525,7.719,3.505,11.871,2.769l1098.399-195.613
					c11.057-1.972,18.409-12.6,16.737-24.198l-229.283-1586.594c-2.261-15.625-9.045-29.945-19.624-41.413l-222.459-241.146
					c-9.785-10.609-23.443-15.902-37.42-14.496L2109.211,1006.496z"/>
			</g>
			<g>
				<path style="fill:#FFFFFF;" d="M1948.729,2669.646l-13.687-82.182c-86.245,10.837-174.35,4.732-238.922-11.591
					c-23.058-5.829-38.031-28.123-35.626-51.785l8.129-80.027c2.981-29.358,31.103-48.97,59.82-42.186
					c63.873,15.083,140.886,22.608,220.375,9.369c82.517-13.743,139.396-51.967,129.845-109.313
					c-8.618-51.744-61.291-74.591-181.101-86.257c-171.089-17.501-300.454-69.266-324.446-213.323
					c-21.664-130.076,56.909-245.213,217.514-299.268l-13.688-82.19c-4.404-26.446,13.465-51.454,39.911-55.858l48.284-8.042
					c26.448-4.405,51.455,13.462,55.859,39.909l12.289,73.793c79.805-10.031,139.768-6.084,188.245,2.381
					c24.836,4.335,41.867,27.475,39.354,52.562l-7.408,73.993c-2.857,28.534-29.544,48.347-57.669,42.75
					c-44.819-8.923-107.195-15.597-184.682-2.692c-97.904,16.305-119.117,61.52-113.06,97.885
					c7.453,44.755,71.318,65.738,205.11,83.708c190.903,24.263,279.001,87.208,301.596,222.873
					c20.73,124.473-52.937,251.735-227.298,309.527l15.317,91.972c4.405,26.446-13.464,51.456-39.91,55.86l-48.291,8.042
					C1978.143,2713.961,1953.134,2696.092,1948.729,2669.646z"/>
			</g>
			
				<linearGradient id="SVGID_00000093147865192076839720000013290734861149263020_" gradientUnits="userSpaceOnUse" x1="2099.7178" y1="141.8816" x2="1712.1071" y2="1625.1338">
				<stop  offset="0" style="stop-color:#FDF53F"/>
				<stop  offset="1" style="stop-color:#D93C65"/>
			</linearGradient>
			
				<circle style="fill:url(#SVGID_00000093147865192076839720000013290734861149263020_);" cx="1815.968" cy="1227.695" r="122.91"/>
			
				<ellipse transform="matrix(0.7071 -0.7071 0.7071 0.7071 -336.2271 1643.6666)" style="fill:#FFFFFF;" cx="1815.968" cy="1227.695" rx="100.247" ry="100.247"/>
			
				<linearGradient id="SVGID_00000000940902771060310910000000547141818382953911_" gradientUnits="userSpaceOnUse" x1="1467.3647" y1="860.7066" x2="1946.8583" y2="860.7066">
				<stop  offset="0" style="stop-color:#09005D"/>
				<stop  offset="1" style="stop-color:#1A0F91"/>
			</linearGradient>
			<path style="fill:url(#SVGID_00000000940902771060310910000000547141818382953911_);" d="M1719.877,1256.331
				c-4.743-15.654-5.382-32.153-1.982-49.482l6.577-5.053c216.966-166.721,208.763-381.138,128.738-526.209
				c-65.873-119.416-176.748-191.121-252.404-163.252c-93.6,34.484-114.602,215.457-60.255,480.996l-43.356,4.381l0.42,2.057
				c-81.718-399.263,20.621-501.076,88.897-526.229c95.93-35.344,226.149,42.934,302.902,182.078
				c88.32,160.109,97.987,396.283-139.75,578.966L1719.877,1256.331z"/>
		</g>
		<g>
			<g>
				
					<linearGradient id="SVGID_00000080894715312679669970000004365101445395555736_" gradientUnits="userSpaceOnUse" x1="2051.8718" y1="1347.2228" x2="2869.3784" y2="1735.2567" gradientTransform="matrix(0.9999 -0.015 0.015 0.9999 -78.3148 17.0219)">
					<stop  offset="0" style="stop-color:#09005D"/>
					<stop  offset="1" style="stop-color:#1A0F91"/>
				</linearGradient>
				<path style="fill:url(#SVGID_00000080894715312679669970000004365101445395555736_);" d="M2543.529,1286.761
					c0,0-45.185-110.715,125.246-88.393c170.431,22.322,129.01,86.665,142.481,136.946
					c13.471,50.281,84.973,107.263,283.946,184.841c198.973,77.579,139.981,289.082,50.608,359.281
					c-89.373,70.2-138.112,23.54-158.899,144.702c-20.787,121.162-103.709,219.562-207.169,116.852
					c-103.459-102.709-221.052-224.163-188.166-383.42c32.886-159.258-4.355-129.13-68.554-202.191
					C2458.823,1482.319,2594.898,1411.6,2543.529,1286.761z"/>
				
					<linearGradient id="SVGID_00000065044932585777762410000014081089678348913321_" gradientUnits="userSpaceOnUse" x1="2297.9961" y1="1763.0605" x2="2559.8606" y2="1446.0671">
					<stop  offset="0" style="stop-color:#FEBBBA"/>
					<stop  offset="1" style="stop-color:#FF928E"/>
				</linearGradient>
				<path style="fill:url(#SVGID_00000065044932585777762410000014081089678348913321_);" d="M2581.567,1583.219
					c-27.059-27.448-53.385,38.522-60.411,55.054c-17.743,41.746-36.188,79.215-73.637,107.823
					c-23.167,17.698-54.478,29.046-83.791,20.542c-105.577-30.628-106.067-115.434-108.444-178.959
					c2.447-18.018-8.36-35.876-21.451-41.447c-15.2-6.47-21.019-22.198-21.019-22.198s-10.33,22.902,2.367,33.638
					c4.436,3.753,5.739,8.187,5.601,12.384c-1.483-0.248-3.009-0.474-4.607-0.676c-31.736-3.968,0.117,41.458,0.117,41.458
					s-30.72,166.278,110,232.36c69.659,32.712,123.085,24.958,159.389,8.771c18.337-6.404,34.157-17.907,47.686-32.579
					c5.448-5.439,8.23-9.111,8.23-9.111l0.009-0.524C2597.765,1738.342,2607.515,1609.541,2581.567,1583.219z"/>
				
					<linearGradient id="SVGID_00000038401939361549850160000008243588087123437441_" gradientUnits="userSpaceOnUse" x1="5741.4824" y1="3012.5383" x2="5731.2446" y2="4271.7856" gradientTransform="matrix(-0.9922 -0.1247 -0.1247 0.9922 8562.0234 715.4178)">
					<stop  offset="0" style="stop-color:#4F52FF"/>
					<stop  offset="1" style="stop-color:#4042E2"/>
				</linearGradient>
				<path style="fill:url(#SVGID_00000038401939361549850160000008243588087123437441_);" d="M2582.738,1572.67
					c27.653-8.291,108.172-23.597,184.758,47.081c12.989,11.986,18.298,30.201,13.665,47.258
					c-20.571,75.731-74.845,299.478-27.256,396.288c0,0-83.862,92.448-175.353,17.936c0,0-41.05-178.908-94.816-257.449
					c-37.121-54.224,59.19-203.62,83.558-239.712C2570.984,1578.607,2576.422,1574.563,2582.738,1572.67z"/>
				
					<linearGradient id="SVGID_00000094580885708472630590000010606443320354076036_" gradientUnits="userSpaceOnUse" x1="-6106.0693" y1="2660.5183" x2="-6083.9351" y2="2503.3674" gradientTransform="matrix(0.9602 0.2794 -0.2794 0.9602 9200.4277 797.6744)">
					<stop  offset="0" style="stop-color:#FEBBBA"/>
					<stop  offset="1" style="stop-color:#FF928E"/>
				</linearGradient>
				<path style="fill:url(#SVGID_00000094580885708472630590000010606443320354076036_);" d="M2659.093,1422.21
					c0,0,40.897,115.682,43.974,166.717c0,0-45.201,20.554-87.792-14.137c0,0-4.469-115.547-10.927-136.238L2659.093,1422.21z"/>
				
					<linearGradient id="SVGID_00000032646953359870684450000006457699706800702632_" gradientUnits="userSpaceOnUse" x1="-6207.543" y1="2323.7888" x2="-6000.5859" y2="2561.7341" gradientTransform="matrix(0.9602 0.2794 -0.2794 0.9602 9200.4277 797.6744)">
					<stop  offset="0" style="stop-color:#FEBBBA"/>
					<stop  offset="1" style="stop-color:#FF928E"/>
				</linearGradient>
				<path style="fill:url(#SVGID_00000032646953359870684450000006457699706800702632_);" d="M2602.284,1264.48
					c0,0-106.97,149.7-43.026,193.182c63.943,43.483,140.092-62.903,140.092-62.903s24.82-81.936-1.133-109.731
					C2672.263,1257.233,2602.284,1264.48,2602.284,1264.48z"/>
				
					<linearGradient id="SVGID_00000080190438951990746820000015595483705829119896_" gradientUnits="userSpaceOnUse" x1="2156.4788" y1="1054.2211" x2="2973.9929" y2="1442.2585">
					<stop  offset="0" style="stop-color:#09005D"/>
					<stop  offset="1" style="stop-color:#1A0F91"/>
				</linearGradient>
				<path style="fill:url(#SVGID_00000080190438951990746820000015595483705829119896_);" d="M2735.062,1263.018
					c-20.244-48.748-83.264-34.311-83.264-34.311s-49.142,11.644-56.03,33.879c-3.098,10.002,10.697,19.679,28.765,27.389
					c40.239,17.173,69.483,53.348,77.761,96.307l1.906,9.889C2704.201,1396.17,2755.306,1311.767,2735.062,1263.018z"/>
				
					<linearGradient id="SVGID_00000096779496317927787470000014379290636475830695_" gradientUnits="userSpaceOnUse" x1="-6155.8369" y1="2278.8123" x2="-5948.8823" y2="2516.7544" gradientTransform="matrix(0.9602 0.2794 -0.2794 0.9602 9200.4277 797.6744)">
					<stop  offset="0" style="stop-color:#FEBBBA"/>
					<stop  offset="1" style="stop-color:#FF928E"/>
				</linearGradient>
				<path style="fill:url(#SVGID_00000096779496317927787470000014379290636475830695_);" d="M2678.613,1383.744
					c0,0,41.636-48.22,58.198-16.783c16.561,31.435-37.477,55.036-56.183,39.602L2678.613,1383.744z"/>
				
					<linearGradient id="SVGID_00000049195508635309179840000010590499801093041307_" gradientUnits="userSpaceOnUse" x1="5313.5415" y1="3441.9241" x2="5807.2935" y2="2570.3452" gradientTransform="matrix(-1 -0.0095 -0.0095 1 8305.918 56.9446)">
					<stop  offset="0" style="stop-color:#FEBBBA"/>
					<stop  offset="1" style="stop-color:#FF928E"/>
				</linearGradient>
				<path style="fill:url(#SVGID_00000049195508635309179840000010590499801093041307_);" d="M2471.746,2456.87
					c0.315,8.122-13.945,72.545-21.706,106.909c-3.123,13.826-0.948,28.296,6.092,40.599l268.771,452.356
					c3.252,5.472,5.618,11.4,7.058,17.6c4.925,21.228,15.141,73.253,9.807,120.581l-13.904,28.878l60.132-13.654l13.083-161.485
					l-17.023-10.38c-14.707-8.966-26.158-22.372-32.716-38.3c-24.303-59.035-84.654-209.307-100.211-282.542
					c-17.68-83.23-110.105-150.833-110.105-150.833l16.237-38.389L2471.746,2456.87z"/>
				
					<linearGradient id="SVGID_00000016773472758547050630000013672156177794870929_" gradientUnits="userSpaceOnUse" x1="5421.1763" y1="3133.7715" x2="5565.5005" y2="3133.7715" gradientTransform="matrix(-1 -0.0095 -0.0095 1 8305.918 56.9446)">
					<stop  offset="0" style="stop-color:#09005D"/>
					<stop  offset="1" style="stop-color:#1A0F91"/>
				</linearGradient>
				<path style="fill:url(#SVGID_00000016773472758547050630000013672156177794870929_);" d="M2854.825,3154.57
					c0,0-32.472-51.482-36.292-71.522c-3.82-20.04-14.457-55.429-34.476-44.775c0,0-9.435,97.349-6.182,135.387
					c3.252,38.038-43.001,36.815-43.001,36.815s-12.747,1.792-22.083,11.125c-6.447,6.445-1.837,17.627,7.259,18.213
					c15.135,0.975,39.178,1.231,64.422-3.648c8.823-1.705,15.363-9.212,15.897-18.182l6.664-112.041l40.962,51.722L2854.825,3154.57
					z"/>
				
					<linearGradient id="SVGID_00000111894791869424479770000008529511744554242955_" gradientUnits="userSpaceOnUse" x1="5736.0293" y1="2840.9783" x2="4997.604" y2="3077.1028" gradientTransform="matrix(-1 -0.0095 -0.0095 1 8305.918 56.9446)">
					<stop  offset="0" style="stop-color:#FEBBBA"/>
					<stop  offset="1" style="stop-color:#FF928E"/>
				</linearGradient>
				<path style="fill:url(#SVGID_00000111894791869424479770000008529511744554242955_);" d="M2632.307,2528.925
					c0,0,9.479,404.63,10.764,462.097c1.283,57.467-9.076,184.822-66.685,222.888l25.068,18.56c0,0,31.329-26.628,61.935-77.872
					c34.382-57.568,44.779-68.086,44.779-68.086l-11.409-23.364c-4.996-10.229-6.463-21.801-4.163-32.949
					c12.432-60.254,53.963-260.668,65.292-303.828c13.373-50.948,14.325-118.983-32.201-175.934
					C2679.162,2493.487,2632.307,2528.925,2632.307,2528.925z"/>
				
					<linearGradient id="SVGID_00000003097180268431239930000015146809399627330987_" gradientUnits="userSpaceOnUse" x1="5554.9834" y1="3159.8379" x2="5727.0332" y2="3159.8379" gradientTransform="matrix(-1 -0.0095 -0.0095 1 8305.918 56.9446)">
					<stop  offset="0" style="stop-color:#09005D"/>
					<stop  offset="1" style="stop-color:#1A0F91"/>
				</linearGradient>
				<path style="fill:url(#SVGID_00000003097180268431239930000015146809399627330987_);" d="M2685.506,3250.707
					c1.788,0.018,3.307-1.262,3.559-3.031c1.918-13.491,9.897-67.572,16.429-81.575c7.481-16.038,31.919-83.54-0.013-89.27
					c0,0-79.385,115.982-94.624,131.618c-15.239,15.638-34.472,5.462-34.472,5.462s-14.848,4.387-26.045,18.695
					c-5.328,6.811-0.365,16.807,8.283,16.89l53.471,0.51c15.528,0.147,29.495-9.287,35.268-23.703
					c9.412-23.509,25.58-57.991,44.425-73.289l-9.792,93.758C2681.776,3248.862,2683.405,3250.687,2685.506,3250.707
					L2685.506,3250.707z"/>
				
					<linearGradient id="SVGID_00000004522936104334340120000018308272758269939591_" gradientUnits="userSpaceOnUse" x1="5631.3848" y1="2384.2026" x2="5390.2168" y2="3485.3862" gradientTransform="matrix(-1 -0.0095 -0.0095 1 8305.918 56.9446)">
					<stop  offset="0" style="stop-color:#09005D"/>
					<stop  offset="1" style="stop-color:#1A0F91"/>
				</linearGradient>
				<path style="fill:url(#SVGID_00000004522936104334340120000018308272758269939591_);" d="M2565.896,2037.606
					c0,0,12.05,38.406-6.462,101.663l-114.832,400.999c-1.803,6.301,1.596,12.895,7.765,15.109
					c34.349,12.328,147.263,47.172,301.4,36.546c7.761-0.534,14.268-6.03,15.956-13.624
					c10.156-45.715,44.809-201.691,51.944-233.739c27.186-122.117,57.541-253.81-76-333.442
					C2684.124,2037.479,2626.723,2053.016,2565.896,2037.606z"/>
				<g>
					
						<linearGradient id="SVGID_00000182510921720729367730000014653064837137826458_" gradientUnits="userSpaceOnUse" x1="2263.0288" y1="1562.5507" x2="2274.5603" y2="1836.4283">
						<stop  offset="0" style="stop-color:#09005D"/>
						<stop  offset="1" style="stop-color:#1A0F91"/>
					</linearGradient>
					<path style="fill:url(#SVGID_00000182510921720729367730000014653064837137826458_);" d="M2332.01,1678.438
						c3.717-8.183,2.789-18.906,1.951-27.385c-1.943-19.649-1.782-39.24-2.101-58.979c-0.825-51.143-0.374-102.416-4.427-153.436
						c-0.875-11.011,0.302-22.056-0.557-33.022c-2.18-27.831-18.502-36.044-45.657-41.851c-22.967-4.911-48.008-11.673-71.74-6.629
						c-9.347,1.986-18.34,7.099-19.509,16.856c-4.715,39.391-3.539,297.515,44.004,304.616c16.055,2.399,31.99,5.21,47.949,8.084
						c11.348,2.044,26.52,6.352,37.949,2.507C2326.113,1687.099,2329.848,1683.198,2332.01,1678.438z"/>
					
						<linearGradient id="SVGID_00000035505123379902136520000012853818110798359988_" gradientUnits="userSpaceOnUse" x1="2387.4331" y1="1346.152" x2="2148.4851" y2="1639.905">
						<stop  offset="0" style="stop-color:#09005D"/>
						<stop  offset="1" style="stop-color:#1A0F91"/>
					</linearGradient>
					<path style="fill:url(#SVGID_00000035505123379902136520000012853818110798359988_);" d="M2313.151,1678.438
						c3.717-8.183,2.789-18.906,1.95-27.385c-1.942-19.649-1.782-39.24-2.101-58.979c-0.826-51.143-0.373-102.416-4.426-153.436
						c-0.875-11.011,0.302-22.056-0.557-33.022c-2.18-27.831-18.503-36.044-45.658-41.851c-22.967-4.911-48.008-11.673-71.74-6.629
						c-9.348,1.986-18.341,7.099-19.509,16.856c-4.715,39.391-3.539,297.515,44.004,304.616c16.056,2.399,31.99,5.21,47.949,8.084
						c11.348,2.044,26.52,6.352,37.95,2.507C2307.254,1687.099,2310.989,1683.198,2313.151,1678.438z"/>
				</g>
				
					<linearGradient id="SVGID_00000033341755531448890720000010828912104030600108_" gradientUnits="userSpaceOnUse" x1="2237.3945" y1="1478.5846" x2="2144.5806" y2="1592.6865">
					<stop  offset="0" style="stop-color:#FEBBBA"/>
					<stop  offset="1" style="stop-color:#FF928E"/>
				</linearGradient>
				<path style="fill:url(#SVGID_00000033341755531448890720000010828912104030600108_);" d="M2176.049,1606.162
					c0,0-8.627-5.861-15.718-40.881c-7.091-35.02-14.127-56.232,0-72.478c14.127-16.247,36.025-16.953,36.025,0
					c0,16.953-3.67,48.182-1.129,72.478C2197.77,1589.577,2191.766,1647.043,2176.049,1606.162z"/>
				<path style="fill:#91B3FA;" d="M2719.094,1251.174c16.327,3.468,32.068,11.211,44.148,23.316
					c5.91,6.167,10.532,13.592,13.547,21.644l2.006,6.145l1.148,6.352c0.812,4.28,1.203,8.231,1.892,12.345
					c5.976,32.444,20.228,63.417,41.411,88.683c10.442,12.742,22.603,24.08,36.083,33.575c13.418,9.644,28.376,16.721,43.469,23.94
					c15.072,7.144,30.365,13.827,45.881,19.963c15.467,6.266,31.186,11.953,47.295,16.451
					c-32.792-6.964-64.247-19.169-94.975-32.458c-15.333-6.573-30.688-13.998-44.623-23.686
					c-13.95-9.619-26.608-21.153-37.479-34.185c-21.424-26.293-36.12-58.102-41.334-91.597c-0.569-4.15-0.879-8.545-1.524-12.5
					l-0.891-6.021l-1.713-5.83c-2.599-7.671-6.767-14.817-12.21-20.946C2750.267,1264.085,2735.068,1255.849,2719.094,1251.174z"/>
				<path style="fill:#91B3FA;" d="M3151.784,1602.009c13.605,19.994,23.198,42.664,29.401,66.181
					c6.139,23.564,7.909,48.365,4.929,72.699c-3.575,24.246-12.198,47.76-25.508,68.251c-3.532,4.978-6.814,10.121-10.793,14.743
					c-1.937,2.345-3.768,4.779-5.788,7.047l-6.21,6.664c-4.048,4.531-8.835,8.319-13.2,12.494
					c-4.548,3.987-9.407,7.613-14.131,11.352c17.965-16.1,34.042-34.223,46.434-54.601c5.817-10.383,11.452-20.902,15.282-32.171
					c3.916-11.208,6.725-22.783,8.321-34.541c3.34-23.534,1.577-47.623-3.545-70.928c-2.524-11.68-6.018-23.164-10.251-34.386
					C3162.613,1623.54,3157.617,1612.572,3151.784,1602.009z"/>
			</g>
			<g>
				<path style="fill:#FFFFFF;" d="M2945.436,2347.512c-1.321,0-2.478-0.958-2.689-2.299c-0.139-0.889-14.364-89.24-41.498-104.697
					c-4.38-2.487-8.721-2.808-13.32-0.978c-36.477,14.519-17.865,97.737-17.674,98.576c0.33,1.467-0.581,2.927-2.048,3.26
					c-1.493,0.324-2.927-0.581-3.264-2.045c-0.826-3.611-19.794-88.626,20.977-104.853c6.138-2.448,12.203-2.002,18.017,1.308
					c29.401,16.745,43.599,104.839,44.187,108.582c0.231,1.483-0.78,2.877-2.266,3.112
					C2945.714,2347.502,2945.575,2347.512,2945.436,2347.512z"/>
				
					<linearGradient id="SVGID_00000168802353279680198700000014833301967060464010_" gradientUnits="userSpaceOnUse" x1="3020.8198" y1="1913.4756" x2="2851.9863" y2="2495.7798">
					<stop  offset="0" style="stop-color:#FF928E"/>
					<stop  offset="1" style="stop-color:#FE7062"/>
				</linearGradient>
				<polygon style="fill:url(#SVGID_00000168802353279680198700000014833301967060464010_);" points="2983.039,2338.569 
					2842.187,2325.552 2810.831,2342.938 2837.701,2376.559 2966.353,2363.454 				"/>
				
					<linearGradient id="SVGID_00000105389115303633311460000016284310241208966559_" gradientUnits="userSpaceOnUse" x1="3531.2634" y1="1916.0466" x2="2793.9067" y2="2773.9993">
					<stop  offset="0" style="stop-color:#FF928E"/>
					<stop  offset="1" style="stop-color:#FE7062"/>
				</linearGradient>
				<polygon style="fill:url(#SVGID_00000105389115303633311460000016284310241208966559_);" points="3051.014,2675.4 
					3099.315,2647.641 2983.039,2338.569 2955.128,2357.41 				"/>
				<path style="fill:#FFFFFF;" d="M2919.933,2381.118c-0.066,0-0.139-0.003-0.211-0.007c-1.5-0.119-2.623-1.43-2.504-2.927
					c0.073-0.898,6.316-90.42-19.127-119.537c-4.777-5.467-10.201-8.298-16.59-8.658c-6.257-0.4-11.721,1.784-16.815,6.531
					c-27.426,25.549-29.031,114.238-29.044,115.13c-0.02,1.49-1.236,2.683-2.722,2.683c0,0-0.026,0-0.04,0
					c-1.507-0.023-2.702-1.259-2.682-2.762c0.053-3.74,1.671-91.916,30.782-119.034c6.145-5.732,13.214-8.417,20.825-7.985
					c7.816,0.439,14.674,3.977,20.389,10.512c27.346,31.297,20.528,122.625,20.455,123.544
					C2922.536,2380.035,2921.341,2381.118,2919.933,2381.118z"/>
				
					<linearGradient id="SVGID_00000101079121110392754490000001322316787668071593_" gradientUnits="userSpaceOnUse" x1="2873.2351" y1="2620.8022" x2="3445.2019" y2="1518.2144">
					<stop  offset="0" style="stop-color:#FF928E"/>
					<stop  offset="1" style="stop-color:#FE7062"/>
				</linearGradient>
				<polygon style="fill:url(#SVGID_00000101079121110392754490000001322316787668071593_);" points="2810.751,2343.949 
					2955.128,2357.41 3051.014,2675.4 2843.743,2680.817 				"/>
				<g>
					
						<linearGradient id="SVGID_00000088849224459461541620000012557926845596437432_" gradientUnits="userSpaceOnUse" x1="3020.4421" y1="2539.6099" x2="3368.4473" y2="1919.4038">
						<stop  offset="0" style="stop-color:#FF928E"/>
						<stop  offset="1" style="stop-color:#FE7062"/>
					</linearGradient>
					<path style="fill:url(#SVGID_00000088849224459461541620000012557926845596437432_);" d="M3053.925,2670.428
						c-0.158,0-0.323-0.022-0.488-0.06c-1.027-0.269-1.634-1.32-1.372-2.347l9.268-35.337l-73.119-226.877
						c-0.322-1.012,0.232-2.092,1.237-2.422c1.042-0.308,2.107,0.232,2.422,1.237l73.292,227.417c0.113,0.352,0.12,0.727,0.03,1.08
						l-9.41,35.877C3055.551,2669.858,3054.779,2670.428,3053.925,2670.428z"/>
				</g>
				<g>
					
						<linearGradient id="SVGID_00000180350454185012001070000007348375780720602543_" gradientUnits="userSpaceOnUse" x1="3111.269" y1="2590.574" x2="3459.2739" y2="1970.368">
						<stop  offset="0" style="stop-color:#FF928E"/>
						<stop  offset="1" style="stop-color:#FE7062"/>
					</linearGradient>
					<path style="fill:url(#SVGID_00000180350454185012001070000007348375780720602543_);" d="M3095.822,2648.272
						c-0.277,0-0.563-0.06-0.824-0.188L3070,2636.133c-0.96-0.457-1.365-1.604-0.907-2.557c0.465-0.952,1.627-1.357,2.557-0.907
						l24.998,11.952c0.96,0.458,1.365,1.605,0.907,2.557C3097.224,2647.867,3096.534,2648.272,3095.822,2648.272z"/>
				</g>
			</g>
			
				<linearGradient id="SVGID_00000091694427837123894450000013959254902974220697_" gradientUnits="userSpaceOnUse" x1="2757.0598" y1="1981.5632" x2="2696.9102" y2="1362.882" gradientTransform="matrix(0.997 0.0777 -0.0777 0.997 229.9389 -157.9383)">
				<stop  offset="0" style="stop-color:#FEBBBA"/>
				<stop  offset="1" style="stop-color:#FF928E"/>
			</linearGradient>
			<path style="fill:url(#SVGID_00000091694427837123894450000013959254902974220697_);" d="M2719.094,1730.024
				c-1.481,11.374,100.443,122.117,130.416,261.063c29.973,138.945,19.893,231.72,19.893,231.72s-30.451,22.71-19.504,38.819
				c10.948,16.107,8.059,27.069,22.053,30.195c13.994,3.125,31.347,7.529,29.228-20.095c-2.117-27.623,30.86-33.188,25.382-49.886
				c-5.452-16.62,31.867-465.041-148.655-586.673c-0.852-0.574-1.709-1.142-2.572-1.701
				C2719.078,1668.865,2721.178,1714.014,2719.094,1730.024z"/>
		</g>
	</g>
</g>
</svg>
